<svg xmlns="http://www.w3.org/2000/svg" width="1529.333" height="1529.333" version="1.0" viewBox="0 0 1147 1147"><path d="M123.8 63c-30 5.3-54.1 28.6-60.2 58.2-2.2 10.8-2.3 86.8-.2 98.2 5.2 26.8 24.9 48.1 52.6 56.8 7.4 2.3 8 2.3 54.5 2.3s47.1 0 54.5-2.3c27.7-8.7 47.4-30 52.6-56.8 2-10.9 2-86.9 0-97.8-2.9-15.1-10.7-28.9-22.5-39.9-7.8-7.2-16.2-12.1-27.6-16l-9-3.2-45-.2c-24.7-.1-47.1.2-49.7.7zm98.4 35.3c8.5 4.2 16.1 11.6 20 19.5l3.3 6.7v92l-2.6 5.6c-4.8 10.2-13.9 18.3-24.6 22-5.2 1.8-8.7 1.9-47.9 1.9-40.8 0-42.5-.1-48.1-2.1-11-4.1-19.4-11.7-24.2-21.8l-2.6-5.6v-92l2.6-5.6c4.7-9.9 13.8-18.2 24.2-22 4.8-1.7 8.3-1.9 49.7-1.6l44.5.2 5.7 2.8z"/><path d="M141.8 125.3c-6.2 2-12.3 7-14.9 12.3-2.4 4.8-2.4 5.4-2.4 32.9s0 28.1 2.4 32.9c2.5 5 8.4 10 14.4 12.3 2.1.8 11.9 1.2 28.8 1.2 29.6.1 32.2-.4 39.3-7.5 7.1-7 7.6-9.8 7.6-38.9 0-29.2-.6-32.2-7.7-39.1-7-6.9-9.9-7.4-38.7-7.3-16.2 0-26.4.5-28.8 1.2zM381.5 63.4c-10.2 4.4-12.4 18.1-4.1 25.4 14 12.3 33.8-6.7 21.9-20.9-4.7-5.5-11.6-7.2-17.8-4.5zM505.5 63.4c-10.2 4.4-12.4 18.1-4.1 25.4 14 12.3 33.8-6.7 21.9-20.9-4.7-5.5-11.6-7.2-17.8-4.5zM567.5 63.4c-1.7.7-4.3 2.8-5.8 4.5-9.5 11.4 2 28.5 16.3 24.2 3.9-1.2 10-7 10-9.6 0-.8.5-1.5 1-1.5.6 0 1 .7 1 1.5 0 2.6 6.1 8.4 10 9.6 2.1.6 5.4.9 7.4.5 4.3-.8 10.4-5.8 11.2-9.2.7-2.6 2.4-3.3 2.4-.9 0 2.6 6.1 8.4 10 9.6 10.9 3.3 21.7-6.4 19.6-17.5-1.5-7.8-10.2-13.7-18-12.2-4.3.8-10.4 5.8-11.2 9.2-.3 1.3-1 2.4-1.4 2.4-.4 0-1.1-1.1-1.4-2.4-.8-3.4-6.9-8.4-11.2-9.2-2-.4-5.3-.1-7.4.5-3.9 1.2-10 7-10 9.6 0 .8-.4 1.5-1 1.5-.5 0-1-.6-1-1.4 0-2.3-5.1-7.8-8.7-9.2-4-1.7-7.9-1.7-11.8 0z"/><path d="M691.5 63.4c-7 3-10.8 11.3-8.6 18.6 1.2 3.9 7 10 9.6 10 2.4 0 1.7 1.7-.9 2.4-2.7.7-8.6 6.9-8.6 9.1 0 .8-.4 1.5-1 1.5-.5 0-1-.7-1-1.5 0-2.6-6.1-8.4-10-9.6-10.9-3.3-21.7 6.4-19.6 17.5.8 4.3 5.8 10.4 9.2 11.2 2.6.7 3.3 2.4.9 2.4-2.2 0-8.4 5.9-9.1 8.6-.3 1.3-1 2.4-1.4 2.4-.4 0-1.1-1.1-1.4-2.4-.8-3.4-6.9-8.4-11.2-9.2-2-.4-5.3-.1-7.4.5-3.9 1.2-10 7-10 9.6 0 .8-.4 1.5-1 1.5-.5 0-1-.7-1-1.5 0-2.6-6.1-8.4-10-9.6-10.9-3.3-21.7 6.4-19.6 17.5.8 4.3 5.8 10.4 9.2 11.2 1.3.3 2.4 1 2.4 1.4 0 .4-1.1 1.1-2.4 1.4-2.7.7-8.6 6.9-8.6 9.1 0 .8-.4 1.5-1 1.5-.5 0-1-.7-1-1.5 0-2.6-6.1-8.4-10-9.6-2.1-.6-5.4-.9-7.4-.5-4.3.8-10.4 5.8-11.2 9.2-.3 1.3-1 2.4-1.4 2.4-.4 0-1.1-1.1-1.4-2.4-.8-3.4-6.9-8.4-11.2-9.2-11.1-2.1-20.8 8.7-17.5 19.6 1.2 3.9 7 10 9.6 10 .8 0 1.5.4 1.5 1 0 .5-.7 1-1.5 1-2.2 0-8.4 5.9-9.1 8.6-.3 1.3-1 2.4-1.4 2.4-.4 0-1.1-1.1-1.4-2.4-.8-3.4-6.9-8.4-11.2-9.2-2-.4-5.3-.1-7.4.5-3.9 1.2-10 7-10 9.6 0 .8-.4 1.5-1 1.5-.5 0-1-.7-1-1.5 0-2.2-5.9-8.4-8.6-9.1-1.3-.3-2.4-1-2.4-1.4 0-.4 1.1-1.1 2.4-1.4 3.4-.8 8.4-6.9 9.2-11.2.4-2 .1-5.3-.5-7.4-1.2-3.9-7-10-9.6-10-2.4 0-1.7-1.7.9-2.4 2.7-.7 8.6-6.9 8.6-9.1 0-.8.5-1.5 1-1.5.6 0 1 .7 1 1.5 0 2.6 6.1 8.4 10 9.6 10.9 3.3 21.7-6.4 19.6-17.5-1.5-7.8-10.2-13.7-18-12.2-4.3.8-10.4 5.8-11.2 9.2-.8 3.1-2 3.1-2.8 0-.8-3.4-6.9-8.4-11.2-9.2-2-.4-5.3-.1-7.4.5-3.9 1.2-10 7-10 9.6 0 .8-.4 1.5-1 1.5-.5 0-1-.7-1-1.5 0-2.2-5.9-8.4-8.6-9.1-3.1-.8-3.1-2 0-2.8 3.4-.8 8.4-6.9 9.2-11.2 2.1-11.1-8.7-20.8-19.6-17.5-3.9 1.2-10 7-10 9.6 0 2.4-1.7 1.7-2.4-.9-.8-3.4-6.9-8.4-11.2-9.2-11.1-2.1-20.8 8.7-17.5 19.6 1.2 3.9 7 10 9.6 10 .8 0 1.5.4 1.5 1 0 .5-.7 1-1.5 1-2.6 0-8.4 6.1-9.6 10-3.3 10.9 6.4 21.7 17.5 19.6 4.3-.8 10.4-5.8 11.2-9.2.7-2.6 2.4-3.3 2.4-.9 0 2.2 5.9 8.4 8.6 9.1 3.1.8 3.1 2 0 2.8-3.4.8-8.4 6.9-9.2 11.2-.4 2-.1 5.3.5 7.4 1.2 3.9 7 10 9.6 10 .8 0 1.5.4 1.5 1 0 .5-.7 1-1.5 1-2.2 0-8.4 5.9-9.1 8.6-.3 1.3-1 2.4-1.4 2.4-.4 0-1.1-1.1-1.4-2.4-.8-3.4-6.9-8.4-11.2-9.2-2-.4-5.3-.1-7.4.5-3.9 1.2-10 7-10 9.6 0 2.4-1.7 1.7-2.4-.9-.7-2.7-6.9-8.6-9.1-8.6-2.4 0-1.7-1.7.9-2.4 3.4-.8 8.4-6.9 9.2-11.2 1.5-7.8-4.4-16.5-12.2-18-11.1-2.1-20.8 8.7-17.5 19.6 1.2 3.9 7 10 9.6 10 .8 0 1.5.4 1.5 1 0 .5-.7 1-1.5 1-2.6 0-8.4 6.1-9.6 10-3.3 10.9 6.4 21.7 17.5 19.6 4.3-.8 10.4-5.8 11.2-9.2.3-1.3 1-2.4 1.4-2.4.4 0 1.1 1.1 1.4 2.4.8 3.4 6.9 8.4 11.2 9.2 2 .4 5.3.1 7.4-.5 3.9-1.2 10-7 10-9.6 0-.8.5-1.5 1-1.5.6 0 1 .7 1 1.5 0 2.2 5.9 8.4 8.6 9.1 1.3.3 2.4 1 2.4 1.4 0 .4-1.1 1.1-2.4 1.4-3.4.8-8.4 6.9-9.2 11.2-.4 2-.1 5.3.5 7.4 1.2 3.9 7 10 9.6 10 2.4 0 1.7 1.7-.9 2.4-3.4.8-8.4 6.9-9.2 11.2-.4 2-.1 5.3.5 7.4 1.2 3.9 7 10 9.6 10 2.4 0 1.7 1.7-.9 2.4-2.7.7-8.6 6.9-8.6 9.1 0 2.4-1.7 1.7-2.4-.9-.8-3.4-6.9-8.4-11.2-9.2-11.1-2.1-20.8 8.7-17.5 19.6 1.2 3.9 7 10 9.6 10 .8 0 1.5.4 1.5 1 0 .5-.7 1-1.5 1-2.6 0-8.4 6.1-9.6 10-.6 2.1-.9 5.4-.5 7.4.8 4.3 5.8 10.4 9.2 11.2 3.1.8 3.1 2 0 2.8-3.4.8-8.4 6.9-9.2 11.2-2.1 11.1 8.7 20.8 19.6 17.5 3.9-1.2 10-7 10-9.6 0-.8.5-1.5 1-1.5.6 0 1 .7 1 1.5 0 2.2 5.9 8.4 8.6 9.1 3.1.8 3.1 2 0 2.8-3.4.8-8.4 6.9-9.2 11.2-1.5 7.8 4.4 16.5 12.2 18 11.1 2.1 20.8-8.7 17.5-19.6-1.2-3.9-7-10-9.6-10-2.4 0-1.7-1.7.9-2.4 2.7-.7 8.6-6.9 8.6-9.1 0-.8.5-1.5 1-1.5.6 0 1 .7 1 1.5 0 2.6 6.1 8.4 10 9.6 2.1.6 5.4.9 7.4.5 4.3-.8 10.4-5.8 11.2-9.2.7-2.6 2.4-3.3 2.4-.9 0 2.6 6.1 8.4 10 9.6 2.1.6 5.4.9 7.4.5 4.3-.8 10.4-5.8 11.2-9.2.8-3.1 2-3.1 2.8 0 .8 3.4 6.9 8.4 11.2 9.2 2 .4 5.3.1 7.4-.5 3.9-1.2 10-7 10-9.6 0-.8.5-1.5 1-1.5.6 0 1 .7 1 1.5 0 2.2 5.9 8.4 8.6 9.1 3.1.8 3.1 2 0 2.8-3.4.8-8.4 6.9-9.2 11.2-1.5 7.8 4.4 16.5 12.2 18 11.1 2.1 20.8-8.7 17.5-19.6-1.2-3.9-7-10-9.6-10-2.4 0-1.7-1.7.9-2.4 2.7-.7 8.6-6.9 8.6-9.1 0-2.4 1.7-1.7 2.4.9.8 3.4 6.9 8.4 11.2 9.2 2 .4 5.3.1 7.4-.5 3.9-1.2 10-7 10-9.6 0-2.4 1.7-1.7 2.4.9.8 3.4 6.9 8.4 11.2 9.2 7.8 1.5 16.5-4.4 18-12.2 2.1-11.1-8.7-20.8-19.6-17.5-3.9 1.2-10 7-10 9.6 0 .8-.4 1.5-1 1.5-.5 0-1-.7-1-1.5 0-2.2-5.9-8.4-8.6-9.1-3.1-.8-3.1-2 0-2.8 3.4-.8 8.4-6.9 9.2-11.2.4-2 .1-5.3-.5-7.4-1.2-3.9-7-10-9.6-10-.8 0-1.5-.5-1.5-1 0-.6.7-1 1.5-1 2.2 0 8.4-5.9 9.1-8.6.3-1.3 1-2.4 1.4-2.4.4 0 1.1 1.1 1.4 2.4.8 3.4 6.9 8.4 11.2 9.2 11.1 2.1 20.8-8.7 17.5-19.6-1.2-3.9-7-10-9.6-10-2.4 0-1.7-1.7.9-2.4 3.4-.8 8.4-6.9 9.2-11.2.4-2 .1-5.3-.5-7.4-1.2-3.9-7-10-9.6-10-2.4 0-1.7-1.7.9-2.4 3.4-.8 8.4-6.9 9.2-11.2 1.5-7.8-4.4-16.5-12.2-18-11.1-2.1-20.8 8.7-17.5 19.6 1.2 3.9 7 10 9.6 10 .8 0 1.5.4 1.5 1 0 .5-.7 1-1.5 1-2.6 0-8.4 6.1-9.6 10-.6 2.1-.9 5.4-.5 7.4.8 4.3 5.8 10.4 9.2 11.2 2.6.7 3.3 2.4.9 2.4-2.2 0-8.4 5.9-9.1 8.6-.7 2.6-2.4 3.3-2.4.9 0-2.6-6.1-8.4-10-9.6-2.1-.6-5.4-.9-7.4-.5-4.3.8-10.4 5.8-11.2 9.2-.3 1.3-1 2.4-1.4 2.4-.4 0-1.1-1.1-1.4-2.4-.7-2.7-6.9-8.6-9.1-8.6-2.4 0-1.7-1.7.9-2.4 3.4-.8 8.4-6.9 9.2-11.2 1.5-7.8-4.4-16.5-12.2-18-11.1-2.1-20.8 8.7-17.5 19.6 1.2 3.9 7 10 9.6 10 2.4 0 1.7 1.7-.9 2.4-3.4.8-8.4 6.9-9.2 11.2-.4 2-.1 5.3.5 7.4 1.2 3.9 7 10 9.6 10 .8 0 1.5.4 1.5 1 0 .5-.7 1-1.5 1-2.6 0-8.4 6.1-9.6 10-.6 2.1-.9 5.4-.5 7.4.8 4.3 5.8 10.4 9.2 11.2 3.1.8 3.1 2 0 2.8-2.7.7-8.6 6.9-8.6 9.1 0 2.4-1.7 1.7-2.4-.9-.8-3.4-6.9-8.4-11.2-9.2-2-.4-5.3-.1-7.4.5-3.9 1.2-10 7-10 9.6 0 2.4-1.7 1.7-2.4-.9-.8-3.4-6.9-8.4-11.2-9.2-2-.4-5.3-.1-7.4.5-3.9 1.2-10 7-10 9.6 0 2.4-1.7 1.7-2.4-.9-.8-3.4-6.9-8.4-11.2-9.2-2-.4-5.3-.1-7.4.5-3.9 1.2-10 7-10 9.6 0 2.4-1.7 1.7-2.4-.9-.8-3.4-6.9-8.4-11.2-9.2-2-.4-5.3-.1-7.4.5-3.9 1.2-10 7-10 9.6 0 2.4-1.7 1.7-2.4-.9-.7-2.7-6.9-8.6-9.1-8.6-2.4 0-1.7-1.7.9-2.4 3.4-.8 8.4-6.9 9.2-11.2.4-2 .1-5.3-.5-7.4-1.2-3.9-7-10-9.6-10-.8 0-1.5-.5-1.5-1 0-.6.7-1 1.5-1 2.2 0 8.4-5.9 9.1-8.6.8-3.1 2-3.1 2.8 0 .8 3.4 6.9 8.4 11.2 9.2 11.1 2.1 20.8-8.7 17.5-19.6-1.2-3.9-7-10-9.6-10-2.4 0-1.7-1.7.9-2.4 3.4-.8 8.4-6.9 9.2-11.2.4-2 .1-5.3-.5-7.4-1.2-3.9-7-10-9.6-10-.8 0-1.5-.5-1.5-1 0-.6.7-1 1.5-1 2.6 0 8.4-6.1 9.6-10 .6-2.1.9-5.4.5-7.4-.8-4.3-5.8-10.4-9.2-11.2-3.1-.8-3.1-2 0-2.8 2.7-.7 8.6-6.9 8.6-9.1 0-2.4 1.7-1.7 2.4.9.8 3.4 6.9 8.4 11.2 9.2 2 .4 5.3.1 7.4-.5 3.9-1.2 10-7 10-9.6 0-.8.5-1.5 1-1.5.6 0 1 .7 1 1.5 0 2.6 6.1 8.4 10 9.6 2.1.6 5.4.9 7.4.5 4.3-.8 10.4-5.8 11.2-9.2.8-3.1 2-3.1 2.8 0 .8 3.4 6.9 8.4 11.2 9.2 2 .4 5.3.1 7.4-.5 3.9-1.2 10-7 10-9.6 0-2.4 1.7-1.7 2.4.9.8 3.4 6.9 8.4 11.2 9.2 11.1 2.1 20.8-8.7 17.5-19.6-1.2-3.9-7-10-9.6-10-2.4 0-1.7-1.7.9-2.4 2.7-.7 8.6-6.9 8.6-9.1 0-2.4 1.7-1.7 2.4.9.8 3.4 6.9 8.4 11.2 9.2 2 .4 5.3.1 7.4-.5 3.9-1.2 10-7 10-9.6 0-.8.5-1.5 1-1.5.6 0 1 .7 1 1.5 0 2.6 6.1 8.4 10 9.6 2.1.6 5.4.9 7.4.5 4.3-.8 10.4-5.8 11.2-9.2.7-2.6 2.4-3.3 2.4-.9 0 2.2 5.9 8.4 8.6 9.1 2.6.7 3.3 2.4.9 2.4-2.6 0-8.4 6.1-9.6 10-3.3 10.9 6.4 21.7 17.5 19.6 7.8-1.5 13.7-10.2 12.2-18-.8-4.3-5.8-10.4-9.2-11.2-2.6-.7-3.3-2.4-.9-2.4 2.6 0 8.4-6.1 9.6-10 .6-2.1.9-5.4.5-7.4-.8-4.3-5.8-10.4-9.2-11.2-3.1-.8-3.1-2 0-2.8 3.4-.8 8.4-6.9 9.2-11.2.4-2 .1-5.3-.5-7.4-1.2-3.9-7-10-9.6-10-2.4 0-1.7-1.7.9-2.4 2.7-.7 8.6-6.9 8.6-9.1 0-2.4 1.7-1.7 2.4.9.8 3.4 6.9 8.4 11.2 9.2 11.1 2.1 20.8-8.7 17.5-19.6-1.2-3.9-7-10-9.6-10-.8 0-1.5-.5-1.5-1 0-.6.7-1 1.5-1 2.2 0 8.4-5.9 9.1-8.6.3-1.3 1-2.4 1.4-2.4.4 0 1.1 1.1 1.4 2.4.8 3.4 6.9 8.4 11.2 9.2 7.8 1.5 16.5-4.4 18-12.2 2.1-11.1-8.7-20.8-19.6-17.5-3.9 1.2-10 7-10 9.6 0 .8-.4 1.5-1 1.5-.5 0-1-.6-1-1.4 0-2.3-5.1-7.8-8.7-9.2-4-1.7-7.9-1.7-11.8 0zM435 113.5c0 2.2 5.9 8.4 8.6 9.1 2.6.7 3.3 2.4.9 2.4-2.2 0-8.4 5.9-9.1 8.6-.3 1.3-1 2.4-1.4 2.4-.4 0-1.1-1.1-1.4-2.4-.7-2.7-6.9-8.6-9.1-8.6-.8 0-1.5-.5-1.5-1 0-.6.7-1 1.5-1 2.2 0 8.4-5.9 9.1-8.6.7-2.6 2.4-3.3 2.4-.9zm31 31c0 2.2 5.9 8.4 8.6 9.1 2.6.7 3.3 2.4.9 2.4-2.2 0-8.4 5.9-9.1 8.6-.3 1.3-1 2.4-1.4 2.4-.4 0-1.1-1.1-1.4-2.4-.7-2.7-6.9-8.6-9.1-8.6-.8 0-1.5-.5-1.5-1 0-.6.7-1 1.5-1 2.2 0 8.4-5.9 9.1-8.6.7-2.6 2.4-3.3 2.4-.9zm155 0c0 2.2 5.9 8.4 8.6 9.1 2.6.7 3.3 2.4.9 2.4-2.2 0-8.4 5.9-9.1 8.6-.3 1.3-1 2.4-1.4 2.4-.4 0-1.1-1.1-1.4-2.4-.7-2.7-6.9-8.6-9.1-8.6-.8 0-1.5-.5-1.5-1 0-.6.7-1 1.5-1 2.2 0 8.4-5.9 9.1-8.6.7-2.6 2.4-3.3 2.4-.9zm31 0c0 2.2 5.9 8.4 8.6 9.1 2.6.7 3.3 2.4.9 2.4-2.2 0-8.4 5.9-9.1 8.6-.3 1.3-1 2.4-1.4 2.4-.4 0-1.1-1.1-1.4-2.4-.7-2.7-6.9-8.6-9.1-8.6-.8 0-1.5-.5-1.5-1 0-.6.7-1 1.5-1 2.2 0 8.4-5.9 9.1-8.6.7-2.6 2.4-3.3 2.4-.9zm-186 31c0 2.2 5.9 8.4 8.6 9.1 2.6.7 3.3 2.4.9 2.4-2.2 0-8.4 5.9-9.1 8.6-.3 1.3-1 2.4-1.4 2.4-.4 0-1.1-1.1-1.4-2.4-.7-2.7-6.9-8.6-9.1-8.6-.8 0-1.5-.5-1.5-1 0-.6.7-1 1.5-1 2.2 0 8.4-5.9 9.1-8.6.7-2.6 2.4-3.3 2.4-.9zm93 0c0 2.2 5.9 8.4 8.6 9.1 2.6.7 3.3 2.4.9 2.4-2.2 0-8.4 5.9-9.1 8.6-.3 1.3-1 2.4-1.4 2.4-.4 0-1.1-1.1-1.4-2.4-.7-2.7-6.9-8.6-9.1-8.6-.8 0-1.5-.5-1.5-1 0-.6.7-1 1.5-1 2.2 0 8.4-5.9 9.1-8.6.7-2.6 2.4-3.3 2.4-.9zm31 124c0 2.2 5.9 8.4 8.6 9.1 2.6.7 3.3 2.4.9 2.4-2.2 0-8.4 5.9-9.1 8.6-.3 1.3-1 2.4-1.4 2.4-.4 0-1.1-1.1-1.4-2.4-.7-2.7-6.9-8.6-9.1-8.6-.8 0-1.5-.5-1.5-1 0-.6.7-1 1.5-1 2.2 0 8.4-5.9 9.1-8.6.7-2.6 2.4-3.3 2.4-.9zm0 31c0 2.2 5.9 8.4 8.6 9.1 2.6.7 3.3 2.4.9 2.4-2.2 0-8.4 5.9-9.1 8.6-.3 1.3-1 2.4-1.4 2.4-.4 0-1.1-1.1-1.4-2.4-.7-2.7-6.9-8.6-9.1-8.6-.8 0-1.5-.5-1.5-1 0-.6.7-1 1.5-1 2.2 0 8.4-5.9 9.1-8.6.7-2.6 2.4-3.3 2.4-.9zM784.5 63.4c-7 3-10.8 11.3-8.6 18.6 1.2 3.9 7 10 9.6 10 2.4 0 1.7 1.7-.9 2.4-2.7.7-8.6 6.9-8.6 9.1 0 .8-.4 1.5-1 1.5-.5 0-1-.7-1-1.5 0-2.6-6.1-8.4-10-9.6-10.9-3.3-21.7 6.4-19.6 17.5.8 4.3 5.8 10.4 9.2 11.2 1.3.3 2.4 1 2.4 1.4 0 .4-1.1 1.1-2.4 1.4-3.4.8-8.4 6.9-9.2 11.2-.4 2-.1 5.3.5 7.4 1.2 3.9 7 10 9.6 10 2.4 0 1.7 1.7-.9 2.4-3.4.8-8.4 6.9-9.2 11.2-2.1 11.1 8.7 20.8 19.6 17.5 3.9-1.2 10-7 10-9.6 0-.8.5-1.5 1-1.5.6 0 1 .7 1 1.5 0 2.2 5.9 8.4 8.6 9.1 2.6.7 3.3 2.4.9 2.4-2.6 0-8.4 6.1-9.6 10-.6 2.1-.9 5.4-.5 7.4.8 4.3 5.8 10.4 9.2 11.2 1.3.3 2.4 1 2.4 1.4 0 .4-1.1 1.1-2.4 1.4-3.4.8-8.4 6.9-9.2 11.2-1.5 7.8 4.4 16.5 12.2 18 11.1 2.1 20.8-8.7 17.5-19.6-1.2-3.9-7-10-9.6-10-2.4 0-1.7-1.7.9-2.4 2.7-.7 8.6-6.9 8.6-9.1 0-2.4 1.7-1.7 2.4.9.8 3.4 6.9 8.4 11.2 9.2 11.1 2.1 20.8-8.7 17.5-19.6-1.2-3.9-7-10-9.6-10-2.4 0-1.7-1.7.9-2.4 3.4-.8 8.4-6.9 9.2-11.2 2.1-11.1-8.7-20.8-19.6-17.5-3.9 1.2-10 7-10 9.6 0 .8-.4 1.5-1 1.5-.5 0-1-.7-1-1.5 0-2.2-5.9-8.4-8.6-9.1-1.3-.3-2.4-1-2.4-1.4 0-.4 1.1-1.1 2.4-1.4 3.4-.8 8.4-6.9 9.2-11.2.4-2 .1-5.3-.5-7.4-1.2-3.9-7-10-9.6-10-2.4 0-1.7-1.7.9-2.4 3.4-.8 8.4-6.9 9.2-11.2.4-2 .1-5.3-.5-7.4-1.2-3.9-7-10-9.6-10-.8 0-1.5-.5-1.5-1 0-.6.7-1 1.5-1 2.2 0 8.4-5.9 9.1-8.6.3-1.3 1-2.4 1.4-2.4.4 0 1.1 1.1 1.4 2.4.8 3.4 6.9 8.4 11.2 9.2 7.8 1.5 16.5-4.4 18-12.2 2.1-11.1-8.7-20.8-19.6-17.5-3.9 1.2-10 7-10 9.6 0 .8-.4 1.5-1 1.5-.5 0-1-.6-1-1.4 0-2.3-5.1-7.8-8.7-9.2-4-1.7-7.9-1.7-11.8 0zm-8.5 50.1c0 2.2 5.9 8.4 8.6 9.1 2.6.7 3.3 2.4.9 2.4-2.2 0-8.4 5.9-9.1 8.6-.3 1.3-1 2.4-1.4 2.4-.4 0-1.1-1.1-1.4-2.4-.7-2.7-6.9-8.6-9.1-8.6-.8 0-1.5-.5-1.5-1 0-.6.7-1 1.5-1 2.2 0 8.4-5.9 9.1-8.6.7-2.6 2.4-3.3 2.4-.9zm0 31c0 2.2 5.9 8.4 8.6 9.1 2.6.7 3.3 2.4.9 2.4-2.2 0-8.4 5.9-9.1 8.6-.3 1.3-1 2.4-1.4 2.4-.4 0-1.1-1.1-1.4-2.4-.7-2.7-6.9-8.6-9.1-8.6-.8 0-1.5-.5-1.5-1 0-.6.7-1 1.5-1 2.2 0 8.4-5.9 9.1-8.6.7-2.6 2.4-3.3 2.4-.9zm31 31c0 2.2 5.9 8.4 8.6 9.1 2.6.7 3.3 2.4.9 2.4-2.2 0-8.4 5.9-9.1 8.6-.3 1.3-1 2.4-1.4 2.4-.4 0-1.1-1.1-1.4-2.4-.7-2.7-6.9-8.6-9.1-8.6-.8 0-1.5-.5-1.5-1 0-.6.7-1 1.5-1 2.2 0 8.4-5.9 9.1-8.6.7-2.6 2.4-3.3 2.4-.9zM929.8 63c-30 5.3-54.1 28.6-60.2 58.2-2.2 10.8-2.3 86.8-.2 98.2 5.2 26.8 24.9 48.1 52.6 56.8 7.4 2.3 8 2.3 54.5 2.3s47.1 0 54.5-2.3c27.7-8.7 47.4-30 52.6-56.8 2-10.9 2-86.9 0-97.8-2.9-15.1-10.7-28.9-22.5-39.9-7.8-7.2-16.2-12.1-27.6-16l-9-3.2-45-.2c-24.7-.1-47.1.2-49.7.7zm98.4 35.3c8.5 4.2 16.1 11.6 20 19.5l3.3 6.7v92l-2.6 5.6c-4.8 10.2-13.9 18.3-24.6 22-5.2 1.8-8.7 1.9-47.9 1.9-40.8 0-42.5-.1-48.1-2.1-11-4.1-19.4-11.7-24.2-21.8l-2.6-5.6v-92l2.6-5.6c4.7-9.9 13.8-18.2 24.2-22 4.8-1.7 8.3-1.9 49.7-1.6l44.5.2 5.7 2.8z"/><path d="M947.8 125.3c-6.2 2-12.3 7-14.9 12.3-2.4 4.8-2.4 5.4-2.4 32.9s0 28.1 2.4 32.9c2.5 5 8.4 10 14.4 12.3 2.1.8 11.9 1.2 28.8 1.2 29.6.1 32.2-.4 39.3-7.5 7.1-7 7.6-9.8 7.6-38.9 0-29.2-.6-32.2-7.7-39.1-7-6.9-9.9-7.4-38.7-7.3-16.2 0-26.4.5-28.8 1.2zM536.5 94.4c-10.2 4.4-12.4 18.1-4.1 25.4 14 12.3 33.8-6.7 21.9-20.9-4.7-5.5-11.6-7.2-17.8-4.5zM350.5 125.4c-10.2 4.4-12.4 18.1-4.1 25.4 14 12.3 33.8-6.7 21.9-20.9-4.7-5.5-11.6-7.2-17.8-4.5zM319.5 187.4c-10.2 4.4-12.4 18.1-4.1 25.4 14 12.3 33.8-6.7 21.9-20.9-4.7-5.5-11.6-7.2-17.8-4.5zM319.5 249.4c-7 3-10.8 11.3-8.6 18.6 1.2 3.9 7 10 9.6 10 .8 0 1.5.4 1.5 1 0 .5-.7 1-1.5 1-2.6 0-8.4 6.1-9.6 10-.6 2.1-.9 5.4-.5 7.4.8 4.3 5.8 10.4 9.2 11.2 2.6.7 3.3 2.4.9 2.4-2.2 0-8.4 5.9-9.1 8.6-.3 1.3-1 2.4-1.4 2.4-.4 0-1.1-1.1-1.4-2.4-.8-3.4-6.9-8.4-11.2-9.2-2-.4-5.3-.1-7.4.5-3.9 1.2-10 7-10 9.6 0 2.4-1.7 1.7-2.4-.9-.8-3.4-6.9-8.4-11.2-9.2-7.8-1.5-16.5 4.4-18 12.2-2.1 11.1 8.7 20.8 19.6 17.5 3.9-1.2 10-7 10-9.6 0-.8.5-1.5 1-1.5.6 0 1 .7 1 1.5 0 2.6 6.1 8.4 10 9.6 2.1.6 5.4.9 7.4.5 4.3-.8 10.4-5.8 11.2-9.2.3-1.3 1-2.4 1.4-2.4.4 0 1.1 1.1 1.4 2.4.8 3.4 6.9 8.4 11.2 9.2 2 .4 5.3.1 7.4-.5 3.9-1.2 10-7 10-9.6 0-2.4 1.7-1.7 2.4.9.8 3.4 6.9 8.4 11.2 9.2 7.8 1.5 16.5-4.4 18-12.2 2.1-11.1-8.7-20.8-19.6-17.5-3.9 1.2-10 7-10 9.6 0 2.4-1.7 1.7-2.4-.9-.7-2.7-6.9-8.6-9.1-8.6-2.4 0-1.7-1.7.9-2.4 3.4-.8 8.4-6.9 9.2-11.2.4-2 .1-5.3-.5-7.4-1.2-3.9-7-10-9.6-10-.8 0-1.5-.5-1.5-1 0-.6.7-1 1.5-1 2.6 0 8.4-6.1 9.6-10 3.7-12.4-8.9-23.7-20.6-18.6zM381.5 249.4c-10.2 4.4-12.4 18.1-4.1 25.4 14 12.3 33.8-6.7 21.9-20.9-4.7-5.5-11.6-7.2-17.8-4.5zM505.5 249.4c-7 3-10.8 11.3-8.6 18.6 1.2 3.9 7 10 9.6 10 2.4 0 1.7 1.7-.9 2.4-3.4.8-8.4 6.9-9.2 11.2-1.5 7.8 4.4 16.5 12.2 18 11.1 2.1 20.8-8.7 17.5-19.6-1.2-3.9-7-10-9.6-10-.8 0-1.5-.5-1.5-1 0-.6.7-1 1.5-1 2.6 0 8.4-6.1 9.6-10 3.7-12.4-8.9-23.7-20.6-18.6zM691.5 249.4c-10.2 4.4-12.4 18.1-4.1 25.4 14 12.3 33.8-6.7 21.9-20.9-4.7-5.5-11.6-7.2-17.8-4.5zM753.5 249.4c-7 3-10.8 11.3-8.6 18.6 1.2 3.9 7 10 9.6 10 2.4 0 1.7 1.7-.9 2.4-3.4.8-8.4 6.9-9.2 11.2-1.5 7.8 4.4 16.5 12.2 18 11.1 2.1 20.8-8.7 17.5-19.6-1.2-3.9-7-10-9.6-10-.8 0-1.5-.5-1.5-1 0-.6.7-1 1.5-1 2.6 0 8.4-6.1 9.6-10 3.7-12.4-8.9-23.7-20.6-18.6zM815.5 249.4c-7 3-10.8 11.3-8.6 18.6 1.2 3.9 7 10 9.6 10 2.4 0 1.7 1.7-.9 2.4-3.4.8-8.4 6.9-9.2 11.2-1.5 7.8 4.4 16.5 12.2 18 11.1 2.1 20.8-8.7 17.5-19.6-1.2-3.9-7-10-9.6-10-.8 0-1.5-.5-1.5-1 0-.6.7-1 1.5-1 2.6 0 8.4-6.1 9.6-10 3.7-12.4-8.9-23.7-20.6-18.6zM133.5 311.4c-7 3-10.8 11.3-8.6 18.6 1.2 3.9 7 10 9.6 10 2.4 0 1.7 1.7-.9 2.4-2.7.7-8.6 6.9-8.6 9.1 0 .8-.4 1.5-1 1.5-.5 0-1-.7-1-1.5 0-2.6-6.1-8.4-10-9.6-2.1-.6-5.4-.9-7.4-.5-4.3.8-10.4 5.8-11.2 9.2-.8 3.1-2 3.1-2.8 0-.8-3.4-6.9-8.4-11.2-9.2-7.8-1.5-16.5 4.4-18 12.2-2.1 11.1 8.7 20.8 19.6 17.5 3.9-1.2 10-7 10-9.6 0-.8.5-1.5 1-1.5.6 0 1 .7 1 1.5 0 2.6 6.1 8.4 10 9.6 2.1.6 5.4.9 7.4.5 4.3-.8 10.4-5.8 11.2-9.2.3-1.3 1-2.4 1.4-2.4.4 0 1.1 1.1 1.4 2.4.8 3.4 6.9 8.4 11.2 9.2 2 .4 5.3.1 7.4-.5 3.9-1.2 10-7 10-9.6 0-.8.5-1.5 1-1.5.6 0 1 .7 1 1.5 0 2.2 5.9 8.4 8.6 9.1 3.1.8 3.1 2 0 2.8-3.4.8-8.4 6.9-9.2 11.2-1.5 7.8 4.4 16.5 12.2 18 11.1 2.1 20.8-8.7 17.5-19.6-1.2-3.9-7-10-9.6-10-.8 0-1.5-.5-1.5-1 0-.6.7-1 1.5-1 2.6 0 8.4-6.1 9.6-10 .6-2.1.9-5.4.5-7.4-.8-4.3-5.8-10.4-9.2-11.2-1.3-.3-2.4-1-2.4-1.4 0-.4 1.1-1.1 2.4-1.4 3.4-.8 8.4-6.9 9.2-11.2 2.1-11.1-8.7-20.8-19.6-17.5-3.9 1.2-10 7-10 9.6 0 .8-.4 1.5-1 1.5-.5 0-1-.6-1-1.4 0-2.3-5.1-7.8-8.7-9.2-4-1.7-7.9-1.7-11.8 0zm22.5 19.1c0 2.2 5.9 8.4 8.6 9.1 2.6.7 3.3 2.4.9 2.4-2.2 0-8.4 5.9-9.1 8.6-.3 1.3-1 2.4-1.4 2.4-.4 0-1.1-1.1-1.4-2.4-.7-2.7-6.9-8.6-9.1-8.6-.8 0-1.5-.5-1.5-1 0-.6.7-1 1.5-1 2.2 0 8.4-5.9 9.1-8.6.7-2.6 2.4-3.3 2.4-.9z"/><path d="M722.5 311.4c-7 3-10.8 11.3-8.6 18.6 1.2 3.9 7 10 9.6 10 2.4 0 1.7 1.7-.9 2.4-3.4.8-8.4 6.9-9.2 11.2-2.1 11.1 8.7 20.8 19.6 17.5 3.9-1.2 10-7 10-9.6 0-.8.5-1.5 1-1.5.6 0 1 .7 1 1.5 0 2.6 6.1 8.4 10 9.6 2.1.6 5.4.9 7.4.5 4.3-.8 10.4-5.8 11.2-9.2.8-3.1 2-3.1 2.8 0 .7 2.7 6.9 8.6 9.1 8.6 2.4 0 1.7 1.7-.9 2.4-3.4.8-8.4 6.9-9.2 11.2-1.5 7.8 4.4 16.5 12.2 18 11.1 2.1 20.8-8.7 17.5-19.6-1.2-3.9-7-10-9.6-10-2.4 0-1.7-1.7.9-2.4 3.4-.8 8.4-6.9 9.2-11.2.4-2 .1-5.3-.5-7.4-1.2-3.9-7-10-9.6-10-.8 0-1.5-.5-1.5-1 0-.6.7-1 1.5-1 2.6 0 8.4-6.1 9.6-10 3.3-10.9-6.4-21.7-17.5-19.6-7.8 1.5-13.7 10.2-12.2 18 .8 4.3 5.8 10.4 9.2 11.2 1.3.3 2.4 1 2.4 1.4 0 .4-1.1 1.1-2.4 1.4-2.7.7-8.6 6.9-8.6 9.1 0 2.4-1.7 1.7-2.4-.9-.8-3.4-6.9-8.4-11.2-9.2-2-.4-5.3-.1-7.4.5-3.9 1.2-10 7-10 9.6 0 2.4-1.7 1.7-2.4-.9-.7-2.7-6.9-8.6-9.1-8.6-.8 0-1.5-.5-1.5-1 0-.6.7-1 1.5-1 2.6 0 8.4-6.1 9.6-10 3.7-12.4-8.9-23.7-20.6-18.6zM846.5 311.4c-7 3-10.8 11.3-8.6 18.6 1.2 3.9 7 10 9.6 10 .8 0 1.5.4 1.5 1 0 .5-.7 1-1.5 1-2.6 0-8.4 6.1-9.6 10-.6 2.1-.9 5.4-.5 7.4.8 4.3 5.8 10.4 9.2 11.2 2.6.7 3.3 2.4.9 2.4-2.6 0-8.4 6.1-9.6 10-.6 2.1-.9 5.4-.5 7.4.8 4.3 5.8 10.4 9.2 11.2 3.1.8 3.1 2 0 2.8-2.7.7-8.6 6.9-8.6 9.1 0 2.4-1.7 1.7-2.4-.9-.8-3.4-6.9-8.4-11.2-9.2-7.8-1.5-16.5 4.4-18 12.2-2.1 11.1 8.7 20.8 19.6 17.5 3.9-1.2 10-7 10-9.6 0-.8.5-1.5 1-1.5.6 0 1 .7 1 1.5 0 2.2 5.9 8.4 8.6 9.1 1.3.3 2.4 1 2.4 1.4 0 .4-1.1 1.1-2.4 1.4-3.4.8-8.4 6.9-9.2 11.2-1.5 7.8 4.4 16.5 12.2 18 11.1 2.1 20.8-8.7 17.5-19.6-1.2-3.9-7-10-9.6-10-2.4 0-1.7-1.7.9-2.4 2.7-.7 8.6-6.9 8.6-9.1 0-.8.5-1.5 1-1.5.6 0 1 .7 1 1.5 0 2.6 6.1 8.4 10 9.6 2.1.6 5.4.9 7.4.5 4.3-.8 10.4-5.8 11.2-9.2.7-2.6 2.4-3.3 2.4-.9 0 2.2 5.9 8.4 8.6 9.1 3.1.8 3.1 2 0 2.8-3.4.8-8.4 6.9-9.2 11.2-1.5 7.8 4.4 16.5 12.2 18 11.1 2.1 20.8-8.7 17.5-19.6-1.2-3.9-7-10-9.6-10-2.4 0-1.7-1.7.9-2.4 2.7-.7 8.6-6.9 8.6-9.1 0-.8.5-1.5 1-1.5.6 0 1 .7 1 1.5 0 2.6 6.1 8.4 10 9.6 2.1.6 5.4.9 7.4.5 4.3-.8 10.4-5.8 11.2-9.2.3-1.3 1-2.4 1.4-2.4.4 0 1.1 1.1 1.4 2.4.8 3.4 6.9 8.4 11.2 9.2 7.8 1.5 16.5-4.4 18-12.2 2.1-11.1-8.7-20.8-19.6-17.5-3.9 1.2-10 7-10 9.6 0 2.4-1.7 1.7-2.4-.9-.8-3.4-6.9-8.4-11.2-9.2-2-.4-5.3-.1-7.4.5-3.9 1.2-10 7-10 9.6 0 .8-.4 1.5-1 1.5-.5 0-1-.7-1-1.5 0-2.6-6.1-8.4-10-9.6-2.1-.6-5.4-.9-7.4-.5-4.3.8-10.4 5.8-11.2 9.2-.3 1.3-1 2.4-1.4 2.4-.4 0-1.1-1.1-1.4-2.4-.8-3.4-6.9-8.4-11.2-9.2-2-.4-5.3-.1-7.4.5-3.9 1.2-10 7-10 9.6 0 .8-.4 1.5-1 1.5-.5 0-1-.7-1-1.5 0-2.2-5.9-8.4-8.6-9.1-1.3-.3-2.4-1-2.4-1.4 0-.4 1.1-1.1 2.4-1.4 3.4-.8 8.4-6.9 9.2-11.2.4-2 .1-5.3-.5-7.4-1.2-3.9-7-10-9.6-10-2.4 0-1.7-1.7.9-2.4 2.7-.7 8.6-6.9 8.6-9.1 0-.8.5-1.5 1-1.5.6 0 1 .7 1 1.5 0 2.6 6.1 8.4 10 9.6 10.9 3.3 21.7-6.4 19.6-17.5-.8-4.3-5.8-10.4-9.2-11.2-3.1-.8-3.1-2 0-2.8 3.4-.8 8.4-6.9 9.2-11.2 2.1-11.1-8.7-20.8-19.6-17.5-3.9 1.2-10 7-10 9.6 0 .8-.4 1.5-1 1.5-.5 0-1-.6-1-1.4 0-2.3-5.1-7.8-8.7-9.2-4-1.7-7.9-1.7-11.8 0zm22.5 19.1c0 2.2 5.9 8.4 8.6 9.1 2.6.7 3.3 2.4.9 2.4-2.2 0-8.4 5.9-9.1 8.6-.3 1.3-1 2.4-1.4 2.4-.4 0-1.1-1.1-1.4-2.4-.7-2.7-6.9-8.6-9.1-8.6-.8 0-1.5-.5-1.5-1 0-.6.7-1 1.5-1 2.2 0 8.4-5.9 9.1-8.6.7-2.6 2.4-3.3 2.4-.9zM939.5 311.4c-10.2 4.4-12.4 18.1-4.1 25.4 14 12.3 33.8-6.7 21.9-20.9-4.7-5.5-11.6-7.2-17.8-4.5zM226.5 342.4c-7 3-10.8 11.3-8.6 18.6 1.2 3.9 7 10 9.6 10 .8 0 1.5.4 1.5 1 0 .5-.7 1-1.5 1-2.6 0-8.4 6.1-9.6 10-.6 2.1-.9 5.4-.5 7.4.8 4.3 5.8 10.4 9.2 11.2 2.6.7 3.3 2.4.9 2.4-2.2 0-8.4 5.9-9.1 8.6-.3 1.3-1 2.4-1.4 2.4-.4 0-1.1-1.1-1.4-2.4-.8-3.4-6.9-8.4-11.2-9.2-11.1-2.1-20.8 8.7-17.5 19.6 1.2 3.9 7 10 9.6 10 2.4 0 1.7 1.7-.9 2.4-2.7.7-8.6 6.9-8.6 9.1 0 2.4-1.7 1.7-2.4-.9-.8-3.4-6.9-8.4-11.2-9.2-2-.4-5.3-.1-7.4.5-3.9 1.2-10 7-10 9.6 0 .8-.4 1.5-1 1.5-.5 0-1-.7-1-1.5 0-2.2-5.9-8.4-8.6-9.1-2.6-.7-3.3-2.4-.9-2.4 2.6 0 8.4-6.1 9.6-10 3.3-10.9-6.4-21.7-17.5-19.6-7.8 1.5-13.7 10.2-12.2 18 .8 4.3 5.8 10.4 9.2 11.2 3.1.8 3.1 2 0 2.8-3.4.8-8.4 6.9-9.2 11.2-.4 2-.1 5.3.5 7.4 1.2 3.9 7 10 9.6 10 .8 0 1.5.4 1.5 1 0 .5-.7 1-1.5 1-2.2 0-8.4 5.9-9.1 8.6-.7 2.6-2.4 3.3-2.4.9 0-2.6-6.1-8.4-10-9.6-10.9-3.3-21.7 6.4-19.6 17.5 1.5 7.8 10.2 13.7 18 12.2 4.3-.8 10.4-5.8 11.2-9.2.3-1.3 1-2.4 1.4-2.4.4 0 1.1 1.1 1.4 2.4.8 3.4 6.9 8.4 11.2 9.2 11.1 2.1 20.8-8.7 17.5-19.6-1.2-3.9-7-10-9.6-10-2.4 0-1.7-1.7.9-2.4 2.7-.7 8.6-6.9 8.6-9.1 0-.8.5-1.5 1-1.5.6 0 1 .7 1 1.5 0 2.6 6.1 8.4 10 9.6 2.1.6 5.4.9 7.4.5 4.3-.8 10.4-5.8 11.2-9.2.7-2.6 2.4-3.3 2.4-.9 0 2.2 5.9 8.4 8.6 9.1 2.6.7 3.3 2.4.9 2.4-2.6 0-8.4 6.1-9.6 10-.6 2.1-.9 5.4-.5 7.4.8 4.3 5.8 10.4 9.2 11.2 1.3.3 2.4 1 2.4 1.4 0 .4-1.1 1.1-2.4 1.4-2.7.7-8.6 6.9-8.6 9.1 0 2.4-1.7 1.7-2.4-.9-.8-3.4-6.9-8.4-11.2-9.2-11.1-2.1-20.8 8.7-17.5 19.6 1.2 3.9 7 10 9.6 10 .8 0 1.5.4 1.5 1 0 .5-.7 1-1.5 1-2.6 0-8.4 6.1-9.6 10-3.3 10.9 6.4 21.7 17.5 19.6 4.3-.8 10.4-5.8 11.2-9.2.7-2.6 2.4-3.3 2.4-.9 0 2.6 6.1 8.4 10 9.6 2.1.6 5.4.9 7.4.5 4.3-.8 10.4-5.8 11.2-9.2.8-3.1 2-3.1 2.8 0 .8 3.4 6.9 8.4 11.2 9.2 11.1 2.1 20.8-8.7 17.5-19.6-1.2-3.9-7-10-9.6-10-.8 0-1.5-.5-1.5-1 0-.6.7-1 1.5-1 2.2 0 8.4-5.9 9.1-8.6.8-3.1 2-3.1 2.8 0 .8 3.4 6.9 8.4 11.2 9.2 7.8 1.5 16.5-4.4 18-12.2 2.1-11.1-8.7-20.8-19.6-17.5-3.9 1.2-10 7-10 9.6 0 .8-.4 1.5-1 1.5-.5 0-1-.7-1-1.5 0-2.2-5.9-8.4-8.6-9.1-1.3-.3-2.4-1-2.4-1.4 0-.4 1.1-1.1 2.4-1.4 3.4-.8 8.4-6.9 9.2-11.2 2.1-11.1-8.7-20.8-19.6-17.5-3.9 1.2-10 7-10 9.6 0 2.4-1.7 1.7-2.4-.9-.7-2.7-6.9-8.6-9.1-8.6-.8 0-1.5-.5-1.5-1 0-.6.7-1 1.5-1 2.6 0 8.4-6.1 9.6-10 .6-2.1.9-5.4.5-7.4-.8-4.3-5.8-10.4-9.2-11.2-2.6-.7-3.3-2.4-.9-2.4 2.2 0 8.4-5.9 9.1-8.6.3-1.3 1-2.4 1.4-2.4.4 0 1.1 1.1 1.4 2.4.8 3.4 6.9 8.4 11.2 9.2 11.1 2.1 20.8-8.7 17.5-19.6-1.2-3.9-7-10-9.6-10-2.4 0-1.7-1.7.9-2.4 2.7-.7 8.6-6.9 8.6-9.1 0-.8.5-1.5 1-1.5.6 0 1 .7 1 1.5 0 2.6 6.1 8.4 10 9.6 10.9 3.3 21.7-6.4 19.6-17.5-1.5-7.8-10.2-13.7-18-12.2-4.3.8-10.4 5.8-11.2 9.2-.3 1.3-1 2.4-1.4 2.4-.4 0-1.1-1.1-1.4-2.4-.7-2.7-6.9-8.6-9.1-8.6-.8 0-1.5-.5-1.5-1 0-.6.7-1 1.5-1 2.6 0 8.4-6.1 9.6-10 3.7-12.4-8.9-23.7-20.6-18.6zM218 485.5c0 2.2 5.9 8.4 8.6 9.1 2.6.7 3.3 2.4.9 2.4-2.2 0-8.4 5.9-9.1 8.6-.3 1.3-1 2.4-1.4 2.4-.4 0-1.1-1.1-1.4-2.4-.7-2.7-6.9-8.6-9.1-8.6-.8 0-1.5-.5-1.5-1 0-.6.7-1 1.5-1 2.2 0 8.4-5.9 9.1-8.6.7-2.6 2.4-3.3 2.4-.9zm-31 31c0 2.2 5.9 8.4 8.6 9.1 2.6.7 3.3 2.4.9 2.4-2.2 0-8.4 5.9-9.1 8.6-.3 1.3-1 2.4-1.4 2.4-.4 0-1.1-1.1-1.4-2.4-.7-2.7-6.9-8.6-9.1-8.6-.8 0-1.5-.5-1.5-1 0-.6.7-1 1.5-1 2.2 0 8.4-5.9 9.1-8.6.7-2.6 2.4-3.3 2.4-.9zm31 0c0 2.2 5.9 8.4 8.6 9.1 2.6.7 3.3 2.4.9 2.4-2.2 0-8.4 5.9-9.1 8.6-.3 1.3-1 2.4-1.4 2.4-.4 0-1.1-1.1-1.4-2.4-.7-2.7-6.9-8.6-9.1-8.6-.8 0-1.5-.5-1.5-1 0-.6.7-1 1.5-1 2.2 0 8.4-5.9 9.1-8.6.7-2.6 2.4-3.3 2.4-.9zM970.5 342.4c-1.7.7-4.3 2.8-5.8 4.5-9.5 11.4 2 28.5 16.3 24.2 3.9-1.2 10-7 10-9.6 0-.8.5-1.5 1-1.5.6 0 1 .7 1 1.5 0 2.6 6.1 8.4 10 9.6 2.1.6 5.4.9 7.4.5 4.3-.8 10.4-5.8 11.2-9.2.3-1.3 1-2.4 1.4-2.4.4 0 1.1 1.1 1.4 2.4.7 2.7 6.9 8.6 9.1 8.6 2.4 0 1.7 1.7-.9 2.4-3.4.8-8.4 6.9-9.2 11.2-2.1 11.1 8.7 20.8 19.6 17.5 3.9-1.2 10-7 10-9.6 0-.8.5-1.5 1-1.5.6 0 1 .7 1 1.5 0 2.6 6.1 8.4 10 9.6 10.9 3.3 21.7-6.4 19.6-17.5-.8-4.3-5.8-10.4-9.2-11.2-1.3-.3-2.4-1-2.4-1.4 0-.4 1.1-1.1 2.4-1.4 3.4-.8 8.4-6.9 9.2-11.2 2.1-11.1-8.7-20.8-19.6-17.5-3.9 1.2-10 7-10 9.6 0 .8-.4 1.5-1 1.5-.5 0-1-.7-1-1.5 0-2.6-6.1-8.4-10-9.6-2.1-.6-5.4-.9-7.4-.5-4.3.8-10.4 5.8-11.2 9.2-.3 1.3-1 2.4-1.4 2.4-.4 0-1.1-1.1-1.4-2.4-.8-3.4-6.9-8.4-11.2-9.2-2-.4-5.3-.1-7.4.5-3.9 1.2-10 7-10 9.6 0 .8-.4 1.5-1 1.5-.5 0-1-.6-1-1.4 0-2.3-5.1-7.8-8.7-9.2-4-1.7-7.9-1.7-11.8 0zm84.5 19.1c0 2.2 5.9 8.4 8.6 9.1 2.6.7 3.3 2.4.9 2.4-2.2 0-8.4 5.9-9.1 8.6-.3 1.3-1 2.4-1.4 2.4-.4 0-1.1-1.1-1.4-2.4-.7-2.7-6.9-8.6-9.1-8.6-.8 0-1.5-.5-1.5-1 0-.6.7-1 1.5-1 2.2 0 8.4-5.9 9.1-8.6.7-2.6 2.4-3.3 2.4-.9zM350.5 373.4c-1.7.7-4.3 2.8-5.8 4.5-9.5 11.4 2 28.5 16.3 24.2 3.9-1.2 10-7 10-9.6 0-2.4 1.7-1.7 2.4.9.8 3.4 6.9 8.4 11.2 9.2 7.8 1.5 16.5-4.4 18-12.2 2.1-11.1-8.7-20.8-19.6-17.5-3.9 1.2-10 7-10 9.6 0 .8-.4 1.5-1 1.5-.5 0-1-.6-1-1.4 0-2.3-5.1-7.8-8.7-9.2-4-1.7-7.9-1.7-11.8 0zM660.5 373.4c-10.2 4.4-12.4 18.1-4.1 25.4 14 12.3 33.8-6.7 21.9-20.9-4.7-5.5-11.6-7.2-17.8-4.5zM71.5 404.4c-10.2 4.4-12.4 18.1-4.1 25.4 14 12.3 33.8-6.7 21.9-20.9-4.7-5.5-11.6-7.2-17.8-4.5z"/><path d="M288.5 404.4c-10.2 4.4-12.4 18.1-4.1 25.4 14 12.3 33.8-6.7 21.9-20.9-4.7-5.5-11.6-7.2-17.8-4.5zM565.5 440.1c-56.8 16.1-87.6 26.1-115.1 37.6-23.8 10-35.7 17.9-37 24.8-.4 2.1.8 12.7 2.9 26.7 2 12.8 6.8 46 10.7 73.8 9.8 69.6 14.7 99.8 16.8 103.5 2.6 4.3 7.5 7.3 13.5 8 3 .4 19.5-.7 39.7-2.4 19-1.7 57.9-5.1 86.5-7.6 95.8-8.3 104.3-9.2 108.3-11.3 2.4-1.2 4.5-3.4 6-6.3 2.4-4.5 2.4-6.6.6-22l-.5-4.6 4.5-1.7c5.2-2 8.3-5.4 9.1-10 .7-3.7-36.4-152.7-39.7-159.1-4.7-9.3-10.2-12.5-21.7-12.5h-8l-3.8-11.6c-2.1-6.4-4.5-12-5.3-12.4-.9-.5-6.7.2-13.9 1.7-6.8 1.3-12.7 2.1-13.1 1.6-.4-.4-2.2-5.3-4-10.8-2.8-8.7-5.7-13.7-7.9-13.4-.3 0-13.2 3.6-28.6 8zm29.9 9.7c1.6 4.6 2.6 8.5 2.3 8.8-.6.6-13.6 3.5-38.2 8.4-8.8 1.7-22.3 4.5-30 6-7.7 1.5-21.2 4.3-30 6-8.8 1.8-20 4.1-25 5.1-10.6 2.3-25.4 4.9-27.5 4.9-9.9 0 66.9-27.2 107.5-38.1 3.9-1.1 13.3-3.7 21-5.8 7.7-2.2 14.7-3.9 15.5-3.8.9.1 2.6 3.4 4.4 8.5zm36.1 19.3c1.4 4.5 2.4 8.4 2.1 8.6-.4.5-25.1 2.4-84.6 6.8-19.5 1.4-38.9 2.8-43 3.1-4.8.4-7.1.3-6.5-.3.9-.9 9.9-2.9 44-9.8 6.6-1.3 16.7-3.3 22.5-4.5 5.8-1.2 14.1-2.8 18.5-3.6 4.4-.8 13.2-2.5 19.5-3.9 13.5-2.8 20.8-4.2 23.2-4.4 1.3-.1 2.3 1.9 4.3 8zm29.7 18.6c1.1 1 2.8 3.4 3.8 5.3 1.8 3.7 11 39.2 11 42.7 0 2.5-1 2.7-19.5 4.3-6.6.6-13.6 1.5-15.5 2-6.7 1.8-11.6 9-13.5 19.8-1.5 9.1 4.1 21.4 11.4 25.2 5 2.5 9.3 2.5 31.6.1 9.6-1.1 17.4-1.5 17.9-1 1 .9 4.3 12.5 7 24.4.8 3.3 3 12.5 5 20.4 2.1 7.9 3.6 15.3 3.4 16.4-.5 3.3-5.1 4.9-17.8 6.4-6.3.7-23.9 2.6-39 4.3-28.6 3.2-64.8 7.3-100 11.5-11.3 1.3-23 2.7-26 3-3 .3-15.2 1.6-27 2.9-11.8 1.4-24.5 2.7-28.3 3.1-4.4.4-8.7 1.7-12.4 3.5-6.1 3.1-7.2 2.8-7.3-2 0-1.4-.7-7-1.6-12.5-.8-5.5-3-20.4-4.9-33-1.8-12.7-3.8-26.2-4.4-30-.6-3.9-2.4-16.5-4.1-28-1.7-11.6-4.2-28.2-5.5-37-3.3-21.3-4.6-32.5-3.9-33.6.9-1.5 6.6-4.1 11.9-5.5 2.8-.8 17.4-2.1 32.5-2.9 15.1-.9 35.8-2.2 46-3.1 10.2-.8 26.1-1.9 35.5-2.4 9.3-.5 31.2-2.1 48.5-3.5 58.8-4.6 61-4.6 65.2-.8zm17.8 57.6c0 .1 1.8 7.4 4 16.2 2.8 11.4 3.6 16.1 2.8 16.6-.6.4-5.5 1-10.7 1.4-5.3.3-14 1-19.3 1.5-11 1.1-13.3.6-17-3.9-4.6-5.4-4.8-17.8-.4-24.3l2.2-3.3 15.9-2.1c15.3-2.1 22.5-2.7 22.5-2.1z"/><path d="M509.3 536.7c-.7.2-1.3 1.6-1.3 2.9 0 1.9.5 2.4 2.4 2.4 3 0 4-1.3 3.1-4-.6-2-1.8-2.3-4.2-1.3zM570.6 539.1c-2.1 1.7-2.6 1.8-2.6.5 0-1.7-1.7-2.1-3.8-.8-1 .7-1 2.9-.1 11.1 1.2 10.2 1.2 10.2 3.8 9.9 1.9-.2 2.5-.8 2.4-2.3-.9-8.7-.5-12.9 1.2-14.1 4.6-3.4 6.3-1.4 7.4 8.6.6 5.1.8 5.5 3.4 5.8 3.1.4 3.2.2 1.7-10.2-.6-3.9-1.8-7.8-2.7-8.8-2.2-2.4-7.4-2.3-10.7.3zM482.2 541.7c.2 2.3.7 2.7 2.8 2.5 3.2-.5 3.3-.6 2.5-3.1-.4-1.4-1.5-2.1-3.1-2.1-2.2 0-2.5.4-2.2 2.7zM495.3 539.7c-.7.2-1.3 2-1.3 3.9s-.4 3.4-1 3.4c-.5 0-1 .9-1 2s.6 2 1.4 2c1 0 1.6 2 2.1 6.9.9 9.1 2.7 11 8.6 9.2 3-.9 3.9-1.6 3.5-2.7-.3-.9-.6-1.8-.6-2 0-.2-1.1-.4-2.5-.4-2.8 0-3.1-.5-3.9-7.3-.5-4.2-.4-4.7 1.4-4.7 1.3 0 2-.7 2-2s-.7-2-1.9-2c-2 0-3.1-1.8-3.1-5.1 0-1.9-1.2-2.3-3.7-1.2zM545.5 541c-2.7 1.1-6.1 5-6.8 7.8-.8 3.5 1.1 8.9 4 11.2 4.4 3.4 15 1.9 16.6-2.4 1.1-2.8-3.1-3.7-5.3-1.1-1.5 1.8-6.1 2-7.8.3-2.6-2.6-1.2-3.5 6.8-4.2 8.7-.8 9.2-1.3 6.5-6.6-2.5-4.9-8.9-7.2-14-5zm8 5c1 1.1 1.6 2.2 1.4 2.4-.2.2-2.8.7-5.6 1.1-4.4.6-5.3.4-5.3-.8 0-1.8 3.7-4.7 6.1-4.7.9 0 2.4.9 3.4 2zM461.3 543.9c-4.7 2.9-6.6 7.3-6.1 13.8.4 4.6 1 6 4.2 9.1 3.4 3.4 4.1 3.7 9.6 3.7 5.1 0 6.2-.4 8.9-2.9 3.6-3.5 3.8-4.2 1.2-5.6-1.6-.8-2.5-.5-4.5 1.5-4.6 4.6-11.4 2.6-13.6-4-2.8-8.5 5.7-15.9 12.7-11 1.8 1.3 2.2 1.2 3.7-.4s1.5-1.9-.4-3.6c-3.1-2.8-11.7-3.1-15.7-.6zM525.1 543.1c-7 .9-7.6 1.2-6.8 3.2.4 1.1 1.8 1.3 5.6.9 2.8-.2 5.1-.2 5.1.2s-2 3.7-4.5 7.4-4.5 7.5-4.5 8.5c0 1.7.6 1.8 7.3 1.2 8.9-.8 10.9-1.3 10.4-2.8-.2-.7-2.6-1.2-6-1.2-3.2 0-5.7-.1-5.7-.2s2-3.4 4.5-7.2c2.5-3.8 4.5-7.9 4.5-9 0-2.3 0-2.3-9.9-1zM509.3 549.7c.3 2.7.9 7.4 1.3 10.5.6 5.3.8 5.8 3.1 5.8h2.6l-.8-9.1c-.8-11.2-1.1-11.9-4.2-11.9-2.5 0-2.5.2-2 4.7zM483.5 548c-.6 1 1.3 20.1 2 20.9.2.2 1.5.1 2.8-.2l2.3-.6-1.2-10.3c-.7-5.7-1.3-10.4-1.3-10.6-.3-.7-4.1-.1-4.6.8zM577.2 577.7c-.9.3-1.1 1.6-.6 3.9.5 2.7.3 3.4-1 3.4-2.2 0-2 2.7.3 3.9 1.3.7 2 2.6 2.4 6.9.4 3.2.9 6.6 1.3 7.5 1.4 3.8 10.4 2.7 10.4-1.3 0-1.5-.7-2-2.9-2-2.6 0-2.9-.3-3.5-4.6-.9-6.8-.8-7.4 1.4-7.4 1.3 0 2-.7 2-2 0-1.5-.7-2-2.5-2-2.2 0-2.5-.4-2.5-3.5 0-3.5-1.2-4.2-4.8-2.8zM538.5 581c-1 1.7 1.6 24.3 3.2 26.7 2.1 3.5 9.3 2.9 9.3-.8 0-1.4-.7-1.9-2.5-1.9-1.4 0-2.5-.1-2.5-.3 0-.1-.7-5.7-1.5-12.2-.8-6.6-1.5-12.1-1.5-12.3 0-.7-4 0-4.5.8zM526.8 581.7c-2.2.5-2.1-.1-.3 14.7.8 6.5 2 12.5 2.7 13.3.7.9 2.5 1.3 4.7 1.1 2.9-.2 3.7-.8 3.9-2.6.3-1.8-.1-2.2-2.1-2.2-2.7 0-2.8-.5-4.2-14.5-.8-7.8-1.4-10.5-2.3-10.4-.4.1-1.5.3-2.4.6zM494.2 589.4c-.6 1.8-1.8 6.8-2.8 11-1 4.2-2.1 7.6-2.4 7.6-.4 0-1.5-1.8-2.5-4-1.8-3.9-1.6-6.2 1.1-15.3.4-1.3-.1-1.7-2-1.7-2 0-2.7.7-3.5 3.7-.6 2.1-1.1 4.5-1.1 5.3-.1.8-1.2-.7-2.6-3.3-1.8-3.4-3-4.7-4-4.3-.9.3-2 .6-2.5.6s.5 2.7 2.2 6.1c2.5 5 2.9 6.8 2.4 10-.4 2.1-1 4.1-1.4 4.3-.4.3-2.9-4-5.6-9.5-4.5-9-5.2-9.9-7.7-9.9-1.5 0-2.8.4-2.8.9 0 2 14.2 27.1 15.3 27.1 2.5 0 3.7-1.8 5.5-7.5l1.7-5.9 3 5.7c2.6 4.9 3.4 5.7 5.5 5.5 2.7-.3 2.2 1 8.8-22.6l2-7.2H498c-2.4 0-3.1.5-3.8 3.4zM557.2 587.5c-4 1.8-6.7 7.3-5.7 12.1 1.4 7.8 12.1 11.2 18.4 5.8 1.7-1.4 2.9-3 2.5-3.5-.8-1.4-4-1.1-5.4.6-1.5 1.8-6.1 2-7.8.3-2.6-2.6-1.2-3.5 6.8-4.2 4.4-.4 8-1.2 8-1.7 0-3.3-3.2-8.1-6.4-9.4-4.3-1.8-6.2-1.8-10.4 0zm9 4.7 2.3 2.3-4 .7c-7.9 1.4-9.4.5-5.8-3.4 2.2-2.4 4.8-2.3 7.5.4zM505.7 593.6c-1.9 1-2.7 2.1-2.3 3.1.3.8.6 1.7.6 1.9 0 .3 1-.2 2.2-1 4-2.9 9.8-1.5 9.8 2.2 0 .9-.6 1.2-1.6.8-2.5-1-9.2 1.2-10.4 3.4-1.5 2.9-1.2 6.5.8 8.3 2.5 2.3 8.3 2.2 10.9-.3 1.8-1.7 2.3-1.7 3.3-.5 2 2.5 5 1.9 5-.9 0-1.4-.4-2.8-1-3.1-.5-.3-1-2.1-1-4 0-4.2-1.6-8.5-3.8-10.1-2.3-1.8-9.1-1.7-12.5.2zm9.7 10c3.6 1.4-.4 6.8-4.6 6.2-3.3-.4-3.7-4.5-.6-5.7 2.9-1.2 3.3-1.2 5.2-.5zM646.2 560c-4.8 4.5-1.4 13 5 13 3.6 0 7.8-4 7.8-7.5s-4.2-7.5-7.8-7.5c-1.5 0-3.8.9-5 2zM257.5 435.4c-10.2 4.4-12.4 18.1-4.1 25.4 14 12.3 33.8-6.7 21.9-20.9-4.7-5.5-11.6-7.2-17.8-4.5zM784.5 435.4c-10.2 4.4-12.4 18.1-4.1 25.4 14 12.3 33.8-6.7 21.9-20.9-4.7-5.5-11.6-7.2-17.8-4.5zM288.5 466.4c-1.7.7-4.3 2.8-5.8 4.5-9.5 11.4 2 28.5 16.3 24.2 3.9-1.2 10-7 10-9.6 0-.8.5-1.5 1-1.5.6 0 1 .7 1 1.5 0 2.2 5.9 8.4 8.6 9.1 2.6.7 3.3 2.4.9 2.4-2.6 0-8.4 6.1-9.6 10-.6 2.1-.9 5.4-.5 7.4.8 4.3 5.8 10.4 9.2 11.2 2.6.7 3.3 2.4.9 2.4-2.6 0-8.4 6.1-9.6 10-3.3 10.9 6.4 21.7 17.5 19.6 4.3-.8 10.4-5.8 11.2-9.2.3-1.3 1-2.4 1.4-2.4.4 0 1.1 1.1 1.4 2.4.8 3.4 6.9 8.4 11.2 9.2 2 .4 5.3.1 7.4-.5 3.9-1.2 10-7 10-9.6 0-2.4 1.7-1.7 2.4.9.7 2.7 6.9 8.6 9.1 8.6.8 0 1.5.4 1.5 1 0 .5-.7 1-1.5 1-2.6 0-8.4 6.1-9.6 10-3.3 10.9 6.4 21.7 17.5 19.6 7.8-1.5 13.7-10.2 12.2-18-.8-4.3-5.8-10.4-9.2-11.2-3.1-.8-3.1-2 0-2.8 3.4-.8 8.4-6.9 9.2-11.2 2.1-11.1-8.7-20.8-19.6-17.5-3.9 1.2-10 7-10 9.6 0 2.4-1.7 1.7-2.4-.9-.7-2.7-6.9-8.6-9.1-8.6-2.4 0-1.7-1.7.9-2.4 3.4-.8 8.4-6.9 9.2-11.2 2.1-11.1-8.7-20.8-19.6-17.5-3.9 1.2-10 7-10 9.6 0 2.4-1.7 1.7-2.4-.9-.7-2.7-6.9-8.6-9.1-8.6-2.4 0-1.7-1.7.9-2.4 3.4-.8 8.4-6.9 9.2-11.2 2.1-11.1-8.7-20.8-19.6-17.5-3.9 1.2-10 7-10 9.6 0 .8-.4 1.5-1 1.5-.5 0-1-.6-1-1.4 0-2.3-5.1-7.8-8.7-9.2-4-1.7-7.9-1.7-11.8 0zm53.5 50.1c0 2.2 5.9 8.4 8.6 9.1 2.6.7 3.3 2.4.9 2.4-2.2 0-8.4 5.9-9.1 8.6-.3 1.3-1 2.4-1.4 2.4-.4 0-1.1-1.1-1.4-2.4-.7-2.7-6.9-8.6-9.1-8.6-.8 0-1.5-.5-1.5-1 0-.6.7-1 1.5-1 2.2 0 8.4-5.9 9.1-8.6.7-2.6 2.4-3.3 2.4-.9zM381.5 466.4c-10.2 4.4-12.4 18.1-4.1 25.4 14 12.3 33.8-6.7 21.9-20.9-4.7-5.5-11.6-7.2-17.8-4.5zM753.5 466.4c-10.2 4.4-12.4 18.1-4.1 25.4 14 12.3 33.8-6.7 21.9-20.9-4.7-5.5-11.6-7.2-17.8-4.5zM815.5 466.4c-7 3-10.8 11.3-8.6 18.6 1.2 3.9 7 10 9.6 10 .8 0 1.5.4 1.5 1 0 .5-.7 1-1.5 1-2.6 0-8.4 6.1-9.6 10-.6 2.1-.9 5.4-.5 7.4.8 4.3 5.8 10.4 9.2 11.2 2.6.7 3.3 2.4.9 2.4-2.6 0-8.4 6.1-9.6 10-.6 2.1-.9 5.4-.5 7.4.8 4.3 5.8 10.4 9.2 11.2 3.1.8 3.1 2 0 2.8-3.4.8-8.4 6.9-9.2 11.2-2.1 11.1 8.7 20.8 19.6 17.5 3.9-1.2 10-7 10-9.6 0-.8.5-1.5 1-1.5.6 0 1 .7 1 1.5 0 2.2 5.9 8.4 8.6 9.1 2.6.7 3.3 2.4.9 2.4-2.6 0-8.4 6.1-9.6 10-.6 2.1-.9 5.4-.5 7.4.8 4.3 5.8 10.4 9.2 11.2 3.1.8 3.1 2 0 2.8-3.4.8-8.4 6.9-9.2 11.2-2.1 11.1 8.7 20.8 19.6 17.5 3.9-1.2 10-7 10-9.6 0-.8.5-1.5 1-1.5.6 0 1 .7 1 1.5 0 2.6 6.1 8.4 10 9.6 10.9 3.3 21.7-6.4 19.6-17.5-.8-4.3-5.8-10.4-9.2-11.2-3.1-.8-3.1-2 0-2.8 2.7-.7 8.6-6.9 8.6-9.1 0-.8.5-1.5 1-1.5.6 0 1 .7 1 1.5 0 2.6 6.1 8.4 10 9.6 2.1.6 5.4.9 7.4.5 4.3-.8 10.4-5.8 11.2-9.2.7-2.6 2.4-3.3 2.4-.9 0 2.2 5.9 8.4 8.6 9.1 2.6.7 3.3 2.4.9 2.4-2.6 0-8.4 6.1-9.6 10-3.3 10.9 6.4 21.7 17.5 19.6 7.8-1.5 13.7-10.2 12.2-18-.8-4.3-5.8-10.4-9.2-11.2-1.3-.3-2.4-1-2.4-1.4 0-.4 1.1-1.1 2.4-1.4 3.4-.8 8.4-6.9 9.2-11.2.4-2 .1-5.3-.5-7.4-1.2-3.9-7-10-9.6-10-2.4 0-1.7-1.7.9-2.4 3.4-.8 8.4-6.9 9.2-11.2.4-2 .1-5.3-.5-7.4-1.2-3.9-7-10-9.6-10-.8 0-1.5-.5-1.5-1 0-.6.7-1 1.5-1 2.2 0 8.4-5.9 9.1-8.6.8-3.1 2-3.1 2.8 0 .8 3.4 6.9 8.4 11.2 9.2 2 .4 5.3.1 7.4-.5 3.9-1.2 10-7 10-9.6 0-2.4 1.7-1.7 2.4.9.7 2.7 6.9 8.6 9.1 8.6 2.4 0 1.7 1.7-.9 2.4-3.4.8-8.4 6.9-9.2 11.2-.4 2-.1 5.3.5 7.4 1.2 3.9 7 10 9.6 10 .8 0 1.5.4 1.5 1 0 .5-.7 1-1.5 1-2.6 0-8.4 6.1-9.6 10-.6 2.1-.9 5.4-.5 7.4.8 4.3 5.8 10.4 9.2 11.2 3.1.8 3.1 2 0 2.8-3.4.8-8.4 6.9-9.2 11.2-2.1 11.1 8.7 20.8 19.6 17.5 3.9-1.2 10-7 10-9.6 0-2.4 1.7-1.7 2.4.9.8 3.4 6.9 8.4 11.2 9.2 7.8 1.5 16.5-4.4 18-12.2 2.1-11.1-8.7-20.8-19.6-17.5-3.9 1.2-10 7-10 9.6 0 .8-.4 1.5-1 1.5-.5 0-1-.7-1-1.5 0-2.2-5.9-8.4-8.6-9.1-3.1-.8-3.1-2 0-2.8 3.4-.8 8.4-6.9 9.2-11.2.4-2 .1-5.3-.5-7.4-1.2-3.9-7-10-9.6-10-2.4 0-1.7-1.7.9-2.4 2.7-.7 8.6-6.9 8.6-9.1 0-.8.5-1.5 1-1.5.6 0 1 .7 1 1.5 0 2.6 6.1 8.4 10 9.6 10.9 3.3 21.7-6.4 19.6-17.5-.8-4.3-5.8-10.4-9.2-11.2-3.1-.8-3.1-2 0-2.8 3.4-.8 8.4-6.9 9.2-11.2 2.1-11.1-8.7-20.8-19.6-17.5-3.9 1.2-10 7-10 9.6 0 .8-.4 1.5-1 1.5-.5 0-1-.7-1-1.5 0-2.6-6.1-8.4-10-9.6-2.1-.6-5.4-.9-7.4-.5-4.3.8-10.4 5.8-11.2 9.2-.3 1.3-1 2.4-1.4 2.4-.4 0-1.1-1.1-1.4-2.4-.8-3.4-6.9-8.4-11.2-9.2-2-.4-5.3-.1-7.4.5-3.9 1.2-10 7-10 9.6 0 2.4-1.7 1.7-2.4-.9-.8-3.4-6.9-8.4-11.2-9.2-2-.4-5.3-.1-7.4.5-3.9 1.2-10 7-10 9.6 0 2.4-1.7 1.7-2.4-.9-.8-3.4-6.9-8.4-11.2-9.2-7.8-1.5-16.5 4.4-18 12.2-2.1 11.1 8.7 20.8 19.6 17.5 3.9-1.2 10-7 10-9.6 0-2.4 1.7-1.7 2.4.9.7 2.7 6.9 8.6 9.1 8.6 2.4 0 1.7 1.7-.9 2.4-3.4.8-8.4 6.9-9.2 11.2-.4 2-.1 5.3.5 7.4 1.2 3.9 7 10 9.6 10 .8 0 1.5.4 1.5 1 0 .5-.7 1-1.5 1-2.2 0-8.4 5.9-9.1 8.6-.3 1.3-1 2.4-1.4 2.4-.4 0-1.1-1.1-1.4-2.4-.8-3.4-6.9-8.4-11.2-9.2-2-.4-5.3-.1-7.4.5-3.9 1.2-10 7-10 9.6 0 2.4-1.7 1.7-2.4-.9-.7-2.7-6.9-8.6-9.1-8.6-2.4 0-1.7-1.7.9-2.4 3.4-.8 8.4-6.9 9.2-11.2 2.1-11.1-8.7-20.8-19.6-17.5-3.9 1.2-10 7-10 9.6 0 2.4-1.7 1.7-2.4-.9-.7-2.7-6.9-8.6-9.1-8.6-2.4 0-1.7-1.7.9-2.4 3.4-.8 8.4-6.9 9.2-11.2.4-2 .1-5.3-.5-7.4-1.2-3.9-7-10-9.6-10-2.4 0-1.7-1.7.9-2.4 3.4-.8 8.4-6.9 9.2-11.2 2.1-11.1-8.7-20.8-19.6-17.5-3.9 1.2-10 7-10 9.6 0 2.4-1.7 1.7-2.4-.9-.7-2.7-6.9-8.6-9.1-8.6-.8 0-1.5-.5-1.5-1 0-.6.7-1 1.5-1 2.6 0 8.4-6.1 9.6-10 3.7-12.4-8.9-23.7-20.6-18.6zm22.5 50.1c0 2.2 5.9 8.4 8.6 9.1 2.6.7 3.3 2.4.9 2.4-2.2 0-8.4 5.9-9.1 8.6-.3 1.3-1 2.4-1.4 2.4-.4 0-1.1-1.1-1.4-2.4-.7-2.7-6.9-8.6-9.1-8.6-.8 0-1.5-.5-1.5-1 0-.6.7-1 1.5-1 2.2 0 8.4-5.9 9.1-8.6.7-2.6 2.4-3.3 2.4-.9zm0 31c0 2.2 5.9 8.4 8.6 9.1 2.6.7 3.3 2.4.9 2.4-2.2 0-8.4 5.9-9.1 8.6-.3 1.3-1 2.4-1.4 2.4-.4 0-1.1-1.1-1.4-2.4-.7-2.7-6.9-8.6-9.1-8.6-.8 0-1.5-.5-1.5-1 0-.6.7-1 1.5-1 2.2 0 8.4-5.9 9.1-8.6.7-2.6 2.4-3.3 2.4-.9zm186 0c0 2.2 5.9 8.4 8.6 9.1 2.6.7 3.3 2.4.9 2.4-2.2 0-8.4 5.9-9.1 8.6-.3 1.3-1 2.4-1.4 2.4-.4 0-1.1-1.1-1.4-2.4-.7-2.7-6.9-8.6-9.1-8.6-.8 0-1.5-.5-1.5-1 0-.6.7-1 1.5-1 2.2 0 8.4-5.9 9.1-8.6.7-2.6 2.4-3.3 2.4-.9zm-155 31c0 2.2 5.9 8.4 8.6 9.1 2.6.7 3.3 2.4.9 2.4-2.2 0-8.4 5.9-9.1 8.6-.3 1.3-1 2.4-1.4 2.4-.4 0-1.1-1.1-1.4-2.4-.7-2.7-6.9-8.6-9.1-8.6-.8 0-1.5-.5-1.5-1 0-.6.7-1 1.5-1 2.2 0 8.4-5.9 9.1-8.6.7-2.6 2.4-3.3 2.4-.9zm0 31c0 2.2 5.9 8.4 8.6 9.1 2.6.7 3.3 2.4.9 2.4-2.2 0-8.4 5.9-9.1 8.6-.3 1.3-1 2.4-1.4 2.4-.4 0-1.1-1.1-1.4-2.4-.7-2.7-6.9-8.6-9.1-8.6-.8 0-1.5-.5-1.5-1 0-.6.7-1 1.5-1 2.2 0 8.4-5.9 9.1-8.6.7-2.6 2.4-3.3 2.4-.9zM970.5 466.4c-1.7.7-4.3 2.8-5.8 4.5-9.5 11.4 2 28.5 16.3 24.2 3.9-1.2 10-7 10-9.6 0-2.4 1.7-1.7 2.4.9.8 3.4 6.9 8.4 11.2 9.2 7.8 1.5 16.5-4.4 18-12.2 2.1-11.1-8.7-20.8-19.6-17.5-3.9 1.2-10 7-10 9.6 0 .8-.4 1.5-1 1.5-.5 0-1-.6-1-1.4 0-2.3-5.1-7.8-8.7-9.2-4-1.7-7.9-1.7-11.8 0zM71.5 497.4c-7 3-10.8 11.3-8.6 18.6 1.2 3.9 7 10 9.6 10 .8 0 1.5.4 1.5 1 0 .5-.7 1-1.5 1-2.6 0-8.4 6.1-9.6 10-.6 2.1-.9 5.4-.5 7.4.8 4.3 5.8 10.4 9.2 11.2 2.6.7 3.3 2.4.9 2.4-2.6 0-8.4 6.1-9.6 10-3.3 10.9 6.4 21.7 17.5 19.6 4.3-.8 10.4-5.8 11.2-9.2.7-2.6 2.4-3.3 2.4-.9 0 2.6 6.1 8.4 10 9.6 2.1.6 5.4.9 7.4.5 4.3-.8 10.4-5.8 11.2-9.2.7-2.6 2.4-3.3 2.4-.9 0 2.6 6.1 8.4 10 9.6 10.9 3.3 21.7-6.4 19.6-17.5-1.5-7.8-10.2-13.7-18-12.2-4.3.8-10.4 5.8-11.2 9.2-.3 1.3-1 2.4-1.4 2.4-.4 0-1.1-1.1-1.4-2.4-.7-2.7-6.9-8.6-9.1-8.6-2.4 0-1.7-1.7.9-2.4 3.4-.8 8.4-6.9 9.2-11.2 2.1-11.1-8.7-20.8-19.6-17.5-3.9 1.2-10 7-10 9.6 0 2.4-1.7 1.7-2.4-.9-.7-2.7-6.9-8.6-9.1-8.6-.8 0-1.5-.5-1.5-1 0-.6.7-1 1.5-1 2.6 0 8.4-6.1 9.6-10 3.7-12.4-8.9-23.7-20.6-18.6zM94 547.5c0 2.2 5.9 8.4 8.6 9.1 2.6.7 3.3 2.4.9 2.4-2.2 0-8.4 5.9-9.1 8.6-.3 1.3-1 2.4-1.4 2.4-.4 0-1.1-1.1-1.4-2.4-.7-2.7-6.9-8.6-9.1-8.6-.8 0-1.5-.5-1.5-1 0-.6.7-1 1.5-1 2.2 0 8.4-5.9 9.1-8.6.7-2.6 2.4-3.3 2.4-.9zM753.5 528.4c-10.2 4.4-12.4 18.1-4.1 25.4 14 12.3 33.8-6.7 21.9-20.9-4.7-5.5-11.6-7.2-17.8-4.5zM257.5 559.4c-10.2 4.4-12.4 18.1-4.1 25.4 14 12.3 33.8-6.7 21.9-20.9-4.7-5.5-11.6-7.2-17.8-4.5zM164.5 590.4c-10.2 4.4-12.4 18.1-4.1 25.4 14 12.3 33.8-6.7 21.9-20.9-4.7-5.5-11.6-7.2-17.8-4.5zM288.5 590.4c-7 3-10.8 11.3-8.6 18.6 1.2 3.9 7 10 9.6 10 2.4 0 1.7 1.7-.9 2.4-2.7.7-8.6 6.9-8.6 9.1 0 .8-.4 1.5-1 1.5-.5 0-1-.7-1-1.5 0-2.6-6.1-8.4-10-9.6-2.1-.6-5.4-.9-7.4-.5-4.3.8-10.4 5.8-11.2 9.2-.8 3.1-2 3.1-2.8 0-.8-3.4-6.9-8.4-11.2-9.2-2-.4-5.3-.1-7.4.5-3.9 1.2-10 7-10 9.6 0 2.4-1.7 1.7-2.4-.9-.8-3.4-6.9-8.4-11.2-9.2-7.8-1.5-16.5 4.4-18 12.2-2.1 11.1 8.7 20.8 19.6 17.5 3.9-1.2 10-7 10-9.6 0-.8.5-1.5 1-1.5.6 0 1 .7 1 1.5 0 2.6 6.1 8.4 10 9.6 2.1.6 5.4.9 7.4.5 4.3-.8 10.4-5.8 11.2-9.2.7-2.6 2.4-3.3 2.4-.9 0 2.6 6.1 8.4 10 9.6 2.1.6 5.4.9 7.4.5 4.3-.8 10.4-5.8 11.2-9.2.8-3.1 2-3.1 2.8 0 .8 3.4 6.9 8.4 11.2 9.2 2 .4 5.3.1 7.4-.5 3.9-1.2 10-7 10-9.6 0-.8.5-1.5 1-1.5.6 0 1 .7 1 1.5 0 2.2 5.9 8.4 8.6 9.1 3.1.8 3.1 2 0 2.8-3.4.8-8.4 6.9-9.2 11.2-.4 2-.1 5.3.5 7.4 1.2 3.9 7 10 9.6 10 2.4 0 1.7 1.7-.9 2.4-3.4.8-8.4 6.9-9.2 11.2-1.5 7.8 4.4 16.5 12.2 18 11.1 2.1 20.8-8.7 17.5-19.6-1.2-3.9-7-10-9.6-10-2.4 0-1.7-1.7.9-2.4 3.4-.8 8.4-6.9 9.2-11.2.4-2 .1-5.3-.5-7.4-1.2-3.9-7-10-9.6-10-2.4 0-1.7-1.7.9-2.4 3.4-.8 8.4-6.9 9.2-11.2 2.1-11.1-8.7-20.8-19.6-17.5-3.9 1.2-10 7-10 9.6 0 2.4-1.7 1.7-2.4-.9-.7-2.7-6.9-8.6-9.1-8.6-.8 0-1.5-.5-1.5-1 0-.6.7-1 1.5-1 2.6 0 8.4-6.1 9.6-10 3.7-12.4-8.9-23.7-20.6-18.6zM753.5 590.4c-1.7.7-4.3 2.8-5.8 4.5-9.5 11.4 2 28.5 16.3 24.2 3.9-1.2 10-7 10-9.6 0-2.4 1.7-1.7 2.4.9.8 3.4 6.9 8.4 11.2 9.2 7.8 1.5 16.5-4.4 18-12.2 2.1-11.1-8.7-20.8-19.6-17.5-3.9 1.2-10 7-10 9.6 0 .8-.4 1.5-1 1.5-.5 0-1-.6-1-1.4 0-2.3-5.1-7.8-8.7-9.2-4-1.7-7.9-1.7-11.8 0z"/><path d="M1063.5 590.4c-10.2 4.4-12.4 18.1-4.1 25.4 14 12.3 33.8-6.7 21.9-20.9-4.7-5.5-11.6-7.2-17.8-4.5zM71.5 621.4c-7 3-10.8 11.3-8.6 18.6 1.2 3.9 7 10 9.6 10 .8 0 1.5.4 1.5 1 0 .5-.7 1-1.5 1-2.6 0-8.4 6.1-9.6 10-.6 2.1-.9 5.4-.5 7.4.8 4.3 5.8 10.4 9.2 11.2 2.6.7 3.3 2.4.9 2.4-2.6 0-8.4 6.1-9.6 10-.6 2.1-.9 5.4-.5 7.4.8 4.3 5.8 10.4 9.2 11.2 3.1.8 3.1 2 0 2.8-3.4.8-8.4 6.9-9.2 11.2-1.5 7.8 4.4 16.5 12.2 18 11.1 2.1 20.8-8.7 17.5-19.6-1.2-3.9-7-10-9.6-10-.8 0-1.5-.5-1.5-1 0-.6.7-1 1.5-1 2.2 0 8.4-5.9 9.1-8.6.8-3.1 2-3.1 2.8 0 .8 3.4 6.9 8.4 11.2 9.2 7.8 1.5 16.5-4.4 18-12.2 2.1-11.1-8.7-20.8-19.6-17.5-3.9 1.2-10 7-10 9.6 0 2.4-1.7 1.7-2.4-.9-.7-2.7-6.9-8.6-9.1-8.6-2.4 0-1.7-1.7.9-2.4 3.4-.8 8.4-6.9 9.2-11.2.4-2 .1-5.3-.5-7.4-1.2-3.9-7-10-9.6-10-.8 0-1.5-.5-1.5-1 0-.6.7-1 1.5-1 2.6 0 8.4-6.1 9.6-10 3.7-12.4-8.9-23.7-20.6-18.6zM133.5 652.4c-10.2 4.4-12.4 18.1-4.1 25.4 14 12.3 33.8-6.7 21.9-20.9-4.7-5.5-11.6-7.2-17.8-4.5zM753.5 652.4c-10.2 4.4-12.4 18.1-4.1 25.4 14 12.3 33.8-6.7 21.9-20.9-4.7-5.5-11.6-7.2-17.8-4.5zM908.5 652.4c-10.2 4.4-12.4 18.1-4.1 25.4 14 12.3 33.8-6.7 21.9-20.9-4.7-5.5-11.6-7.2-17.8-4.5zM164.5 683.4c-7 3-10.8 11.3-8.6 18.6 1.2 3.9 7 10 9.6 10 2.4 0 1.7 1.7-.9 2.4-2.7.7-8.6 6.9-8.6 9.1 0 .8-.4 1.5-1 1.5-.5 0-1-.7-1-1.5 0-2.6-6.1-8.4-10-9.6-10.9-3.3-21.7 6.4-19.6 17.5.8 4.3 5.8 10.4 9.2 11.2 2.6.7 3.3 2.4.9 2.4-2.6 0-8.4 6.1-9.6 10-3.3 10.9 6.4 21.7 17.5 19.6 4.3-.8 10.4-5.8 11.2-9.2.3-1.3 1-2.4 1.4-2.4.4 0 1.1 1.1 1.4 2.4.7 2.7 6.9 8.6 9.1 8.6 2.4 0 1.7 1.7-.9 2.4-3.4.8-8.4 6.9-9.2 11.2-.4 2-.1 5.3.5 7.4 1.2 3.9 7 10 9.6 10 .8 0 1.5.4 1.5 1 0 .5-.7 1-1.5 1-2.2 0-8.4 5.9-9.1 8.6-.7 2.6-2.4 3.3-2.4.9 0-2.6-6.1-8.4-10-9.6-10.9-3.3-21.7 6.4-19.6 17.5 1.5 7.8 10.2 13.7 18 12.2 4.3-.8 10.4-5.8 11.2-9.2.8-3.1 2-3.1 2.8 0 .8 3.4 6.9 8.4 11.2 9.2 11.1 2.1 20.8-8.7 17.5-19.6-1.2-3.9-7-10-9.6-10-2.4 0-1.7-1.7.9-2.4 3.4-.8 8.4-6.9 9.2-11.2.4-2 .1-5.3-.5-7.4-1.2-3.9-7-10-9.6-10-.8 0-1.5-.5-1.5-1 0-.6.7-1 1.5-1 2.2 0 8.4-5.9 9.1-8.6.7-2.6 2.4-3.3 2.4-.9 0 2.6 6.1 8.4 10 9.6 2.1.6 5.4.9 7.4.5 4.3-.8 10.4-5.8 11.2-9.2.3-1.3 1-2.4 1.4-2.4.4 0 1.1 1.1 1.4 2.4.7 2.7 6.9 8.6 9.1 8.6 2.4 0 1.7 1.7-.9 2.4-3.4.8-8.4 6.9-9.2 11.2-.4 2-.1 5.3.5 7.4 1.2 3.9 7 10 9.6 10 2.4 0 1.7 1.7-.9 2.4-3.4.8-8.4 6.9-9.2 11.2-2.1 11.1 8.7 20.8 19.6 17.5 3.9-1.2 10-7 10-9.6 0-2.4 1.7-1.7 2.4.9.8 3.4 6.9 8.4 11.2 9.2 7.8 1.5 16.5-4.4 18-12.2 2.1-11.1-8.7-20.8-19.6-17.5-3.9 1.2-10 7-10 9.6 0 2.4-1.7 1.7-2.4-.9-.7-2.7-6.9-8.6-9.1-8.6-2.4 0-1.7-1.7.9-2.4 3.4-.8 8.4-6.9 9.2-11.2.4-2 .1-5.3-.5-7.4-1.2-3.9-7-10-9.6-10-2.4 0-1.7-1.7.9-2.4 2.7-.7 8.6-6.9 8.6-9.1 0-2.4 1.7-1.7 2.4.9.8 3.4 6.9 8.4 11.2 9.2 7.8 1.5 16.5-4.4 18-12.2 2.1-11.1-8.7-20.8-19.6-17.5-3.9 1.2-10 7-10 9.6 0 .8-.4 1.5-1 1.5-.5 0-1-.7-1-1.5 0-2.6-6.1-8.4-10-9.6-2.1-.6-5.4-.9-7.4-.5-4.3.8-10.4 5.8-11.2 9.2-.8 3.1-2 3.1-2.8 0-.8-3.4-6.9-8.4-11.2-9.2-2-.4-5.3-.1-7.4.5-3.9 1.2-10 7-10 9.6 0 2.4-1.7 1.7-2.4-.9-.7-2.7-6.9-8.6-9.1-8.6-2.4 0-1.7-1.7.9-2.4 3.4-.8 8.4-6.9 9.2-11.2.4-2 .1-5.3-.5-7.4-1.2-3.9-7-10-9.6-10-.8 0-1.5-.5-1.5-1 0-.6.7-1 1.5-1 2.6 0 8.4-6.1 9.6-10 3.7-12.4-8.9-23.7-20.6-18.6zm-8.5 50.1c0 2.2 5.9 8.4 8.6 9.1 2.6.7 3.3 2.4.9 2.4-2.2 0-8.4 5.9-9.1 8.6-.8 3.1-2 3.1-2.8 0-.7-2.7-6.9-8.6-9.1-8.6-.8 0-1.5-.5-1.5-1 0-.6.7-1 1.5-1 2.2 0 8.4-5.9 9.1-8.6.7-2.6 2.4-3.3 2.4-.9zM257.5 683.4c-10.2 4.4-12.4 18.1-4.1 25.4 14 12.3 33.8-6.7 21.9-20.9-4.7-5.5-11.6-7.2-17.8-4.5zM381.5 683.4c-10.2 4.4-12.4 18.1-4.1 25.4 14 12.3 33.8-6.7 21.9-20.9-4.7-5.5-11.6-7.2-17.8-4.5zM815.5 683.4c-7 3-10.8 11.3-8.6 18.6 1.2 3.9 7 10 9.6 10 .8 0 1.5.4 1.5 1 0 .5-.7 1-1.5 1-2.6 0-8.4 6.1-9.6 10-.6 2.1-.9 5.4-.5 7.4.8 4.3 5.8 10.4 9.2 11.2 2.6.7 3.3 2.4.9 2.4-2.2 0-8.4 5.9-9.1 8.6-.3 1.3-1 2.4-1.4 2.4-.4 0-1.1-1.1-1.4-2.4-.8-3.4-6.9-8.4-11.2-9.2-2-.4-5.3-.1-7.4.5-3.9 1.2-10 7-10 9.6 0 2.4-1.7 1.7-2.4-.9-.7-2.7-6.9-8.6-9.1-8.6-2.4 0-1.7-1.7.9-2.4 3.4-.8 8.4-6.9 9.2-11.2 1.5-7.8-4.4-16.5-12.2-18-11.1-2.1-20.8 8.7-17.5 19.6 1.2 3.9 7 10 9.6 10 .8 0 1.5.4 1.5 1 0 .5-.7 1-1.5 1-2.6 0-8.4 6.1-9.6 10-.6 2.1-.9 5.4-.5 7.4.8 4.3 5.8 10.4 9.2 11.2 2.6.7 3.3 2.4.9 2.4-2.6 0-8.4 6.1-9.6 10-3.3 10.9 6.4 21.7 17.5 19.6 7.8-1.5 13.7-10.2 12.2-18-.8-4.3-5.8-10.4-9.2-11.2-2.6-.7-3.3-2.4-.9-2.4 2.2 0 8.4-5.9 9.1-8.6.7-2.6 2.4-3.3 2.4-.9 0 2.6 6.1 8.4 10 9.6 2.1.6 5.4.9 7.4.5 4.3-.8 10.4-5.8 11.2-9.2.3-1.3 1-2.4 1.4-2.4.4 0 1.1 1.1 1.4 2.4.8 3.4 6.9 8.4 11.2 9.2 11.1 2.1 20.8-8.7 17.5-19.6-1.2-3.9-7-10-9.6-10-2.4 0-1.7-1.7.9-2.4 3.4-.8 8.4-6.9 9.2-11.2.4-2 .1-5.3-.5-7.4-1.2-3.9-7-10-9.6-10-.8 0-1.5-.5-1.5-1 0-.6.7-1 1.5-1 2.6 0 8.4-6.1 9.6-10 3.7-12.4-8.9-23.7-20.6-18.6zM877.5 683.4c-10.2 4.4-12.4 18.1-4.1 25.4 14 12.3 33.8-6.7 21.9-20.9-4.7-5.5-11.6-7.2-17.8-4.5zM970.5 683.4c-1.7.7-4.3 2.8-5.8 4.5-9.5 11.4 2 28.5 16.3 24.2 3.9-1.2 10-7 10-9.6 0-.8.5-1.5 1-1.5.6 0 1 .7 1 1.5 0 2.2 5.9 8.4 8.6 9.1 2.6.7 3.3 2.4.9 2.4-2.6 0-8.4 6.1-9.6 10-3.3 10.9 6.4 21.7 17.5 19.6 7.8-1.5 13.7-10.2 12.2-18-.8-4.3-5.8-10.4-9.2-11.2-3.1-.8-3.1-2 0-2.8 3.4-.8 8.4-6.9 9.2-11.2 2.1-11.1-8.7-20.8-19.6-17.5-3.9 1.2-10 7-10 9.6 0 .8-.4 1.5-1 1.5-.5 0-1-.6-1-1.4 0-2.3-5.1-7.8-8.7-9.2-4-1.7-7.9-1.7-11.8 0zM1063.5 683.4c-7 3-10.8 11.3-8.6 18.6 1.2 3.9 7 10 9.6 10 .8 0 1.5.4 1.5 1 0 .5-.7 1-1.5 1-2.6 0-8.4 6.1-9.6 10-.6 2.1-.9 5.4-.5 7.4.8 4.3 5.8 10.4 9.2 11.2 2.6.7 3.3 2.4.9 2.4-2.2 0-8.4 5.9-9.1 8.6-.3 1.3-1 2.4-1.4 2.4-.4 0-1.1-1.1-1.4-2.4-.8-3.4-6.9-8.4-11.2-9.2-11.1-2.1-20.8 8.7-17.5 19.6 1.2 3.9 7 10 9.6 10 2.4 0 1.7 1.7-.9 2.4-3.4.8-8.4 6.9-9.2 11.2-2.1 11.1 8.7 20.8 19.6 17.5 3.9-1.2 10-7 10-9.6 0-.8.5-1.5 1-1.5.6 0 1 .7 1 1.5 0 2.2 5.9 8.4 8.6 9.1 1.3.3 2.4 1 2.4 1.4 0 .4-1.1 1.1-2.4 1.4-3.4.8-8.4 6.9-9.2 11.2-1.5 7.8 4.4 16.5 12.2 18 11.1 2.1 20.8-8.7 17.5-19.6-1.2-3.9-7-10-9.6-10-2.4 0-1.7-1.7.9-2.4 3.4-.8 8.4-6.9 9.2-11.2.4-2 .1-5.3-.5-7.4-1.2-3.9-7-10-9.6-10-2.4 0-1.7-1.7.9-2.4 3.4-.8 8.4-6.9 9.2-11.2.4-2 .1-5.3-.5-7.4-1.2-3.9-7-10-9.6-10-2.4 0-1.7-1.7.9-2.4 3.4-.8 8.4-6.9 9.2-11.2.4-2 .1-5.3-.5-7.4-1.2-3.9-7-10-9.6-10-.8 0-1.5-.5-1.5-1 0-.6.7-1 1.5-1 2.6 0 8.4-6.1 9.6-10 3.7-12.4-8.9-23.7-20.6-18.6zm-8.5 81.1c0 2.2 5.9 8.4 8.6 9.1 2.6.7 3.3 2.4.9 2.4-2.2 0-8.4 5.9-9.1 8.6-.8 3.1-2 3.1-2.8 0-.7-2.7-6.9-8.6-9.1-8.6-.8 0-1.5-.5-1.5-1 0-.6.7-1 1.5-1 2.2 0 8.4-5.9 9.1-8.6.7-2.6 2.4-3.3 2.4-.9zM288.5 714.4c-10.2 4.4-12.4 18.1-4.1 25.4 14 12.3 33.8-6.7 21.9-20.9-4.7-5.5-11.6-7.2-17.8-4.5zM350.5 714.4c-10.2 4.4-12.4 18.1-4.1 25.4 14 12.3 33.8-6.7 21.9-20.9-4.7-5.5-11.6-7.2-17.8-4.5zM908.5 714.4c-10.2 4.4-12.4 18.1-4.1 25.4 14 12.3 33.8-6.7 21.9-20.9-4.7-5.5-11.6-7.2-17.8-4.5zM412.5 745.4c-1.7.7-4.3 2.8-5.8 4.5-9.5 11.4 2 28.5 16.3 24.2 3.9-1.2 10-7 10-9.6 0-.8.5-1.5 1-1.5.6 0 1 .7 1 1.5 0 2.6 6.1 8.4 10 9.6 2.1.6 5.4.9 7.4.5 4.3-.8 10.4-5.8 11.2-9.2.7-2.6 2.4-3.3 2.4-.9 0 2.6 6.1 8.4 10 9.6 10.9 3.3 21.7-6.4 19.6-17.5-1.5-7.8-10.2-13.7-18-12.2-4.3.8-10.4 5.8-11.2 9.2-.3 1.3-1 2.4-1.4 2.4-.4 0-1.1-1.1-1.4-2.4-.8-3.4-6.9-8.4-11.2-9.2-2-.4-5.3-.1-7.4.5-3.9 1.2-10 7-10 9.6 0 .8-.4 1.5-1 1.5-.5 0-1-.6-1-1.4 0-2.3-5.1-7.8-8.7-9.2-4-1.7-7.9-1.7-11.8 0zM536.5 745.4c-7 3-10.8 11.3-8.6 18.6 1.2 3.9 7 10 9.6 10 2.4 0 1.7 1.7-.9 2.4-2.7.7-8.6 6.9-8.6 9.1 0 .8-.4 1.5-1 1.5-.5 0-1-.7-1-1.5 0-2.6-6.1-8.4-10-9.6-10.9-3.3-21.7 6.4-19.6 17.5 1.5 7.8 10.2 13.7 18 12.2 4.3-.8 10.4-5.8 11.2-9.2.8-3.1 2-3.1 2.8 0 .8 3.4 6.9 8.4 11.2 9.2 11.1 2.1 20.8-8.7 17.5-19.6-1.2-3.9-7-10-9.6-10-.8 0-1.5-.5-1.5-1 0-.6.7-1 1.5-1 2.6 0 8.4-6.1 9.6-10 3.7-12.4-8.9-23.7-20.6-18.6zM598.5 745.4c-10.2 4.4-12.4 18.1-4.1 25.4 14 12.3 33.8-6.7 21.9-20.9-4.7-5.5-11.6-7.2-17.8-4.5zM691.5 745.4c-10.2 4.4-12.4 18.1-4.1 25.4 14 12.3 33.8-6.7 21.9-20.9-4.7-5.5-11.6-7.2-17.8-4.5zM877.5 745.4c-10.2 4.4-12.4 18.1-4.1 25.4 14 12.3 33.8-6.7 21.9-20.9-4.7-5.5-11.6-7.2-17.8-4.5z"/><path d="M970.5 745.4c-7 3-10.8 11.3-8.6 18.6 1.2 3.9 7 10 9.6 10 2.4 0 1.7 1.7-.9 2.4-2.7.7-8.6 6.9-8.6 9.1 0 .8-.4 1.5-1 1.5-.5 0-1-.7-1-1.5 0-2.6-6.1-8.4-10-9.6-10.9-3.3-21.7 6.4-19.6 17.5.8 4.3 5.8 10.4 9.2 11.2 2.6.7 3.3 2.4.9 2.4-2.2 0-8.4 5.9-9.1 8.6-.8 3.1-2 3.1-2.8 0-.8-3.4-6.9-8.4-11.2-9.2-2-.4-5.3-.1-7.4.5-3.9 1.2-10 7-10 9.6 0 .8-.4 1.5-1 1.5-.5 0-1-.7-1-1.5 0-2.6-6.1-8.4-10-9.6-2.1-.6-5.4-.9-7.4-.5-4.3.8-10.4 5.8-11.2 9.2-.3 1.3-1 2.4-1.4 2.4-.4 0-1.1-1.1-1.4-2.4-.7-2.7-6.9-8.6-9.1-8.6-2.4 0-1.7-1.7.9-2.4 3.4-.8 8.4-6.9 9.2-11.2 1.5-7.8-4.4-16.5-12.2-18-11.1-2.1-20.8 8.7-17.5 19.6 1.2 3.9 7 10 9.6 10 .8 0 1.5.4 1.5 1 0 .5-.7 1-1.5 1-2.2 0-8.4 5.9-9.1 8.6-.3 1.3-1 2.4-1.4 2.4-.4 0-1.1-1.1-1.4-2.4-.8-3.4-6.9-8.4-11.2-9.2-11.1-2.1-20.8 8.7-17.5 19.6 1.2 3.9 7 10 9.6 10 2.4 0 1.7 1.7-.9 2.4-2.7.7-8.6 6.9-8.6 9.1 0 2.4-1.7 1.7-2.4-.9-.8-3.4-6.9-8.4-11.2-9.2-11.1-2.1-20.8 8.7-17.5 19.6 1.2 3.9 7 10 9.6 10 .8 0 1.5.4 1.5 1 0 .5-.7 1-1.5 1-2.6 0-8.4 6.1-9.6 10-.6 2.1-.9 5.4-.5 7.4.8 4.3 5.8 10.4 9.2 11.2 3.1.8 3.1 2 0 2.8-3.4.8-8.4 6.9-9.2 11.2-.4 2-.1 5.3.5 7.4 1.2 3.9 7 10 9.6 10 2.4 0 1.7 1.7-.9 2.4-2.7.7-8.6 6.9-8.6 9.1 0 .8-.4 1.5-1 1.5-.5 0-1-.7-1-1.5 0-2.6-6.1-8.4-10-9.6-10.9-3.3-21.7 6.4-19.6 17.5.8 4.3 5.8 10.4 9.2 11.2 1.3.3 2.4 1 2.4 1.4 0 .4-1.1 1.1-2.4 1.4-2.7.7-8.6 6.9-8.6 9.1 0 2.4-1.7 1.7-2.4-.9-.8-3.4-6.9-8.4-11.2-9.2-7.8-1.5-16.5 4.4-18 12.2-2.1 11.1 8.7 20.8 19.6 17.5 3.9-1.2 10-7 10-9.6 0-2.4 1.7-1.7 2.4.9.8 3.4 6.9 8.4 11.2 9.2 11.1 2.1 20.8-8.7 17.5-19.6-1.2-3.9-7-10-9.6-10-2.4 0-1.7-1.7.9-2.4 2.7-.7 8.6-6.9 8.6-9.1 0-.8.5-1.5 1-1.5.6 0 1 .7 1 1.5 0 2.6 6.1 8.4 10 9.6 2.1.6 5.4.9 7.4.5 4.3-.8 10.4-5.8 11.2-9.2.8-3.1 2-3.1 2.8 0 .8 3.4 6.9 8.4 11.2 9.2 2 .4 5.3.1 7.4-.5 3.9-1.2 10-7 10-9.6 0-2.4 1.7-1.7 2.4.9.8 3.4 6.9 8.4 11.2 9.2 2 .4 5.3.1 7.4-.5 3.9-1.2 10-7 10-9.6 0-.8.5-1.5 1-1.5.6 0 1 .7 1 1.5 0 2.6 6.1 8.4 10 9.6 2.1.6 5.4.9 7.4.5 4.3-.8 10.4-5.8 11.2-9.2.8-3.1 2-3.1 2.8 0 .7 2.7 6.9 8.6 9.1 8.6.8 0 1.5.4 1.5 1 0 .5-.7 1-1.5 1-2.6 0-8.4 6.1-9.6 10-3.3 10.9 6.4 21.7 17.5 19.6 7.8-1.5 13.7-10.2 12.2-18-.8-4.3-5.8-10.4-9.2-11.2-2.6-.7-3.3-2.4-.9-2.4 2.2 0 8.4-5.9 9.1-8.6.8-3.1 2-3.1 2.8 0 .8 3.4 6.9 8.4 11.2 9.2 11.1 2.1 20.8-8.7 17.5-19.6-1.2-3.9-7-10-9.6-10-.8 0-1.5-.5-1.5-1 0-.6.7-1 1.5-1 2.2 0 8.4-5.9 9.1-8.6.3-1.3 1-2.4 1.4-2.4.4 0 1.1 1.1 1.4 2.4.8 3.4 6.9 8.4 11.2 9.2 2 .4 5.3.1 7.4-.5 3.9-1.2 10-7 10-9.6 0-2.4 1.7-1.7 2.4.9.7 2.7 6.9 8.6 9.1 8.6 2.4 0 1.7 1.7-.9 2.4-3.4.8-8.4 6.9-9.2 11.2-.4 2-.1 5.3.5 7.4 1.2 3.9 7 10 9.6 10 2.4 0 1.7 1.7-.9 2.4-3.4.8-8.4 6.9-9.2 11.2-.4 2-.1 5.3.5 7.4 1.2 3.9 7 10 9.6 10 .8 0 1.5.4 1.5 1 0 .5-.7 1-1.5 1-2.2 0-8.4 5.9-9.1 8.6-.7 2.6-2.4 3.3-2.4.9 0-2.6-6.1-8.4-10-9.6-10.9-3.3-21.7 6.4-19.6 17.5 1.5 7.8 10.2 13.7 18 12.2 4.3-.8 10.4-5.8 11.2-9.2.8-3.1 2-3.1 2.8 0 .8 3.4 6.9 8.4 11.2 9.2 11.1 2.1 20.8-8.7 17.5-19.6-1.2-3.9-7-10-9.6-10-2.4 0-1.7-1.7.9-2.4 3.4-.8 8.4-6.9 9.2-11.2.4-2 .1-5.3-.5-7.4-1.2-3.9-7-10-9.6-10-.8 0-1.5-.5-1.5-1 0-.6.7-1 1.5-1 2.2 0 8.4-5.9 9.1-8.6.3-1.3 1-2.4 1.4-2.4.4 0 1.1 1.1 1.4 2.4.8 3.4 6.9 8.4 11.2 9.2 11.1 2.1 20.8-8.7 17.5-19.6-1.2-3.9-7-10-9.6-10-.8 0-1.5-.5-1.5-1 0-.6.7-1 1.5-1 2.2 0 8.4-5.9 9.1-8.6.8-3.1 2-3.1 2.8 0 .8 3.4 6.9 8.4 11.2 9.2 7.8 1.5 16.5-4.4 18-12.2 2.1-11.1-8.7-20.8-19.6-17.5-3.9 1.2-10 7-10 9.6 0 .8-.4 1.5-1 1.5-.5 0-1-.7-1-1.5 0-2.6-6.1-8.4-10-9.6-2.1-.6-5.4-.9-7.4-.5-4.3.8-10.4 5.8-11.2 9.2-.7 2.6-2.4 3.3-2.4.9 0-2.2-5.9-8.4-8.6-9.1-1.3-.3-2.4-1-2.4-1.4 0-.4 1.1-1.1 2.4-1.4 3.4-.8 8.4-6.9 9.2-11.2.4-2 .1-5.3-.5-7.4-1.2-3.9-7-10-9.6-10-2.4 0-1.7-1.7.9-2.4 3.4-.8 8.4-6.9 9.2-11.2 1.5-7.8-4.4-16.5-12.2-18-11.1-2.1-20.8 8.7-17.5 19.6 1.2 3.9 7 10 9.6 10 .8 0 1.5.4 1.5 1 0 .5-.7 1-1.5 1-2.6 0-8.4 6.1-9.6 10-.6 2.1-.9 5.4-.5 7.4.8 4.3 5.8 10.4 9.2 11.2 3.1.8 3.1 2 0 2.8-2.7.7-8.6 6.9-8.6 9.1 0 .8-.4 1.5-1 1.5-.5 0-1-.7-1-1.5 0-2.6-6.1-8.4-10-9.6-2.1-.6-5.4-.9-7.4-.5-4.3.8-10.4 5.8-11.2 9.2-.7 2.6-2.4 3.3-2.4.9 0-2.2-5.9-8.4-8.6-9.1-1.3-.3-2.4-1-2.4-1.4 0-.4 1.1-1.1 2.4-1.4 3.4-.8 8.4-6.9 9.2-11.2.4-2 .1-5.3-.5-7.4-1.2-3.9-7-10-9.6-10-.8 0-1.5-.5-1.5-1 0-.6.7-1 1.5-1 2.6 0 8.4-6.1 9.6-10 .6-2.1.9-5.4.5-7.4-.8-4.3-5.8-10.4-9.2-11.2-2.6-.7-3.3-2.4-.9-2.4 2.2 0 8.4-5.9 9.1-8.6.3-1.3 1-2.4 1.4-2.4.4 0 1.1 1.1 1.4 2.4.8 3.4 6.9 8.4 11.2 9.2 11.1 2.1 20.8-8.7 17.5-19.6-1.2-3.9-7-10-9.6-10-2.4 0-1.7-1.7.9-2.4 3.4-.8 8.4-6.9 9.2-11.2.4-2 .1-5.3-.5-7.4-1.2-3.9-7-10-9.6-10-.8 0-1.5-.5-1.5-1 0-.6.7-1 1.5-1 2.6 0 8.4-6.1 9.6-10 3.7-12.4-8.9-23.7-20.6-18.6zm-8.5 50.1c0 2.2 5.9 8.4 8.6 9.1 2.6.7 3.3 2.4.9 2.4-2.2 0-8.4 5.9-9.1 8.6-.8 3.1-2 3.1-2.8 0-.7-2.7-6.9-8.6-9.1-8.6-.8 0-1.5-.5-1.5-1 0-.6.7-1 1.5-1 2.2 0 8.4-5.9 9.1-8.6.7-2.6 2.4-3.3 2.4-.9zm-123.6 31.9c.8 3.4 6.9 8.4 11.2 9.2 2 .4 5.3.1 7.4-.5 3.9-1.2 10-7 10-9.6 0-.8.5-1.5 1-1.5.6 0 1 .7 1 1.5 0 2.6 6.1 8.4 10 9.6 2.1.6 5.4.9 7.4.5 4.3-.8 10.4-5.8 11.2-9.2.7-2.6 2.4-3.3 2.4-.9 0 2.6 6.1 8.4 10 9.6 2.1.6 5.4.9 7.4.5 4.3-.8 10.4-5.8 11.2-9.2.8-3.1 2-3.1 2.8 0 .7 2.7 6.9 8.6 9.1 8.6.8 0 1.5.4 1.5 1 0 .5-.7 1-1.5 1-2.6 0-8.4 6.1-9.6 10-.6 2.1-.9 5.4-.5 7.4.8 4.3 5.8 10.4 9.2 11.2 3.1.8 3.1 2 0 2.8-3.4.8-8.4 6.9-9.2 11.2-.4 2-.1 5.3.5 7.4 1.2 3.9 7 10 9.6 10 .8 0 1.5.4 1.5 1 0 .5-.7 1-1.5 1-2.6 0-8.4 6.1-9.6 10-.6 2.1-.9 5.4-.5 7.4.8 4.3 5.8 10.4 9.2 11.2 2.6.7 3.3 2.4.9 2.4-2.2 0-8.4 5.9-9.1 8.6-.8 3.1-2 3.1-2.8 0-.8-3.4-6.9-8.4-11.2-9.2-2-.4-5.3-.1-7.4.5-3.9 1.2-10 7-10 9.6 0 2.4-1.7 1.7-2.4-.9-.8-3.4-6.9-8.4-11.2-9.2-2-.4-5.3-.1-7.4.5-3.9 1.2-10 7-10 9.6 0 2.4-1.7 1.7-2.4-.9-.8-3.4-6.9-8.4-11.2-9.2-2-.4-5.3-.1-7.4.5-3.9 1.2-10 7-10 9.6 0 .8-.4 1.5-1 1.5-.5 0-1-.7-1-1.5 0-2.2-5.9-8.4-8.6-9.1-1.3-.3-2.4-1-2.4-1.4 0-.4 1.1-1.1 2.4-1.4 3.4-.8 8.4-6.9 9.2-11.2.4-2 .1-5.3-.5-7.4-1.2-3.9-7-10-9.6-10-.8 0-1.5-.5-1.5-1 0-.6.7-1 1.5-1 2.6 0 8.4-6.1 9.6-10 .6-2.1.9-5.4.5-7.4-.8-4.3-5.8-10.4-9.2-11.2-1.3-.3-2.4-1-2.4-1.4 0-.4 1.1-1.1 2.4-1.4 3.4-.8 8.4-6.9 9.2-11.2.4-2 .1-5.3-.5-7.4-1.2-3.9-7-10-9.6-10-.8 0-1.5-.5-1.5-1 0-.6.7-1 1.5-1 2.2 0 8.4-5.9 9.1-8.6.3-1.3 1-2.4 1.4-2.4.4 0 1.1 1.1 1.4 2.4zM807 857.5c0 2.2 5.9 8.4 8.6 9.1 2.6.7 3.3 2.4.9 2.4-2.2 0-8.4 5.9-9.1 8.6-.8 3.1-2 3.1-2.8 0-.7-2.7-6.9-8.6-9.1-8.6-.8 0-1.5-.5-1.5-1 0-.6.7-1 1.5-1 2.2 0 8.4-5.9 9.1-8.6.7-2.6 2.4-3.3 2.4-.9zm0 31c0 2.2 5.9 8.4 8.6 9.1 2.6.7 3.3 2.4.9 2.4-2.2 0-8.4 5.9-9.1 8.6-.3 1.3-1 2.4-1.4 2.4-.4 0-1.1-1.1-1.4-2.4-.7-2.7-6.9-8.6-9.1-8.6-.8 0-1.5-.5-1.5-1 0-.6.7-1 1.5-1 2.2 0 8.4-5.9 9.1-8.6.7-2.6 2.4-3.3 2.4-.9zm0 31c0 2.2 5.9 8.4 8.6 9.1 2.6.7 3.3 2.4.9 2.4-2.2 0-8.4 5.9-9.1 8.6-.3 1.3-1 2.4-1.4 2.4-.4 0-1.1-1.1-1.4-2.4-.7-2.7-6.9-8.6-9.1-8.6-.8 0-1.5-.5-1.5-1 0-.6.7-1 1.5-1 2.2 0 8.4-5.9 9.1-8.6.7-2.6 2.4-3.3 2.4-.9zm217 0c0 2.2 5.9 8.4 8.6 9.1 2.6.7 3.3 2.4.9 2.4-2.2 0-8.4 5.9-9.1 8.6-.3 1.3-1 2.4-1.4 2.4-.4 0-1.1-1.1-1.4-2.4-.7-2.7-6.9-8.6-9.1-8.6-.8 0-1.5-.5-1.5-1 0-.6.7-1 1.5-1 2.2 0 8.4-5.9 9.1-8.6.7-2.6 2.4-3.3 2.4-.9z"/><path d="M877.5 869.4c-10.2 4.4-12.4 18.1-4.1 25.4 14 12.3 33.8-6.7 21.9-20.9-4.7-5.5-11.6-7.2-17.8-4.5zM102.5 776.4c-10.2 4.4-12.4 18.1-4.1 25.4 14 12.3 33.8-6.7 21.9-20.9-4.7-5.5-11.6-7.2-17.8-4.5zM288.5 776.4c-10.2 4.4-12.4 18.1-4.1 25.4 14 12.3 33.8-6.7 21.9-20.9-4.7-5.5-11.6-7.2-17.8-4.5zM350.5 776.4c-10.2 4.4-12.4 18.1-4.1 25.4 14 12.3 33.8-6.7 21.9-20.9-4.7-5.5-11.6-7.2-17.8-4.5zM629.5 776.4c-1.7.7-4.3 2.8-5.8 4.5-9.5 11.4 2 28.5 16.3 24.2 3.9-1.2 10-7 10-9.6 0-.8.5-1.5 1-1.5.6 0 1 .7 1 1.5 0 2.2 5.9 8.4 8.6 9.1 2.6.7 3.3 2.4.9 2.4-2.6 0-8.4 6.1-9.6 10-.6 2.1-.9 5.4-.5 7.4.8 4.3 5.8 10.4 9.2 11.2 2.6.7 3.3 2.4.9 2.4-2.2 0-8.4 5.9-9.1 8.6-.3 1.3-1 2.4-1.4 2.4-.4 0-1.1-1.1-1.4-2.4-.8-3.4-6.9-8.4-11.2-9.2-11.1-2.1-20.8 8.7-17.5 19.6 1.2 3.9 7 10 9.6 10 2.4 0 1.7 1.7-.9 2.4-3.4.8-8.4 6.9-9.2 11.2-.4 2-.1 5.3.5 7.4 1.2 3.9 7 10 9.6 10 .8 0 1.5.4 1.5 1 0 .5-.7 1-1.5 1-2.2 0-8.4 5.9-9.1 8.6-.7 2.6-2.4 3.3-2.4.9 0-2.6-6.1-8.4-10-9.6-10.9-3.3-21.7 6.4-19.6 17.5 1.5 7.8 10.2 13.7 18 12.2 4.3-.8 10.4-5.8 11.2-9.2.7-2.6 2.4-3.3 2.4-.9 0 2.2 5.9 8.4 8.6 9.1 1.3.3 2.4 1 2.4 1.4 0 .4-1.1 1.1-2.4 1.4-3.4.8-8.4 6.9-9.2 11.2-2.1 11.1 8.7 20.8 19.6 17.5 3.9-1.2 10-7 10-9.6 0-2.4 1.7-1.7 2.4.9.7 2.7 6.9 8.6 9.1 8.6 2.4 0 1.7 1.7-.9 2.4-3.4.8-8.4 6.9-9.2 11.2-.4 2-.1 5.3.5 7.4 1.2 3.9 7 10 9.6 10 .8 0 1.5.4 1.5 1 0 .5-.7 1-1.5 1-2.2 0-8.4 5.9-9.1 8.6-.8 3.1-2 3.1-2.8 0-.8-3.4-6.9-8.4-11.2-9.2-11.1-2.1-20.8 8.7-17.5 19.6 1.2 3.9 7 10 9.6 10 .8 0 1.5.4 1.5 1 0 .5-.7 1-1.5 1-2.2 0-8.4 5.9-9.1 8.6-.7 2.6-2.4 3.3-2.4.9 0-2.6-6.1-8.4-10-9.6-10.9-3.3-21.7 6.4-19.6 17.5 1.5 7.8 10.2 13.7 18 12.2 4.3-.8 10.4-5.8 11.2-9.2.8-3.1 2-3.1 2.8 0 .8 3.4 6.9 8.4 11.2 9.2 11.1 2.1 20.8-8.7 17.5-19.6-1.2-3.9-7-10-9.6-10-.8 0-1.5-.5-1.5-1 0-.6.7-1 1.5-1 2.2 0 8.4-5.9 9.1-8.6.8-3.1 2-3.1 2.8 0 .8 3.4 6.9 8.4 11.2 9.2 11.1 2.1 20.8-8.7 17.5-19.6-1.2-3.9-7-10-9.6-10-2.4 0-1.7-1.7.9-2.4 3.4-.8 8.4-6.9 9.2-11.2.4-2 .1-5.3-.5-7.4-1.2-3.9-7-10-9.6-10-.8 0-1.5-.5-1.5-1 0-.6.7-1 1.5-1 2.2 0 8.4-5.9 9.1-8.6.7-2.6 2.4-3.3 2.4-.9 0 2.6 6.1 8.4 10 9.6 10.9 3.3 21.7-6.4 19.6-17.5-.8-4.3-5.8-10.4-9.2-11.2-3.1-.8-3.1-2 0-2.8 3.4-.8 8.4-6.9 9.2-11.2.4-2 .1-5.3-.5-7.4-1.2-3.9-7-10-9.6-10-2.4 0-1.7-1.7.9-2.4 2.7-.7 8.6-6.9 8.6-9.1 0-.8.5-1.5 1-1.5.6 0 1 .7 1 1.5 0 2.6 6.1 8.4 10 9.6 10.9 3.3 21.7-6.4 19.6-17.5-.8-4.3-5.8-10.4-9.2-11.2-3.1-.8-3.1-2 0-2.8 3.4-.8 8.4-6.9 9.2-11.2 2.1-11.1-8.7-20.8-19.6-17.5-3.9 1.2-10 7-10 9.6 0 2.4-1.7 1.7-2.4-.9-.7-2.7-6.9-8.6-9.1-8.6-2.4 0-1.7-1.7.9-2.4 3.4-.8 8.4-6.9 9.2-11.2 2.1-11.1-8.7-20.8-19.6-17.5-3.9 1.2-10 7-10 9.6 0 2.4-1.7 1.7-2.4-.9-.7-2.7-6.9-8.6-9.1-8.6-2.4 0-1.7-1.7.9-2.4 3.4-.8 8.4-6.9 9.2-11.2 2.1-11.1-8.7-20.8-19.6-17.5-3.9 1.2-10 7-10 9.6 0 .8-.4 1.5-1 1.5-.5 0-1-.6-1-1.4 0-2.3-5.1-7.8-8.7-9.2-4-1.7-7.9-1.7-11.8 0zm53.5 50.1c0 2.2 5.9 8.4 8.6 9.1 2.6.7 3.3 2.4.9 2.4-2.2 0-8.4 5.9-9.1 8.6-.8 3.1-2 3.1-2.8 0-.7-2.7-6.9-8.6-9.1-8.6-.8 0-1.5-.5-1.5-1 0-.6.7-1 1.5-1 2.2 0 8.4-5.9 9.1-8.6.7-2.6 2.4-3.3 2.4-.9zm-31 31c0 2.2 5.9 8.4 8.6 9.1 2.6.7 3.3 2.4.9 2.4-2.2 0-8.4 5.9-9.1 8.6-.8 3.1-2 3.1-2.8 0-.7-2.7-6.9-8.6-9.1-8.6-.8 0-1.5-.5-1.5-1 0-.6.7-1 1.5-1 2.2 0 8.4-5.9 9.1-8.6.7-2.6 2.4-3.3 2.4-.9zm31 0c0 2.2 5.9 8.4 8.6 9.1 2.6.7 3.3 2.4.9 2.4-2.2 0-8.4 5.9-9.1 8.6-.8 3.1-2 3.1-2.8 0-.7-2.7-6.9-8.6-9.1-8.6-.8 0-1.5-.5-1.5-1 0-.6.7-1 1.5-1 2.2 0 8.4-5.9 9.1-8.6.7-2.6 2.4-3.3 2.4-.9zm31 0c0 2.2 5.9 8.4 8.6 9.1 2.6.7 3.3 2.4.9 2.4-2.2 0-8.4 5.9-9.1 8.6-.8 3.1-2 3.1-2.8 0-.7-2.7-6.9-8.6-9.1-8.6-.8 0-1.5-.5-1.5-1 0-.6.7-1 1.5-1 2.2 0 8.4-5.9 9.1-8.6.7-2.6 2.4-3.3 2.4-.9zm-62 31c0 2.2 5.9 8.4 8.6 9.1 2.6.7 3.3 2.4.9 2.4-2.2 0-8.4 5.9-9.1 8.6-.3 1.3-1 2.4-1.4 2.4-.4 0-1.1-1.1-1.4-2.4-.7-2.7-6.9-8.6-9.1-8.6-.8 0-1.5-.5-1.5-1 0-.6.7-1 1.5-1 2.2 0 8.4-5.9 9.1-8.6.7-2.6 2.4-3.3 2.4-.9zm31 0c0 2.2 5.9 8.4 8.6 9.1 2.6.7 3.3 2.4.9 2.4-2.2 0-8.4 5.9-9.1 8.6-.3 1.3-1 2.4-1.4 2.4-.4 0-1.1-1.1-1.4-2.4-.7-2.7-6.9-8.6-9.1-8.6-.8 0-1.5-.5-1.5-1 0-.6.7-1 1.5-1 2.2 0 8.4-5.9 9.1-8.6.7-2.6 2.4-3.3 2.4-.9zm-31 31c0 2.2 5.9 8.4 8.6 9.1 2.6.7 3.3 2.4.9 2.4-2.2 0-8.4 5.9-9.1 8.6-.3 1.3-1 2.4-1.4 2.4-.4 0-1.1-1.1-1.4-2.4-.7-2.7-6.9-8.6-9.1-8.6-.8 0-1.5-.5-1.5-1 0-.6.7-1 1.5-1 2.2 0 8.4-5.9 9.1-8.6.7-2.6 2.4-3.3 2.4-.9zm31 0c0 2.2 5.9 8.4 8.6 9.1 2.6.7 3.3 2.4.9 2.4-2.2 0-8.4 5.9-9.1 8.6-.3 1.3-1 2.4-1.4 2.4-.4 0-1.1-1.1-1.4-2.4-.7-2.7-6.9-8.6-9.1-8.6-.8 0-1.5-.5-1.5-1 0-.6.7-1 1.5-1 2.2 0 8.4-5.9 9.1-8.6.7-2.6 2.4-3.3 2.4-.9zM71.5 807.4c-10.2 4.4-12.4 18.1-4.1 25.4 14 12.3 33.8-6.7 21.9-20.9-4.7-5.5-11.6-7.2-17.8-4.5zM319.5 807.4c-7 3-10.8 11.3-8.6 18.6 1.2 3.9 7 10 9.6 10 .8 0 1.5.4 1.5 1 0 .5-.7 1-1.5 1-2.6 0-8.4 6.1-9.6 10-.6 2.1-.9 5.4-.5 7.4.8 4.3 5.8 10.4 9.2 11.2 2.6.7 3.3 2.4.9 2.4-2.6 0-8.4 6.1-9.6 10-3.3 10.9 6.4 21.7 17.5 19.6 4.3-.8 10.4-5.8 11.2-9.2.8-3.1 2-3.1 2.8 0 .8 3.4 6.9 8.4 11.2 9.2 7.8 1.5 16.5-4.4 18-12.2 2.1-11.1-8.7-20.8-19.6-17.5-3.9 1.2-10 7-10 9.6 0 2.4-1.7 1.7-2.4-.9-.7-2.7-6.9-8.6-9.1-8.6-2.4 0-1.7-1.7.9-2.4 3.4-.8 8.4-6.9 9.2-11.2.4-2 .1-5.3-.5-7.4-1.2-3.9-7-10-9.6-10-.8 0-1.5-.5-1.5-1 0-.6.7-1 1.5-1 2.6 0 8.4-6.1 9.6-10 3.7-12.4-8.9-23.7-20.6-18.6zM381.5 807.4c-7 3-10.8 11.3-8.6 18.6 1.2 3.9 7 10 9.6 10 2.4 0 1.7 1.7-.9 2.4-3.4.8-8.4 6.9-9.2 11.2-2.1 11.1 8.7 20.8 19.6 17.5 3.9-1.2 10-7 10-9.6 0-.8.5-1.5 1-1.5.6 0 1 .7 1 1.5 0 2.6 6.1 8.4 10 9.6 2.1.6 5.4.9 7.4.5 4.3-.8 10.4-5.8 11.2-9.2.3-1.3 1-2.4 1.4-2.4.4 0 1.1 1.1 1.4 2.4.7 2.7 6.9 8.6 9.1 8.6 2.4 0 1.7 1.7-.9 2.4-3.4.8-8.4 6.9-9.2 11.2-2.1 11.1 8.7 20.8 19.6 17.5 3.9-1.2 10-7 10-9.6 0-2.4 1.7-1.7 2.4.9.8 3.4 6.9 8.4 11.2 9.2 11.1 2.1 20.8-8.7 17.5-19.6-1.2-3.9-7-10-9.6-10-2.4 0-1.7-1.7.9-2.4 3.4-.8 8.4-6.9 9.2-11.2 2.1-11.1-8.7-20.8-19.6-17.5-3.9 1.2-10 7-10 9.6 0 .8-.4 1.5-1 1.5-.5 0-1-.7-1-1.5 0-2.6-6.1-8.4-10-9.6-2.1-.6-5.4-.9-7.4-.5-4.3.8-10.4 5.8-11.2 9.2-.8 3.1-2 3.1-2.8 0-.7-2.7-6.9-8.6-9.1-8.6-2.4 0-1.7-1.7.9-2.4 3.4-.8 8.4-6.9 9.2-11.2 2.1-11.1-8.7-20.8-19.6-17.5-3.9 1.2-10 7-10 9.6 0 .8-.4 1.5-1 1.5-.5 0-1-.6-1-1.4 0-2.3-5.1-7.8-8.7-9.2-4-1.7-7.9-1.7-11.8 0zm22.5 19.1c0 2.2 5.9 8.4 8.6 9.1 2.6.7 3.3 2.4.9 2.4-2.2 0-8.4 5.9-9.1 8.6-.8 3.1-2 3.1-2.8 0-.7-2.7-6.9-8.6-9.1-8.6-.8 0-1.5-.5-1.5-1 0-.6.7-1 1.5-1 2.2 0 8.4-5.9 9.1-8.6.7-2.6 2.4-3.3 2.4-.9zm62 31c0 2.2 5.9 8.4 8.6 9.1 2.6.7 3.3 2.4.9 2.4-2.2 0-8.4 5.9-9.1 8.6-.8 3.1-2 3.1-2.8 0-.7-2.7-6.9-8.6-9.1-8.6-.8 0-1.5-.5-1.5-1 0-.6.7-1 1.5-1 2.2 0 8.4-5.9 9.1-8.6.7-2.6 2.4-3.3 2.4-.9zM123.8 869c-30 5.3-54.1 28.6-60.2 58.2-2.2 10.8-2.3 86.8-.2 98.2 5.2 26.8 24.9 48.1 52.6 56.8 7.4 2.3 8 2.3 54.5 2.3s47.1 0 54.5-2.3c27.7-8.7 47.4-30 52.6-56.8 2-10.9 2-86.9 0-97.8-2.9-15.1-10.7-28.9-22.5-39.9-7.8-7.2-16.2-12.1-27.6-16l-9-3.2-45-.2c-24.7-.1-47.1.2-49.7.7zm98.4 35.3c8.5 4.2 16.1 11.6 20 19.5l3.3 6.7v92l-2.6 5.6c-4.8 10.2-13.9 18.3-24.6 22-5.2 1.8-8.7 1.9-47.9 1.9-40.8 0-42.5-.1-48.1-2.1-11-4.1-19.4-11.7-24.2-21.8l-2.6-5.6v-92l2.6-5.6c4.7-9.9 13.8-18.2 24.2-22 4.8-1.7 8.3-1.9 49.7-1.6l44.5.2 5.7 2.8z"/><path d="M141.8 931.3c-6.2 2-12.3 7-14.9 12.3-2.4 4.8-2.4 5.4-2.4 32.9s0 28.1 2.4 32.9c2.5 5 8.4 10 14.4 12.3 2.1.8 11.9 1.2 28.8 1.2 29.6.1 32.2-.4 39.3-7.5 7.1-7 7.6-9.8 7.6-38.9 0-29.2-.6-32.2-7.7-39.1-7-6.9-9.9-7.4-38.7-7.3-16.2 0-26.4.5-28.8 1.2zM412.5 900.4c-7 3-10.8 11.3-8.6 18.6 1.2 3.9 7 10 9.6 10 2.4 0 1.7 1.7-.9 2.4-2.7.7-8.6 6.9-8.6 9.1 0 .8-.4 1.5-1 1.5-.5 0-1-.7-1-1.5 0-2.6-6.1-8.4-10-9.6-2.1-.6-5.4-.9-7.4-.5-4.3.8-10.4 5.8-11.2 9.2-.8 3.1-2 3.1-2.8 0-.8-3.4-6.9-8.4-11.2-9.2-11.1-2.1-20.8 8.7-17.5 19.6 1.2 3.9 7 10 9.6 10 .8 0 1.5.4 1.5 1 0 .5-.7 1-1.5 1-2.2 0-8.4 5.9-9.1 8.6-.7 2.6-2.4 3.3-2.4.9 0-2.6-6.1-8.4-10-9.6-10.9-3.3-21.7 6.4-19.6 17.5.8 4.3 5.8 10.4 9.2 11.2 3.1.8 3.1 2 0 2.8-3.4.8-8.4 6.9-9.2 11.2-2.1 11.1 8.7 20.8 19.6 17.5 3.9-1.2 10-7 10-9.6 0-.8.5-1.5 1-1.5.6 0 1 .7 1 1.5 0 2.6 6.1 8.4 10 9.6 2.1.6 5.4.9 7.4.5 4.3-.8 10.4-5.8 11.2-9.2.8-3.1 2-3.1 2.8 0 .8 3.4 6.9 8.4 11.2 9.2 2 .4 5.3.1 7.4-.5 3.9-1.2 10-7 10-9.6 0-2.4 1.7-1.7 2.4.9.8 3.4 6.9 8.4 11.2 9.2 7.8 1.5 16.5-4.4 18-12.2 2.1-11.1-8.7-20.8-19.6-17.5-3.9 1.2-10 7-10 9.6 0 .8-.4 1.5-1 1.5-.5 0-1-.7-1-1.5 0-2.2-5.9-8.4-8.6-9.1-3.1-.8-3.1-2 0-2.8 3.4-.8 8.4-6.9 9.2-11.2.4-2 .1-5.3-.5-7.4-1.2-3.9-7-10-9.6-10-2.4 0-1.7-1.7.9-2.4 2.7-.7 8.6-6.9 8.6-9.1 0-2.4 1.7-1.7 2.4.9.8 3.4 6.9 8.4 11.2 9.2 11.1 2.1 20.8-8.7 17.5-19.6-1.2-3.9-7-10-9.6-10-.8 0-1.5-.5-1.5-1 0-.6.7-1 1.5-1 2.6 0 8.4-6.1 9.6-10 3.7-12.4-8.9-23.7-20.6-18.6zM373 950.5c0 2.2 5.9 8.4 8.6 9.1 2.6.7 3.3 2.4.9 2.4-2.2 0-8.4 5.9-9.1 8.6-.3 1.3-1 2.4-1.4 2.4-.4 0-1.1-1.1-1.4-2.4-.7-2.7-6.9-8.6-9.1-8.6-.8 0-1.5-.5-1.5-1 0-.6.7-1 1.5-1 2.2 0 8.4-5.9 9.1-8.6.7-2.6 2.4-3.3 2.4-.9zm-31 31c0 2.2 5.9 8.4 8.6 9.1 2.6.7 3.3 2.4.9 2.4-2.2 0-8.4 5.9-9.1 8.6-.3 1.3-1 2.4-1.4 2.4-.4 0-1.1-1.1-1.4-2.4-.7-2.7-6.9-8.6-9.1-8.6-.8 0-1.5-.5-1.5-1 0-.6.7-1 1.5-1 2.2 0 8.4-5.9 9.1-8.6.7-2.6 2.4-3.3 2.4-.9zm31 0c0 2.2 5.9 8.4 8.6 9.1 2.6.7 3.3 2.4.9 2.4-2.2 0-8.4 5.9-9.1 8.6-.3 1.3-1 2.4-1.4 2.4-.4 0-1.1-1.1-1.4-2.4-.7-2.7-6.9-8.6-9.1-8.6-.8 0-1.5-.5-1.5-1 0-.6.7-1 1.5-1 2.2 0 8.4-5.9 9.1-8.6.7-2.6 2.4-3.3 2.4-.9zM505.5 900.4c-10.2 4.4-12.4 18.1-4.1 25.4 14 12.3 33.8-6.7 21.9-20.9-4.7-5.5-11.6-7.2-17.8-4.5zM567.5 962.4c-7 3-10.8 11.3-8.6 18.6 1.2 3.9 7 10 9.6 10 2.4 0 1.7 1.7-.9 2.4-2.7.7-8.6 6.9-8.6 9.1 0 .8-.4 1.5-1 1.5-.5 0-1-.7-1-1.5 0-2.6-6.1-8.4-10-9.6-10.9-3.3-21.7 6.4-19.6 17.5 1.5 7.8 10.2 13.7 18 12.2 4.3-.8 10.4-5.8 11.2-9.2.8-3.1 2-3.1 2.8 0 .8 3.4 6.9 8.4 11.2 9.2 11.1 2.1 20.8-8.7 17.5-19.6-1.2-3.9-7-10-9.6-10-.8 0-1.5-.5-1.5-1 0-.6.7-1 1.5-1 2.2 0 8.4-5.9 9.1-8.6.8-3.1 2-3.1 2.8 0 .8 3.4 6.9 8.4 11.2 9.2 7.8 1.5 16.5-4.4 18-12.2 2.1-11.1-8.7-20.8-19.6-17.5-3.9 1.2-10 7-10 9.6 0 .8-.4 1.5-1 1.5-.5 0-1-.6-1-1.4 0-2.3-5.1-7.8-8.7-9.2-4-1.7-7.9-1.7-11.8 0zM474.5 993.4c-10.2 4.4-12.4 18.1-4.1 25.4 14 12.3 33.8-6.7 21.9-20.9-4.7-5.5-11.6-7.2-17.8-4.5zM784.5 993.4c-7 3-10.8 11.3-8.6 18.6 1.2 3.9 7 10 9.6 10 .8 0 1.5.4 1.5 1 0 .5-.7 1-1.5 1-2.6 0-8.4 6.1-9.6 10-.6 2.1-.9 5.4-.5 7.4.8 4.3 5.8 10.4 9.2 11.2 2.6.7 3.3 2.4.9 2.4-2.6 0-8.4 6.1-9.6 10-3.3 10.9 6.4 21.7 17.5 19.6 7.8-1.5 13.7-10.2 12.2-18-.8-4.3-5.8-10.4-9.2-11.2-1.3-.3-2.4-1-2.4-1.4 0-.4 1.1-1.1 2.4-1.4 2.7-.7 8.6-6.9 8.6-9.1 0-.8.5-1.5 1-1.5.6 0 1 .7 1 1.5 0 2.6 6.1 8.4 10 9.6 10.9 3.3 21.7-6.4 19.6-17.5-1.5-7.8-10.2-13.7-18-12.2-4.3.8-10.4 5.8-11.2 9.2-.8 3.1-2 3.1-2.8 0-.7-2.7-6.9-8.6-9.1-8.6-.8 0-1.5-.5-1.5-1 0-.6.7-1 1.5-1 2.6 0 8.4-6.1 9.6-10 3.7-12.4-8.9-23.7-20.6-18.6zM846.5 993.4c-1.7.7-4.3 2.8-5.8 4.5-9.5 11.4 2 28.5 16.3 24.2 3.9-1.2 10-7 10-9.6 0-.8.5-1.5 1-1.5.6 0 1 .7 1 1.5 0 2.2 5.9 8.4 8.6 9.1 2.6.7 3.3 2.4.9 2.4-2.6 0-8.4 6.1-9.6 10-.6 2.1-.9 5.4-.5 7.4.8 4.3 5.8 10.4 9.2 11.2 2.6.7 3.3 2.4.9 2.4-2.6 0-8.4 6.1-9.6 10-3.3 10.9 6.4 21.7 17.5 19.6 4.3-.8 10.4-5.8 11.2-9.2.8-3.1 2-3.1 2.8 0 .8 3.4 6.9 8.4 11.2 9.2 2 .4 5.3.1 7.4-.5 3.9-1.2 10-7 10-9.6 0-.8.5-1.5 1-1.5.6 0 1 .7 1 1.5 0 2.6 6.1 8.4 10 9.6 2.1.6 5.4.9 7.4.5 4.3-.8 10.4-5.8 11.2-9.2.7-2.6 2.4-3.3 2.4-.9 0 2.6 6.1 8.4 10 9.6 2.1.6 5.4.9 7.4.5 4.3-.8 10.4-5.8 11.2-9.2.8-3.1 2-3.1 2.8 0 .8 3.4 6.9 8.4 11.2 9.2 7.8 1.5 16.5-4.4 18-12.2 2.1-11.1-8.7-20.8-19.6-17.5-3.9 1.2-10 7-10 9.6 0 2.4-1.7 1.7-2.4-.9-.8-3.4-6.9-8.4-11.2-9.2-2-.4-5.3-.1-7.4.5-3.9 1.2-10 7-10 9.6 0 2.4-1.7 1.7-2.4-.9-.8-3.4-6.9-8.4-11.2-9.2-2-.4-5.3-.1-7.4.5-3.9 1.2-10 7-10 9.6 0 .8-.4 1.5-1 1.5-.5 0-1-.7-1-1.5 0-2.6-6.1-8.4-10-9.6-2.1-.6-5.4-.9-7.4-.5-4.3.8-10.4 5.8-11.2 9.2-.8 3.1-2 3.1-2.8 0-.7-2.7-6.9-8.6-9.1-8.6-.8 0-1.5-.5-1.5-1 0-.6.7-1 1.5-1 2.6 0 8.4-6.1 9.6-10 .6-2.1.9-5.4.5-7.4-.8-4.3-5.8-10.4-9.2-11.2-3.1-.8-3.1-2 0-2.8 3.4-.8 8.4-6.9 9.2-11.2 2.1-11.1-8.7-20.8-19.6-17.5-3.9 1.2-10 7-10 9.6 0 .8-.4 1.5-1 1.5-.5 0-1-.6-1-1.4 0-2.3-5.1-7.8-8.7-9.2-4-1.7-7.9-1.7-11.8 0zM443.5 1024.4c-10.2 4.4-12.4 18.1-4.1 25.4 14 12.3 33.8-6.7 21.9-20.9-4.7-5.5-11.6-7.2-17.8-4.5zM505.5 1024.4c-10.2 4.4-12.4 18.1-4.1 25.4 14 12.3 33.8-6.7 21.9-20.9-4.7-5.5-11.6-7.2-17.8-4.5zM691.5 1024.4c-7 3-10.8 11.3-8.6 18.6 1.2 3.9 7 10 9.6 10 2.4 0 1.7 1.7-.9 2.4-3.4.8-8.4 6.9-9.2 11.2-1.5 7.8 4.4 16.5 12.2 18 11.1 2.1 20.8-8.7 17.5-19.6-1.2-3.9-7-10-9.6-10-.8 0-1.5-.5-1.5-1 0-.6.7-1 1.5-1 2.2 0 8.4-5.9 9.1-8.6.8-3.1 2-3.1 2.8 0 .8 3.4 6.9 8.4 11.2 9.2 7.8 1.5 16.5-4.4 18-12.2 2.1-11.1-8.7-20.8-19.6-17.5-3.9 1.2-10 7-10 9.6 0 .8-.4 1.5-1 1.5-.5 0-1-.6-1-1.4 0-2.3-5.1-7.8-8.7-9.2-4-1.7-7.9-1.7-11.8 0zM1063.5 1024.4c-10.2 4.4-12.4 18.1-4.1 25.4 14 12.3 33.8-6.7 21.9-20.9-4.7-5.5-11.6-7.2-17.8-4.5zM381.5 1055.4c-10.2 4.4-12.4 18.1-4.1 25.4 14 12.3 33.8-6.7 21.9-20.9-4.7-5.5-11.6-7.2-17.8-4.5zM474.5 1055.4c-10.2 4.4-12.4 18.1-4.1 25.4 14 12.3 33.8-6.7 21.9-20.9-4.7-5.5-11.6-7.2-17.8-4.5zM536.5 1055.4c-10.2 4.4-12.4 18.1-4.1 25.4 14 12.3 33.8-6.7 21.9-20.9-4.7-5.5-11.6-7.2-17.8-4.5z"/></svg>