<svg xmlns="http://www.w3.org/2000/svg" width="300" height="300">
  <path fill="#fff" fill-rule="evenodd" stroke="#fff" stroke-linecap="round" stroke-linejoin="round" stroke-width="5" d="m29.203 249.578 1.219.14 1.172.235 1.14.344 1.063.469.969.562.953.672.453.39.36.298.671.718.625.735.594.797.5.828.453.812.39.875.297.89.094.423.11.546.125 1v1.079l-.282.921-.422.782-.656.578-.625.375-.093.031.843.531.719.86.469 1.015.125.938.031.547-.031.5-.157.765-.234.797-.344.828-.406.782-.422.718-.484.766-.578.766-.313.359-.406.453-.86.86-.968.75-1.047.593-1.172.485-1.281.328-1.344.234-1.5.188-.875.078-.781.047-1.422.062-1.344-.015-1.265-.094-1.172-.219-1.063-.297-1.047-.437-.968-.547-.453-.313-.61-.453-1.172-.937-1.125-1-.953-.97-.36-.437-.234-.265-.421-.719-.485-.953-.578-1.5-.484-1.578-.172-.797-.094-.5-.078-.953-.031-.985.03-1.046.095-1.063.14-1.063.203-1.015.235-1 .328-1 .453-1.031.547-1 .625-.938.687-.86.75-.827.829-.766.875-.672.5-.297.484-.281.984-.484 1.078-.422 1.125-.344 1.157-.281 1.218-.235 1.22-.14 1.218-.094h1.344Zm-1.594 17.61.063-.063.297-.266.093-.125.344-.515.594-.672.719-.625.812-.516.86-.375.109-.031-.063-.016-.875-.39-.828-.5-.765-.64-.547-.688-.297-.407-.11-.171-.046-.063-.282-.266-.093-.078-.282-.172-.14-.078-.063-.031-.078.016-.328.078-.422.172-.218.125-.032.015-.047.125-.203.578-.047.235-.125.719-.078.625-.031.593v.422l.031.594.078.625.125.719.078.343.125.344.11.266.234.125.422.172.328.078.078.015.25-.125Zm20.22-17.657.858.14.907.298.89.578.72.781.483.875.313.938.188.968.124 1.016.094 1.188.063 2.03.031 3.485v4.344l-.031 3.469-.063 2.03-.093 1.188-.126 1.016-.187.969-.313.937-.484.875-.719.781-.89.579-.907.296-.828.125-1.078.063H45.22l-1.094-.063-.828-.125-.906-.296-.891-.579-.719-.78-.484-.876-.313-.937-.187-.969-.125-1.016-.094-1.187-.062-2.031-.016-3.47v-4.327l.016-3.5.062-2.031.094-1.188.125-1.016.187-.968.313-.938.484-.875.719-.781.89-.578.907-.297.86-.14 1.077-.032h1.532Zm18.78-.047.47.016h.437l1.015.047 1.094.187.813.375.562.375.5.5.375.563.375.812.188 1.094.046.969.016.578-.016.547-.03.984-.204 1.078-.36.829-.39.578-.5.5-.625.421-.844.329-1.031.171-.969.047-.562.016h-.406v.172l.078 1.5.046.906.063.875.094 1.297.11.875.03.125.125.016.938.125.922.187.984.313 1 .625.781.906.47 1.031.218 1.016.062.937.016.563-.016.484-.093.781-.157.782-.234.812-.375.766-.438.687-.609.672-.75.531-.469.22-.406.14-.656.172-1.047.171-1.594.188-1.703.11-.906.015-.563-.016-1-.078-.984-.156-.969-.219-.953-.328-.86-.39-.812-.485-.765-.625-.36-.375-.375-.437-.578-.938-.469-1.062-.328-1.157-.234-1.265-.156-1.422-.11-1.594-.031-1.812v-.985l-.016-1-.03-1.75-.063-1.344-.094-.78-.328-.094-.844-.516-.672-.703-.422-.75-.297-.797-.172-.828-.062-.781v-.875l.094-.829.187-.875.36-.859.468-.75.641-.703.75-.531.813-.391.39-.11.031-.015.188-.14.172-.157.187-.219.297-.437.016.016.187-.313.203-.453.047-.125h-.015l.187-.484.406-.907.485-.812.656-.828.828-.657.922-.468 1-.297.969-.094h.953l.953.063 1.016.25.78.421.548.438.61.734.437 1.078.156 1.016.062.906.016.547v.531Zm13.22.047.859.14.906.298.89.578.72.781.484.875.312.938.188.968.124 1.016.094 1.188.063 2.03.031 3.485v4.344l-.031 3.469-.063 2.03-.094 1.188-.124 1.016-.188.969-.313.937-.484.875-.719.781-.89.579-.906.296-.829.125-1.078.063H77.22l-1.094-.063-.828-.125-.906-.296-.891-.579-.719-.78-.484-.876-.313-.937-.187-.969-.125-1.016-.094-1.187-.062-2.031-.016-3.47v-4.327l.016-3.5.062-2.031.094-1.188.125-1.016.187-.968.313-.938.484-.875.719-.781.89-.578.907-.297.86-.14 1.077-.032h1.532Zm23.905.047 1.344.11.828.125.797.203.86.343.718.563.625.703.39.89.141.75.063.829v.64l-.031.594-.25 1.14-.406 1.141-.579 1.188-.734 1.234-.875 1.25-1 1.344-1.172 1.438-.64.75-1.47 1.687h.5l1.563.016 1.313.093.969.22.78.327.673.485.609.671.375.782.188.64.156.875.031 1.22v1.374l-.063.938-.109.78-.297.876-.515.781-.704.719-.874.469-.86.296-.906.172-1.39.157-2.329.078-3.062.031h-3.797l-3.047-.031-2.344-.063-1.36-.14-.843-.157-.844-.234-.844-.422-.734-.61-.578-.796-.328-.875-.125-.766-.047-.89v-1.235l.172-1.219.39-1.234.532-1.203.719-1.25.874-1.25 1.032-1.36 1.25-1.484.719-.797 1.656-1.843-1.844-.172-1.328-.219-.828-.219-.766-.265-.766-.422-.734-.61-.547-.765-.312-.797-.156-.75-.063-.875v-1.203l.047-.844.125-.781.36-.922.609-.734.703-.594.86-.39.796-.22.86-.156 1.359-.125 2.328-.062 3.047-.016h5.531Zm20.5-.031 1.313.172 1.266.25 1.203.422 1.093.547 1.063.671 1.016.828.5.438.484.438.86.89.765.938.672 1.015.562 1.063.438 1.125.344 1.172.265 1.234.094.672.094.781.125 1.047.015.813-.078.796-.219.86-.5.906-.406.406.203.297.36.781.062 1.063-.187.984-.328.89-.22.454-.171.375-.453.703-.5.703-.594.656-.61.641-.671.594-.688.547-.75.547-.812.468-.938.422-1 .344-1.062.313-1.094.25-1.11.203-1.156.14-1.109.078h-1.11l-1.156-.093-1.187-.157-1.14-.234-1.141-.281-1.11-.36-1.047-.406-.953-.469-.453-.265-.516-.313-.874-.672-.829-.765-.75-.828-.687-.86-.625-.937-.547-1-.453-1.031-.328-1-.25-1.016-.188-1.047-.14-1.063-.094-1.078-.031-1.062.03-1.031.079-.97.094-.5.11-.577.343-1.047.437-1.031.547-1.032.656-1 .704-.937.796-.922.876-.89.484-.438.578-.484 1.078-.875 1.125-.75 1.172-.61 1.219-.437 1.281-.297 1.375-.172 1.469-.047h1.562Zm31.407.016 1.156.171 1.094.282 1.047.453.984.61.828.733.734.782.407.484.406.547.672 1.047.562 1.25.406 1.375.266 1.531.172 1.766.078 2.11.031 2.5.016 1.468v1.719l-.031 2.75-.063 1.64-.094 1-.171.875-.22.875-.421.875-.64.844-.891.625-.89.328-.829.14-.781.048-1.11-.032-.765-.078v.016l-.828-.063-1.047-.109-.719-.11-.781-.218-.813-.36-.765-.578-.641-.734-.406-.797-.281-.781-.188-.813-.14-.89-.126-1.422-.109-2.375-.047-1.453-.047-.844-.094-1.672-.125-1.312-.171-1.344-.188-1.016-.125-.515h-.016l-.156.062-.281.156-.422.344-.062.063-.032.093-.078.438-.125.969h-.015l-.125 1.562-.125 2.781-.016 1.422v1.281l-.016 2.157-.093 1.328-.094.781-.14.813-.298.796-.406.75-.656.75-.844.532-.766.265-.718.157-.735.078-1 .031h-.828l-.5-.016-.953-.062-.937-.11-.891-.156-.875-.25-.813-.375-.78-.484-.735-.766-.344-.719-.156-.562-.125-.922-.11-1.781-.062-3.281.031-3.985.047-2.172.047-1.89.11-3.063.14-1.765.094-1.063.187-.969.235-.89.359-.89.563-.829.734-.703.86-.484.827-.282.797-.156 1.11-.125.797-.063.656-.046 1.187-.047 1.063.015 1.031.157 1.016.328.797.547.187.218.703-.328.906-.344 1-.28 1-.204 1.047-.125 1.047-.078h1.203Zm20.172 6.187.453-1.25.515-1.125.578-.938.563-.671.531-.453.531-.313.563-.266.906-.234h1.188l1.125.328 1.03.61.813.859.61.922.515 1.031.47 1.172.452 1.344.235.75.687 2.296.5 1.813.422-1.375.36-1.188.64-2.03.61-1.688.593-1.406.625-1.157.578-.765.531-.532.532-.359.61-.344.78-.219.61-.062h.687l.813.094.86.265.858.516.782.906.36 1.078.046.938-.11.703-.077.422-.422 1.437-2.032 6.297-1.312 3.985-.484 1.39-.844 2.406-.75 1.985-.703 1.61-.688 1.312-.578.844-.438.5-.546.5-.657.39-.672.281-.609.094-.437.063-.75-.047-1.11-.328-.984-.641-.781-.797-.625-.937-.516-1.032-.469-1.171-.453-1.329-.234-.75-.688-2.312-.5-1.844-1.047 3.828-.5 1.813-.172.562-.343.969-.406.938-.5.875-.657.796-.797.672-1 .5-.984.188-.594.031-.515-.031-.813-.156-.812-.329-.72-.406-.671-.547-.563-.61-.468-.64-.406-.719-.172-.437-.485-1.422-1.703-5.328-.969-3.14-1.875-6.25-.89-3.063-.11-.39-.125-.845.094-.984.406-1.047.75-.828.907-.531.89-.219.766-.078h.937l.891.172.578.234.61.313.53.453.595.578.64.984.563 1.141.5 1.281.484 1.485.281.875.719 2.406.36 1.11.312-1.063.687-2.406.22-.829Zm42.828 22.594-.875-.094-.891-.219-.844-.375-.75-.469-.719-.625-.39-.468-.219.187-.766.547-.859.469-.89.39-.954.313-.953.234-1 .172-.984.078-.547.016-.5-.016-.89-.062-.907-.11-.906-.156-.828-.203-.828-.25-.813-.312-.672-.36-.406-.265-.39-.313-.516-.547-.485-.578-.422-.64-.421-.704-.328-.703-.313-.719-.234-.718-.11-.422-.125-.516-.125-.937v-.938l.11-.937.297-.985.406-.859.515-.781.625-.75.391-.39.313-.298.703-.562.812-.531.86-.516.25-.125h-.016l-.906-.125-.47-.188-.374-.14-.703-.375-.766-.594-.672-.984-.234-1.141.078-.984.25-.829.328-.734.234-.437.188-.313.39-.578.735-.922 1.14-1.172.938-.797.625-.484.36-.234.453-.282.89-.468.969-.375 1.031-.282 1.063-.156 1.062-.062h1.125l1.172.109.625.063.61.093 1.078.219 1.078.313 1.015.375.985.421.922.547.812.578.75.688.375.453.328.453.594.953.469 1.125.344 1.219.234 1.313.172 1.484.11 1.703.03 1.86.016 1.077v1.22l.016 1.874.062 1.36.125 1.078.031.094.25.062.703.281.61.328.578.422.5.5.531.719.281.922.063.922-.172.703-.234.562-.531.72-.625.515-.61.39-.656.297-.64.235-.673.187-.718.156-.375.047-.453.063Zm-9.703-20.422-.22.125-.5.312-.202.141v.016l-.485.406-.187.187-.297.329-.172.218-.266.328-.562.61-.188.156.188-.047 1.687-.437 3.235-.72.734-.155-.031-.079-.031-.062-.235-.36-.125-.171-.25-.313-.125-.11-.11-.077-.171-.094-.344-.14-.094-.032-.453-.094-.265-.03-.219-.017-.125.032Zm20.453-17.89.875.25.828.484.703.765.406.828.281.813.141.906.172 1.39.125 2.563.062 5.469.016 5.484-.016 5.188-.078 5.375-.11 2.594-.155 1.468-.141.844-.172.797-.281.734-.39.766-.641.688-.735.484-.719.265-.718.125-.75.032-.75-.094-.688-.188-.672-.296-.609-.391-.625-.594-.484-.75-.172-.437-.14-.516-.142-1.203-.093-2.36-.078-4.64.03-5.797.048-3.156.094-5.11.156-5.125.187-2.406.172-1.36.172-.843.297-.812.437-.797.657-.703.828-.485.875-.25.656-.031h.484Zm9.328 38.452-.61-.03-.843-.235-.844-.485-.734-.78-.422-.845-.266-.859-.156-.875-.156-1.438-.125-2.64-.063-5.688v-11.156l.078-5.562.11-2.61.14-1.484.14-.828.204-.813.328-.781.594-.86.984-.624 1-.266.828.047.36.062.312.078.703.25.781.516.579.672.422.75.28.766.188.765.156.89.141 1.517.172 2.593.172 5.438.094 5.234.093 5.61.016 5.593-.078 2.594-.125 1.406-.156.938-.282.844-.406.765-.672.781-.953.532-.844.187-.53.031-.329.032Zm21.906-28.703 1.219.375 1.11.578 1.03.703 1 .844.579.485.468.453.813.844.765.937.672.969.594 1.031.469 1.063.39 1.078.297 1.125.094.578.125.734.11.985.015.734-.094.86-.328.968-.64.844-.5.39.609.72.36.905.124.797v.781l-.125.688-.062.36-.14.468-.329.75-.406.719-.438.656-.5.656-.562.657-.594.609-.625.594-.344.265-.422.329-.89.53-.938.47-1 .39-1.047.313-1.078.234-1.094.156-1.14.078h-1.11l-1.109-.093-1.14-.157-1.157-.265-1.094-.281-1.078-.344-1.062-.438-.922-.437-.5-.281-.516-.329-.906-.671-.828-.766-.766-.844-.687-.906-.563-.969-.5-1.031-.422-1.125-.296-1.094-.235-1.094-.14-1.109-.094-1.063-.016-1.109.078-1.094.125-1.078.22-1.047.124-.546.156-.516.328-.922.422-.969.5-.969.532-.921.578-.86.61-.828.64-.719.328-.343.422-.391.89-.656.938-.578 1-.485 1.062-.437 1.125-.36 1.141-.28 1.14-.22.594-.078.782-.078 1.343-.094h1.266Zm.063 17.719h-4.766l-2.719.063.047.078.344.484.297.406.343.39.313.313.234.172.25.172.578.313.25.125.625.234.329.094.484.11.234.03h.125l.281-.046.313-.094.484-.203.5-.25.47-.282.452-.312.453-.39.25-.235.016.015.578-.578.781-.625Zm17.656-23.594.922.766.515.86.344.796.203.906.094.86.062.844.016.515v.625l.016.406h.078l.484.016h.375l.86.063.828.14.828.25.828.406.781.657.61.906.265.937.063.657-.063.609-.265.938-.61.906-.797.672-.844.406-.812.234-.828.14-.828.063-.469.016h-.39l-.016.172-.016 1.734.078 2.281.047 1.485.047 1.437.11 2.375h-.016l.125 1.47.047.327.53-.047.485-.03.906-.017.829.063.843.125.922.328.875.594.719.906.328 1 .063.688-.063.53-.14.657-.282.688-.328.53-.39.548-.532.5-.531.39-.531.297-.375.188-.64.219-1.235.25-1.36.187-1.406.11-.765.015-.516-.016-.875-.109-.922-.203-.89-.328-.798-.406-.828-.532-.687-.625-.625-.672-.297-.421-.328-.47-.5-1.03-.375-1.157-.281-1.234-.235-1.375-.156-1.547-.078-1.703-.047-1.875v-1.031l-.016-1.094-.03-1.922-.063-1.453-.094-.86-.016-.109-.64-.265-.641-.391-.563-.531-.453-.641-.296-.688-.188-.765v-.906l.234-.907.407-.718.437-.563.516-.531.64-.453.625-.328.61-.235.234-.078.156-.047.11-.078.078-.094.11-.172.187-.328.187-.453.125-.437.031-.172.079-.406.234-.766.281-.766.39-.75.423-.64.531-.656.766-.594 1.046-.469h1.297ZM48 239.516l.906.093.672.141.656.25.703.422.626.625.421.703.25.656.141.672.094.89.031 1.282v1.5l-.031 1.266-.094.89-.14.672-.25.656-.422.703-.626.625-.703.422-.656.25-.672.141-.89.094-1.266.031h-1.5l-1.281-.031-.89-.094-.673-.14-.656-.25-.703-.423-.625-.625-.422-.703-.25-.656-.14-.672-.094-.906-.016-1.266v-1.468l.016-1.282.093-.906.141-.672.25-.656.422-.703.625-.625.703-.422.656-.25.672-.14.906-.094 1.282-.016h1.468Zm32 0 .906.093.672.141.656.25.704.422.624.625.422.703.25.656.141.672.094.89.031 1.282v1.5l-.031 1.266-.094.89-.14.672-.25.656-.422.703-.626.625-.703.422-.656.25-.672.141-.89.094-1.266.031h-1.5l-1.281-.031-.89-.094-.673-.14-.656-.25-.703-.423-.625-.625-.422-.703-.25-.656-.14-.672-.094-.906-.016-1.266v-1.468l.016-1.282.093-.906.141-.672.25-.656.422-.703.625-.625.703-.422.656-.25.672-.14.906-.094 1.282-.016h1.468Zm145.766-117.172 1.812 3.344 1 2.015.547 1.203.438 1.14.328 1.048.25 1.047.156 1.015.078 1 .016.985-.047 1.5-.063 1.14-.078.906-.14 1.657-.235 1.547-.312 1.406-.422 1.312-.531 1.266-.657 1.188-.75 1.14-.453.594-.234.312-.703.735-.797.719-.938.765-1.703 1.266-2.922 2-3.719 2.39-4.593 2.813-5.547 3.312-6.531 3.813-3.72 2.14-25.608 14.75-19.672 11.282-1.797 1.015-3.547 1.953-3.39 1.829-3.157 1.656-2.875 1.422-2.484 1.187-2.063.875-1.203.438-.75.219-.39.062-.47.063-.953.093-1.5.031-2.03-.093-1.485-.156-.938-.172-.421-.094-.438-.094-.922-.281-1.375-.516-1.797-.828-1.25-.687-.781-.485-.422-.297-.344-.28-.703-.595-1.14-1.109-1.532-1.719-1.062-1.375-.688-.906-.312-.484-.813-1.266-3.609-6-5.422-9.234-6.625-11.36-3.562-6.14L85 156.984l-4.563-7.953-3.546-6.297-2.657-4.875-1.468-2.906-.813-1.672-.64-1.484-.516-1.313-.406-1.218-.313-1.094-.219-1.063-.125-1.015-.046-.485-.063-.953-.047-1.61.063-1.155.093-.782.188-.796.266-.797.328-.75.421-.766.735-1.11 1.219-1.562 1.562-1.89.969-1.126 1.344-1.578 4.359-5.25 8.938-10.875 6.593-8.109 2.828-3.484 4.485-5.579 2.562-3.312 1.36-1.844 1.109-1.61.875-1.405.64-1.141.516-1.172.313-.937.234-.922.172-1.156.078-1.032.078-2.187.016-1.657.016-1.562.062-2.672.14-2.266.22-2 .343-1.828.5-1.718.64-1.72.813-1.827.5-.985.313-.64.797-1.438.875-1.437.953-1.438 1-1.422 1.015-1.343 1.032-1.25 1-1.094.5-.5.5-.485 1.156-1 1.297-1 1.39-1.015 1.485-.985 1.531-.953 1.5-.875 1.453-.765.719-.36 1.125-.53 1.906-.845 1.297-.5.86-.28.874-.235.891-.203.906-.125.922-.094 1.469-.047 2.219.047 2.687.14 1.594.11 4.203.281 9.89.547 4.094.188.953.03 2.032.157 2.078.188 2.062.234 1.985.297 1.875.312 1.703.344 1.5.36.64.187.657.203 1.36.547 1.421.656 1.453.719 1.5.812 1.453.875 1.39.907 1.282.922.594.437.531.406 1.016.735 1.203.78 1.266.75 1.343.75 1.125.563 1.25.563.922.36.422.124.547.172 1.219.438 1.25.515 1.297.547 1.296.625 1.266.656 1.219.657 1.094.656.515.344.516.359 1.062.781 1.063.89 1.094.938 1.062.985 1.031 1.015.953 1 .86.953.406.5.36.5.75 1 1.14 1.672 1.438 2.36.953 1.734.562 1.11.219.484.328.703.531 1.438.422 1.5.344 1.593.25 1.719.172 1.906.094 2.125.046 2.36.016 1.343-.016 1.579-.03 2.656-.11 2.25-.172 1.484-.156.953-.188.922-.25.922-.453 1.328-.75 1.781-.953 1.938-.578 1.14-.39.75-.892 1.5-.984 1.547-1.062 1.532-1.11 1.453-1.11 1.39-1.108 1.266-1.094 1.125-.531.484-.782.688-.828.812-.203.235-.156.25-.047.11v.046l.016.422.125.5.28.86.423.984.672 1.39 1.25 2.344 2.421 4.297 3.063 5.344Z"/>
  <path fill="#290755" d="M14.1 263.889c0-7.417 5.418-12.362 12.836-12.362 7.049 0 10.994 4.576 11.573 10.205l-6.997.474c-.578-2.894-1.999-4.262-4.471-4.262-2.578 0-4.366 1.736-4.366 5.945 0 4.208 1.788 5.944 4.366 5.944 2.472 0 3.893-1.42 4.471-4.313l6.997.526c-.579 5.681-4.524 10.205-11.573 10.205-7.418 0-12.836-4.892-12.836-12.362Zm27.668-11.731h8.522v23.462h-8.522v-23.462Zm-.053-2.21v-7.47h8.628v7.47h-8.628Zm14.046 19.149V258.05h-3.156v-5.261l1.736-.263c2.367-.368 3.103-1.631 3.682-3.788l.789-3.051h5.366v6.471h6.102v5.892h-6.102v8.574c0 1.999.947 2.788 2.683 2.788 1.052 0 2.209-.21 3.63-.789v5.524c-1.789 1.315-3.841 2.104-7.049 2.104-3.946 0-7.681-1.631-7.681-7.154Zm18.012-16.939h8.522v23.462h-8.522v-23.462Zm-.052-2.21v-7.47h8.627v7.47h-8.627Zm22.673 8.365H86.188v-6.155h20.569v5.786l-10.574 11.521h10.837v6.155H85.978v-5.839l10.416-11.468Zm30.577 8.943 6.839.631c-1.21 5.366-5.523 8.364-11.731 8.364-7.523 0-12.888-4.524-12.888-11.994 0-7.417 5.471-12.73 12.783-12.73 7.838 0 11.994 5.365 11.994 11.731v2.367h-16.466c.211 2.893 2.315 4.261 4.893 4.261 2.314 0 3.787-.789 4.576-2.63Zm-9.363-5.734h8.259c-.106-2.105-1.473-3.893-3.998-3.893-2.736 0-3.946 1.683-4.261 3.893Zm28.338 2.577v11.521h-8.522v-23.462h8.522v3.524c1.263-2.577 4.051-4.155 7.575-4.155 6.418 0 8.47 4.471 8.47 9.363v14.73h-8.522v-12.468c0-3.209-.895-4.892-3.472-4.892-2.894 0-4.051 2.315-4.051 5.839Z"/>
  <path fill="#7b7ab9" d="m182.917 252.631 4.945 17.413h.211l5.313-17.413h4.051l-7.313 22.989h-4.208l-4.892-17.149h-.211l-4.839 17.149h-4.209l-7.365-22.989h4.367l5.418 17.413h.21l4.84-17.413h3.682Zm31.866 12.731v-1.105l-5.155 1.105c-3.63.789-5.945 1.473-5.945 4.261 0 1.946 1.315 3.419 3.946 3.419 4.05 0 7.154-3.051 7.154-7.68Zm4.208-4.577v10.311c0 1.21.684 1.788 1.789 1.788.526 0 1.368-.157 1.999-.526v2.368c-.789.789-1.736 1.367-3.525 1.367-2.367 0-4.05-1.788-4.313-4.524-1.263 2.683-4.524 4.682-8.259 4.682-4.472 0-7.365-2.42-7.365-6.365 0-4.366 3.735-6.155 9.258-7.26l6.208-1.262v-.894c0-3.157-1.841-5.103-5.05-5.103-3.314 0-5.103 1.946-5.787 4.629l-3.893-.526c.895-4.314 4.314-7.47 9.732-7.47 5.787 0 9.206 2.946 9.206 8.785Zm7.221-18.307h4.366v33.142h-4.366v-33.142Zm10.326 0h4.366v33.142h-4.366v-33.142Zm27.791 24.988 3.629.421c-1.157 5.208-4.997 8.364-10.731 8.364-6.839 0-11.836-4.629-11.836-11.783 0-7.26 4.997-12.468 11.626-12.468 7.312 0 11.047 5.208 11.047 11.468v1.736h-18.307c.21 4.472 3.419 7.628 7.523 7.628 3.84 0 6.102-1.841 7.049-5.366Zm-14.467-5.103h13.73c-.158-3.682-2.209-7.049-6.575-7.049-4.156 0-6.629 3.262-7.155 7.049Zm23.528 7.891v-14.466h-3.472v-2.368l1.473-.263c2.157-.42 2.631-1.473 3.157-3.682l.684-3.209h2.472v6.365h6.471v3.157h-6.471v13.94c0 2.052.842 2.999 2.841 2.999 1.473 0 2.998-.632 4.313-1.368v2.946c-1.683 1.262-3.366 1.946-5.891 1.946-3.262 0-5.577-1.525-5.577-5.997Z"/>
  <path fill="#290755" d="m167.25 62.762-15.801 9.123-7.603-13.168c-2.128-3.687-5.533-5.935-9.91-6.217-3.85-.587-7.841 1.015-10.089 4.42l-47.192 58.147c-4.963 3.568-6.44 10.741-3.399 16.009l36.492 63.206c5.17 8.954 16.497 11.544 24.925 6.678l84.275-48.656c8.954-5.17 11.848-15.97 6.678-24.925L192.175 69.44c-5.17-8.954-15.97-11.848-24.925-6.678Zm-33.938 2.037 7.602 13.168-34.763 20.071 27.161-33.239Zm81.78 68.663c1.52 2.633.407 6.787-2.226 8.308l-84.275 48.656c-2.634 1.521-6.788.407-8.309-2.226L83.79 124.993l89.542-51.697c2.634-1.52 6.788-.407 8.309 2.226l33.451 57.94Z"/>
  <path fill="#f5f5f5" d="M130.896 34.617c6.316-1.086 19.6-3.376 22.206-3.85v46.486c0 .473-11.449 6.119-17.173 8.882-1.678-1.48-5.685-4.737-8.29-5.922-3.257-1.48-7.699-17.765-7.995-19.245-.237-1.184 1.876-10.758 2.961-15.396l8.291-10.955Z"/>
  <path fill="#f5f5f5" stroke="#290755" stroke-width="10.323" d="M176.237 48.52c5.445 15.17-2.44 31.883-17.61 37.327-15.17 5.445-31.882-2.44-37.326-17.61-5.445-15.17 2.44-31.882 17.61-37.326 15.17-5.445 31.882 2.44 37.326 17.61Z"/>
  <path fill="#f5f5f5" stroke="#563087" stroke-width="10.323" d="M198.945 50.436c5.445 15.17-2.44 31.883-17.61 37.327-15.17 5.445-31.882-2.44-37.326-17.61-5.445-15.17 2.44-31.882 17.61-37.326 15.17-5.445 31.882 2.44 37.326 17.61Z"/>
  <path fill="#f5f5f5" stroke="#833ddb" stroke-width="10.323" d="M219.995 61.756c5.445 15.17-2.44 31.883-17.61 37.327-15.17 5.445-31.882-2.44-37.326-17.61-5.445-15.17 2.44-31.882 17.61-37.326 15.17-5.445 31.882 2.44 37.326 17.61Z"/>
  <path fill="#f5f5f5" d="M179.453 67.482c2.566 1.776 7.876 5.566 8.586 6.513 9.672 17.173 29.194 51.874 29.905 53.295.888 1.777 4.145 9.771 4.737 13.324.592 3.553-94.154 56.256-95.931 56.256h-7.106l-40.267-75.205 100.076-54.183Z"/>
  <path fill="#290755" fill-rule="evenodd" d="m167.25 62.762-15.801 9.123-74.794 43.182c-4.963 3.568-6.44 10.741-3.399 16.008l36.492 63.207c5.17 8.954 16.497 11.544 24.925 6.678l84.275-48.656c8.954-5.17 11.848-15.97 6.678-24.925L192.175 69.44c-5.17-8.954-15.97-11.848-24.925-6.678Zm45.616 79.008c2.633-1.521 3.746-5.675 2.226-8.309l-33.451-57.939c-1.521-2.633-5.675-3.746-8.309-2.226L83.79 124.993l36.492 63.207c1.521 2.633 5.675 3.746 8.309 2.226l84.275-48.656Z"/>
  <path fill="none" stroke="#290755" stroke-linecap="round" stroke-width="9.549" d="M167.043 137.606c2.735 4.841 1.238 10.863-3.813 13.717-5.051 2.854-10.981 1.028-13.716-3.813"/>
  <path fill="#290755" d="M178.36 123.116a9.122 9.122 0 0 0 2.072-12.734 9.123 9.123 0 1 0-14.806 10.662 9.122 9.122 0 0 0 12.734 2.072Zm-48.042 28.234a9.123 9.123 0 1 0-10.662-14.806 9.123 9.123 0 0 0 10.662 14.806Z"/>
</svg>
