<svg width="400" height="400" viewBox="0 0 400 400" fill="none" xmlns="http://www.w3.org/2000/svg">
<path d="M101.005 180.596L155.497 104.144L175.83 148.876L101.005 180.596Z" fill="white"/>
<path d="M234.247 99.302L203.123 117.272L188.148 91.3347C183.955 84.0724 177.249 79.6444 168.628 79.0885C161.045 77.9335 153.183 81.0889 148.755 87.7953L55.801 202.328C46.0252 209.355 43.1163 223.484 49.1062 233.859L120.985 358.357C131.168 375.994 153.479 381.095 170.079 371.511L336.075 275.673C353.712 265.49 359.413 244.216 349.23 226.579L283.341 112.457C273.158 94.8196 251.884 89.1192 234.247 99.302ZM167.399 103.314L182.373 129.251L113.9 168.785L167.399 103.314ZM328.48 238.559C331.475 243.746 329.283 251.929 324.095 254.924L158.099 350.762C152.912 353.757 144.729 351.564 141.734 346.377L69.8557 221.88L246.227 120.052C251.414 117.057 259.597 119.249 262.592 124.436L328.48 238.559Z" fill="#290755"/>
<path d="M261.518 67.8159C274.139 102.982 255.863 141.721 220.697 154.342C185.531 166.964 146.792 148.688 134.171 113.522C121.549 78.3558 139.825 39.6166 174.991 26.9953C210.157 14.374 248.897 32.65 261.518 67.8159Z" fill="#F5F5F5"/>
<path fill-rule="evenodd" clip-rule="evenodd" d="M213.605 134.582C237.857 125.877 250.461 99.1606 241.757 74.9082C233.053 50.6558 206.336 38.0517 182.084 46.756C157.831 55.4604 145.227 82.1771 153.932 106.429C162.636 130.682 189.353 143.286 213.605 134.582ZM220.697 154.342C255.863 141.721 274.139 102.982 261.518 67.8159C248.897 32.65 210.157 14.374 174.991 26.9953C139.825 39.6166 121.549 78.3558 134.171 113.522C146.792 148.688 185.531 166.964 220.697 154.342Z" fill="#290755"/>
<path d="M306.246 71.5904C318.868 106.756 300.592 145.496 265.426 158.117C230.26 170.738 191.52 152.462 178.899 117.296C166.278 82.1304 184.554 43.3911 219.72 30.7698C254.886 18.1485 293.625 36.4245 306.246 71.5904Z" fill="#F5F5F5"/>
<path fill-rule="evenodd" clip-rule="evenodd" d="M258.333 138.356C282.586 129.652 295.19 102.935 286.486 78.6827C277.781 54.4304 251.064 41.8262 226.812 50.5306C202.56 59.2349 189.956 85.9516 198.66 110.204C207.364 134.456 234.081 147.061 258.333 138.356ZM265.426 158.117C300.592 145.496 318.868 106.756 306.246 71.5904C293.625 36.4245 254.886 18.1485 219.72 30.7698C184.554 43.3911 166.278 82.1304 178.899 117.296C191.52 152.462 230.26 170.738 265.426 158.117Z" fill="#563087"/>
<path d="M347.708 93.8866C360.329 129.053 342.053 167.792 306.887 180.413C271.721 193.034 232.982 174.758 220.36 139.592C207.739 104.427 226.015 65.6873 261.181 53.066C296.347 40.4447 335.086 58.7207 347.708 93.8866Z" fill="#F5F5F5"/>
<path fill-rule="evenodd" clip-rule="evenodd" d="M299.795 160.652C324.047 151.948 336.651 125.231 327.947 100.979C319.243 76.7265 292.526 64.1224 268.273 72.8268C244.021 81.5311 231.417 108.248 240.121 132.5C248.826 156.753 275.542 169.357 299.795 160.652ZM306.887 180.413C342.053 167.792 360.329 129.053 347.708 93.8866C335.086 58.7207 296.347 40.4447 261.181 53.066C226.015 65.6873 207.739 104.427 220.36 139.592C232.982 174.758 271.721 193.034 306.887 180.413Z" fill="#833DDB"/>
<path d="M258.282 108.599C263.337 112.098 273.795 119.563 275.195 121.429C294.246 155.254 332.698 223.604 334.097 226.404C335.847 229.903 342.262 245.649 343.429 252.647C344.595 259.646 157.973 363.454 154.474 363.454H140.477L61.163 215.323L258.282 108.599Z" fill="#F5F5F5"/>
<path fill-rule="evenodd" clip-rule="evenodd" d="M234.247 99.302L203.123 117.272L55.801 202.328C46.0252 209.355 43.1163 223.484 49.1062 233.859L120.985 358.357C131.168 375.994 153.479 381.095 170.079 371.511L336.075 275.673C353.712 265.49 359.413 244.216 349.23 226.579L283.341 112.457C273.158 94.8196 251.884 89.1192 234.247 99.302ZM324.095 254.924C329.283 251.929 331.475 243.746 328.48 238.559L262.592 124.436C259.597 119.249 251.414 117.057 246.227 120.052L69.8557 221.88L141.734 346.377C144.729 351.564 152.912 353.757 158.099 350.762L324.095 254.924Z" fill="#290755"/>
<path fill-rule="evenodd" clip-rule="evenodd" d="M194.535 257.776C199.205 255.138 205.128 256.785 207.766 261.454C210.591 266.453 216.406 268.194 221.553 265.286C226.7 262.378 228.21 256.498 225.385 251.499C222.747 246.83 224.394 240.907 229.063 238.269C233.732 235.63 239.655 237.277 242.293 241.946C250.243 256.016 245.857 273.86 231.106 282.194C216.355 290.528 198.807 285.077 190.858 271.007C188.22 266.338 189.866 260.415 194.535 257.776Z" fill="#290755"/>
<path d="M256.13 218.182C264.183 212.382 266.011 201.152 260.212 193.099C254.412 185.045 243.182 183.218 235.129 189.017C227.075 194.816 225.248 206.046 231.047 214.1C236.846 222.153 248.076 223.981 256.13 218.182Z" fill="#290755"/>
<path d="M161.501 273.794C169.554 267.994 171.382 256.764 165.583 248.711C159.783 240.657 148.553 238.829 140.5 244.629C132.446 250.428 130.618 261.658 136.418 269.712C142.217 277.765 153.447 279.593 161.501 273.794Z" fill="#290755"/>
<path d="M353.56 224.079L325.886 176.146C351.964 157.797 363.708 123.665 352.414 92.1976C343.196 66.5143 321.005 49.2202 295.872 45.0467C278.471 26.2887 251.871 17.6103 226.009 23.6995C209.822 16.8871 191.135 15.8891 173.302 22.2892C138.359 34.8308 118.944 71.3864 126.976 106.696L52.3183 198.685C40.879 207.361 37.6388 223.997 44.7761 236.359L116.655 360.857C128.272 380.978 153.682 386.751 172.579 375.841L338.575 280.003C358.604 268.44 365.123 244.108 353.56 224.079Z" stroke="white" stroke-width="10" stroke-linejoin="round"/>
</svg>
