<svg width="300" height="300" viewBox="0 0 300 300" fill="none" xmlns="http://www.w3.org/2000/svg">
<path d="M168.668 86.1868L146.237 99.1373L135.445 80.4448C132.423 75.2109 127.59 72.0197 121.377 71.6191C115.912 70.7867 110.246 73.0608 107.055 77.894L40.0635 160.437C33.0182 165.501 30.9218 175.684 35.2386 183.161L87.0408 272.885C94.3794 285.596 110.459 289.272 122.422 282.365L242.054 213.296C254.765 205.957 258.874 190.625 251.535 177.914L204.05 95.6672C196.711 82.9563 181.379 78.8481 168.668 86.1868ZM120.491 89.0785L131.283 107.771L81.9347 136.262L120.491 89.0785ZM236.581 186.548C238.739 190.286 237.159 196.183 233.421 198.342L113.789 267.411C110.05 269.57 104.153 267.99 101.995 264.251L50.1926 174.527L177.302 101.141C181.04 98.9823 186.937 100.562 189.096 104.301L236.581 186.548Z" fill="#290755"/>
<path d="M117.06 46.2332C126.027 44.6921 144.884 41.4418 148.583 40.7693V106.757C148.583 107.429 132.331 115.443 124.205 119.366C121.823 117.264 116.135 112.641 112.437 110.96C107.813 108.858 101.509 85.7416 101.089 83.6401C100.752 81.9589 103.75 68.3691 105.292 61.7844L117.06 46.2332Z" fill="#F5F5F5"/>
<circle cx="142.433" cy="79.9647" r="43.5933" transform="rotate(-19.7435 142.433 79.9647)" fill="#F5F5F5" stroke="#290755" stroke-width="10.3235"/>
<circle cx="174.668" cy="82.6849" r="43.5933" transform="rotate(-19.7435 174.668 82.6849)" fill="#F5F5F5" stroke="#563087" stroke-width="10.3235"/>
<circle cx="204.549" cy="98.7538" r="43.5933" transform="rotate(-19.7435 204.549 98.7538)" fill="#F5F5F5" stroke="#833DDB" stroke-width="10.3235"/>
<path d="M185.99 92.8867C189.633 95.4085 197.17 100.788 198.179 102.133C211.909 126.511 239.621 175.77 240.63 177.788C241.89 180.31 246.514 191.658 247.354 196.701C248.195 201.745 113.698 276.559 111.177 276.559H101.089L43.9282 169.802L185.99 92.8867Z" fill="#F5F5F5"/>
<path fill-rule="evenodd" clip-rule="evenodd" d="M168.668 86.1865L146.237 99.1371L40.0635 160.436C33.0182 165.501 30.9218 175.684 35.2386 183.161L87.0408 272.885C94.3795 285.596 110.459 289.272 122.422 282.365L242.054 213.296C254.765 205.957 258.874 190.625 251.535 177.914L204.05 95.667C196.711 82.9561 181.379 78.8479 168.668 86.1865ZM233.421 198.342C237.159 196.183 238.739 190.286 236.581 186.548L189.096 104.301C186.937 100.562 181.04 98.9821 177.302 101.141L50.1926 174.527L101.995 264.251C104.153 267.99 110.05 269.57 113.789 267.411L233.421 198.342Z" fill="#290755"/>
<path d="M168.374 192.431C172.257 199.303 170.132 207.851 162.962 211.903C155.792 215.954 147.373 213.362 143.491 206.49" stroke="#290755" stroke-width="9.54921" stroke-linecap="round"/>
<path d="M184.438 171.862C190.243 167.682 191.56 159.589 187.38 153.785C183.201 147.98 175.107 146.663 169.303 150.843C163.499 155.022 162.182 163.116 166.361 168.92C170.541 174.724 178.634 176.041 184.438 171.862Z" fill="#290755"/>
<path d="M116.24 211.941C122.044 207.761 123.361 199.668 119.182 193.864C115.002 188.06 106.909 186.743 101.105 190.922C95.3007 195.102 93.9836 203.195 98.1631 208.999C102.343 214.803 110.436 216.12 116.24 211.941Z" fill="#290755"/>
</svg>
