<svg height="512" viewBox="0 0 64 64" width="512" xmlns="http://www.w3.org/2000/svg"><g id="_25-Wallet" data-name="25-Wallet"><path d="m63 32v9a2.006 2.006 0 0 1 -2 2h-14a2.006 2.006 0 0 1 -2-2v-6a2.006 2.006 0 0 1 2-2h12v-3h2a2.006 2.006 0 0 1 2 2zm-11 6a2 2 0 1 0 -2 2 2.006 2.006 0 0 0 2-2z" fill="#e03e3e"/><path d="m54.64 1 8.36 23.78-4 1.43v-6.21a2.006 2.006 0 0 0 -2-2h-1.65l-2.82-8.02a3.852 3.852 0 0 1 -4.93-2.36l-29.12 10.34v.04h-8.48a4.524 4.524 0 0 1 -.74-.06l-.26-.72 34.04-12.1z" fill="#36ce94"/><path d="m5.1 13.97a4.987 4.987 0 0 0 4.16 3.97 4.524 4.524 0 0 0 .74.06h47a2.006 2.006 0 0 1 2 2v13h-12a2.006 2.006 0 0 0 -2 2v6a2.006 2.006 0 0 0 2 2h12v11c0 1.21-1.79 3-4 3h-14v-16a2.006 2.006 0 0 0 -2-2h-32a2.006 2.006 0 0 0 -2 2v16a4 4 0 0 1 -4-4v-39a6 6 0 0 1 6-6h3.21a5.147 5.147 0 0 0 -5.19 4.51 4.717 4.717 0 0 0 .08 1.46z" fill="#febd55"/><path d="m52.53 9.98 2.82 8.02h-36.87v-.04l29.12-10.34a3.852 3.852 0 0 0 4.93 2.36z" fill="#2fb380"/><circle cx="50" cy="38" fill="#2b2b37" r="2"/><path d="m21.62 8 19.38-7 2 4 .04.12-34.04 12.1.26.72a4.987 4.987 0 0 1 -4.16-3.97z" fill="#2fb380"/><path d="m21.62 8-16.52 5.97a4.717 4.717 0 0 1 -.08-1.46 5.147 5.147 0 0 1 5.19-4.51z" fill="#bd6f08"/><path d="m41 57v4a2.006 2.006 0 0 1 -2 2h-32a2.006 2.006 0 0 1 -2-2v-13h36z" fill="#ff6161"/><path d="m41 45v3h-1-34-1v-3h1 34z" fill="#edf4fa"/><path d="m41 41v4h-36v-4a2.006 2.006 0 0 1 2-2h32a2.006 2.006 0 0 1 2 2z" fill="#cb3541"/><path d="m39 60h-11a17.992 17.992 0 0 1 -16.954-12h-6.046v13a2.006 2.006 0 0 0 2 2h32a2.006 2.006 0 0 0 2-2v-3a2 2 0 0 1 -2 2z" fill="#e03e3e"/><path d="m11.046 48a17.872 17.872 0 0 1 -.776-3h-5.27v3z" fill="#c1cfe8"/><path d="m10.27 45a18.09 18.09 0 0 1 -.27-3v-3h-3a2.006 2.006 0 0 0 -2 2v4z" fill="#a81e29"/><path d="m43 5-.812-1.624-30.37 10.967a2 2 0 0 1 -2.536-1.138l-.261-.652-3.921 1.417a4.987 4.987 0 0 0 4.16 3.97l-.26-.72 34.04-12.1z" fill="#2aa173"/><path d="m26.816 15h-11.571l-6.245 2.22.26.72a4.524 4.524 0 0 0 .74.06h8.48v-.04z" fill="#2fb380"/><path d="m63 24.78-3.438-9.78h-5.262l1.055 3h1.645a2.006 2.006 0 0 1 2 2v6.21z" fill="#2fb380"/><path d="m26.816 15-8.336 2.96v.04h36.87l-1.055-3z" fill="#2aa173"/><path d="m62 41h-10a2.98 2.98 0 0 1 -2.242-1.025 1.988 1.988 0 0 1 0-3.95 2.98 2.98 0 0 1 2.242-1.025h7a2 2 0 0 0 2-2v-3h-2v3h-12a2.006 2.006 0 0 0 -2 2v6a2.006 2.006 0 0 0 2 2h14a2.006 2.006 0 0 0 2-2v-1a1 1 0 0 1 -1 1z" fill="#cb3541"/><g fill="#fc9e20"><path d="m48 46h11v-3h-12a1.975 1.975 0 0 1 -1-.279v1.279a2 2 0 0 0 2 2z"/><path d="m5 45v-4a2.006 2.006 0 0 1 2-2h2v-21.12a4.976 4.976 0 0 1 -3.9-3.91 4.717 4.717 0 0 1 -.08-1.46 5.147 5.147 0 0 1 5.19-4.51h-3.21a6 6 0 0 0 -6 6v39a4 4 0 0 0 4 4z"/><path d="m56 53h-8a4 4 0 0 1 -4-4v-5a2 2 0 0 0 -2-2h-1v15h14c2.21 0 4-1.79 4-3v-4a3 3 0 0 1 -3 3z"/></g></g></svg>