<svg width="748" height="708" viewBox="0 0 748 708" fill="none" xmlns="http://www.w3.org/2000/svg">
<path d="M452.826 0.0275438C353.029 27.6334 251.783 55.4143 164.646 86.1965C118.355 102.691 77.5044 119.248 48.1724 134.487C30.262 143.577 14.3455 154.074 3.03795 168.574C-0.0269312 176.247 -0.301824 182.475 0.198527 189.726C25.9718 349.913 44.4257 512.105 71.5374 671.716C73.4187 687.421 83.494 698.328 94.8937 702.646C107.499 707.423 120.885 707.063 130.876 707.063C319.401 690.196 510.775 673.736 672.208 659.716C688.061 657.87 700.813 654.488 709.142 644.568C717.407 634.711 718.422 621.027 716.09 604.794C715.597 594.035 713.856 581.401 712.616 570.072C725.045 567.536 735.078 563.569 741.66 554.924C749.48 544.651 748.663 530.751 743.555 515.15C711.883 389.581 679.875 262.215 652.651 154.677C647.162 138.423 638.503 126.48 627.717 119.328C617.021 112.233 604.804 110.063 592.995 111.437C585.801 111.895 578.918 112.367 573.738 112.698L555.117 57.1416C553.553 52.6323 548.452 49.652 543.752 50.5115L482.835 62.8204L463.896 6.6382C460.93 1.20594 454.744 -0.118702 452.848 0.00809915L452.826 0.0275438ZM448.091 22.4405L462.929 66.6316L74.0478 144.594C100.335 132.278 133.74 118.828 171.265 105.455C259.979 73.8411 368.249 42.6836 448.099 22.4423L448.091 22.4405ZM538.995 71.9941L552.882 114.289C376.181 127.395 269.337 134.996 201.572 139.541L538.995 71.9941ZM616.646 136.068C622.973 140.267 628.991 147.799 633.373 160.376C642.222 194.443 650.685 229.002 659.26 263.273C631.176 266.627 602.457 269.417 574.669 273.06C560.275 273.743 549.819 284.255 544.048 295.79C538.094 307.697 535.522 321.57 535.522 333.351C535.522 368.142 559.089 393.952 586.026 393.952C620.452 390.295 655.285 387.35 689.873 384.165C701.457 429.668 712.434 475.486 724.277 520.838C728.794 534.218 727.807 539.637 725.539 542.616C723.298 545.562 716.048 549.289 701.865 551.452C498.568 572.519 292.385 598.799 118.236 616.788C102.721 620.635 93.1679 626.652 85.7276 633.205L20.3843 187.831C20.4266 186.316 21.1594 185.174 23.8579 182.779C42.8384 169.92 68.1266 167.496 91.4054 166.679C254.465 157.055 448.938 142.477 594.859 131.64C602.616 130.196 610.536 133.613 616.637 136.058L616.646 136.068ZM664.311 282.845L684.829 364.597C651.792 367.626 618.746 370.783 585.716 373.749C572.294 373.545 555.729 358.981 555.729 333.349C555.729 324.93 558.21 313.234 562.36 304.941C566.51 296.648 570.885 292.949 575.93 292.949C605.204 289.278 634.882 286.157 664.311 282.845ZM596.129 313.149C584.969 313.149 575.929 322.196 575.929 333.349C575.929 344.51 584.976 353.549 596.129 353.549C607.29 353.549 616.329 344.502 616.329 333.349C616.329 322.196 607.282 313.149 596.129 313.149Z" fill="#242424"/>
</svg>
