<svg height="512" viewBox="0 0 24 24" width="512" xmlns="http://www.w3.org/2000/svg"><g id="Layer_2" data-name="Layer 2"><path d="m17.745 9.256a6.25 6.25 0 0 0 -12.495.244v.81a4.75 4.75 0 0 0 .75 9.44h11.5a5.25 5.25 0 0 0 .245-10.494z" fill="#4285f4"/><g fill="#fff"><path d="m12 15.75a.75.75 0 0 1 -.75-.75v-4a.75.75 0 0 1 1.5 0v4a.75.75 0 0 1 -.75.75z"/><path d="m14 13.75a.744.744 0 0 1 -.53-.22l-1.47-1.469-1.47 1.469a.75.75 0 0 1 -1.06-1.06l2-2a.749.749 0 0 1 1.06 0l2 2a.75.75 0 0 1 -.53 1.28z"/></g></g></svg>