<?xml version="1.0" encoding="UTF-8" standalone="no"?>
<!-- Created with Inkscape (http://www.inkscape.org/) -->

<svg
   version="1.1"
   id="svg2295"
   xml:space="preserve"
   width="682.66669"
   height="682.66669"
   viewBox="0 0 682.66669 682.66669"
   xmlns="http://www.w3.org/2000/svg"
   xmlns:svg="http://www.w3.org/2000/svg"><defs
     id="defs2299"><clipPath
       clipPathUnits="userSpaceOnUse"
       id="clipPath2309"><path
         d="M 0,512 H 512 V 0 H 0 Z"
         id="path2307" /></clipPath><clipPath
       clipPathUnits="userSpaceOnUse"
       id="clipPath2337"><path
         d="M 0,512 H 512 V 0 H 0 Z"
         id="path2335" /></clipPath></defs><g
     id="g2301"
     transform="matrix(1.3333333,0,0,-1.3333333,0,682.66667)"><g
       id="g2303"><g
         id="g2305"
         clip-path="url(#clipPath2309)"><g
           id="g2311"
           transform="translate(424.4702,484.292)"><path
             d="m 0,0 v -464.647 c 0,-9.672 -10.77,-15.451 -18.829,-10.103 l -146.254,97.06 c -2.053,1.362 -4.722,1.362 -6.775,0 l -146.253,-97.06 c -8.059,-5.348 -18.829,0.431 -18.829,10.103 V 0 c 0,11.161 9.047,20.208 20.208,20.208 H -20.208 C -9.047,20.208 0,11.161 0,0"
             style="fill:#60b8fe;fill-opacity:1;fill-rule:nonzero;stroke:none"
             id="path2313" /></g><g
           id="g2315"
           transform="translate(266.873,398.6646)"><path
             d="m 0,0 23.832,-48.29 c 1.767,-3.579 5.18,-6.059 9.129,-6.633 l 53.291,-7.744 c 9.946,-1.444 13.916,-13.666 6.72,-20.681 l -38.561,-37.588 c -2.858,-2.786 -4.162,-6.799 -3.488,-10.732 l 9.104,-53.076 c 1.699,-9.905 -8.698,-17.458 -17.593,-12.782 l -47.665,25.059 c -3.532,1.857 -7.752,1.857 -11.284,0 l -47.665,-25.059 c -8.895,-4.676 -19.292,2.877 -17.593,12.782 l 9.104,53.076 c 0.674,3.933 -0.63,7.946 -3.488,10.732 l -38.561,37.588 c -7.197,7.015 -3.226,19.237 6.719,20.681 l 53.291,7.744 c 3.95,0.574 7.363,3.054 9.13,6.633 L -21.746,0 C -17.298,9.012 -4.448,9.012 0,0"
             style="fill:#ffd15c;fill-opacity:1;fill-rule:nonzero;stroke:none"
             id="path2317" /></g><g
           id="g2319"
           transform="translate(404.2622,504.5)"><path
             d="m 0,0 h -38.522 c 11.16,0 20.208,-9.047 20.208,-20.208 v -461.68 l 19.693,-13.07 c 8.059,-5.348 18.829,0.431 18.829,10.103 V -20.208 C 20.208,-9.047 11.161,0 0,0"
             style="fill:#27a5fe;fill-opacity:1;fill-rule:nonzero;stroke:none"
             id="path2321" /></g><g
           id="g2323"
           transform="translate(424.4702,484.292)"><path
             d="m 0,0 v -464.647 c 0,-9.672 -10.77,-15.451 -18.829,-10.103 l -146.254,97.06 c -2.053,1.362 -4.722,1.362 -6.775,0 l -146.253,-97.06 c -8.059,-5.348 -18.829,0.431 -18.829,10.103 V 0 c 0,11.161 9.047,20.208 20.208,20.208 H -20.208 C -9.047,20.208 0,11.161 0,0 Z"
             style="fill:none;stroke:#000000;stroke-width:15;stroke-linecap:round;stroke-linejoin:round;stroke-miterlimit:10;stroke-dasharray:538, 35, 288, 0;stroke-dashoffset:0;stroke-opacity:1"
             id="path2325" /></g><g
           id="g2327"
           transform="translate(266.873,398.6646)"><path
             d="m 0,0 23.832,-48.29 c 1.767,-3.579 5.18,-6.059 9.129,-6.633 l 53.291,-7.744 c 9.946,-1.444 13.916,-13.666 6.72,-20.681 l -38.561,-37.588 c -2.858,-2.786 -4.162,-6.799 -3.488,-10.732 l 9.104,-53.076 c 1.699,-9.905 -8.698,-17.458 -17.593,-12.782 l -47.665,25.059 c -3.532,1.857 -7.752,1.857 -11.284,0 l -47.665,-25.059 c -8.895,-4.676 -19.292,2.877 -17.593,12.782 l 9.104,53.076 c 0.674,3.933 -0.63,7.946 -3.488,10.732 l -38.561,37.588 c -7.197,7.015 -3.226,19.237 6.719,20.681 l 53.291,7.744 c 3.95,0.574 7.363,3.054 9.13,6.633 L -21.746,0 C -17.298,9.012 -4.448,9.012 0,0 Z"
             style="fill:none;stroke:#000000;stroke-width:15;stroke-linecap:round;stroke-linejoin:round;stroke-miterlimit:10;stroke-dasharray:none;stroke-opacity:1"
             id="path2329" /></g></g></g><g
       id="g2331"><g
         id="g2333"
         clip-path="url(#clipPath2337)"><g
           id="g2339"
           transform="translate(-151.8745,456.3535)"><path
             d="m 0,0 v 0 c -59.771,0 -109.665,-42.249 -121.469,-98.51 -0.609,-2.899 -4.704,-2.901 -5.313,0 C -138.586,-42.249 -188.48,0 -248.25,0 h -0.001 c -114.106,0 -167.756,-141.01 -82.508,-216.858 l 193.339,-172.02 c 7.58,-6.745 19.009,-6.745 26.589,0 l 193.339,172.02 C 167.756,-141.01 114.106,0 0,0"
             style="fill:#fe646f;fill-opacity:1;fill-rule:nonzero;stroke:none"
             id="path2341" /></g><g
           id="g2343"
           transform="translate(-151.8745,456.3535)"><path
             d="m 0,0 v 0 c -6.912,0 -13.689,-0.572 -20.293,-1.658 99.375,-15.991 141.363,-144.168 61.527,-215.2 l -185.997,-165.488 7.343,-6.532 c 7.58,-6.745 19.009,-6.745 26.589,0 l 193.339,172.02 C 167.756,-141.01 114.106,0 0,0"
             style="fill:#fd4755;fill-opacity:1;fill-rule:nonzero;stroke:none"
             id="path2345" /></g><g
           id="g2347"
           transform="translate(-151.8745,456.3535)"><path
             d="m 0,0 v 0 c -59.771,0 -109.665,-42.249 -121.469,-98.51 -0.609,-2.899 -4.704,-2.901 -5.313,0 C -138.586,-42.249 -188.48,0 -248.25,0 h -0.001 c -114.106,0 -167.756,-141.01 -82.508,-216.858 l 193.339,-172.02 c 7.58,-6.745 19.009,-6.745 26.589,0 l 193.339,172.02 C 167.756,-141.01 114.106,0 0,0 Z"
             style="fill:none;stroke:#000000;stroke-width:15;stroke-linecap:round;stroke-linejoin:round;stroke-miterlimit:10;stroke-dasharray:376, 35, 230, 0;stroke-dashoffset:0;stroke-opacity:1"
             id="path2349" /></g></g></g></g></svg>
