<svg id="Flat" height="512" viewBox="0 0 512 512" width="512" xmlns="http://www.w3.org/2000/svg"><path d="m400 144c0-39.765-32.236-72-72-72-13.092 0-25.356 3.512-35.934 9.619-16.357-29.583-47.87-49.619-84.066-49.619-53.019 0-96 42.981-96 96 0 5.452.461 10.796 1.335 16h-1.335c-44.183 0-80 35.817-80 80s35.817 80 80 80h288c44.183 0 80-35.817 80-80s-35.817-80-80-80z" fill="#3397e8"/><path d="m296 328v-48h-19.025c-2.388-9.277-6.129-18.009-10.998-25.978l14.023-14.022-32-32-14.022 14.022c-7.969-4.868-16.701-8.61-25.978-10.998v-19.024h-48v19.024c-9.277 2.388-18.009 6.129-25.978 10.998l-14.022-14.022-32 32 14.022 14.022c-4.868 7.969-8.61 16.701-10.998 25.978h-19.024v48h19.024c2.388 9.277 6.129 18.009 10.998 25.978l-14.022 14.022 32 32 14.022-14.022c7.969 4.868 16.701 8.61 25.978 10.998v19.024h48v-19.024c9.277-2.388 18.009-6.129 25.978-10.998l14.022 14.022 32-32-14.022-14.022c4.868-7.969 8.61-16.701 10.998-25.978z" fill="#c3c6c7"/><circle cx="184" cy="304" fill="#9aa3a8" r="64"/><circle cx="184" cy="304" fill="#e9eef2" r="32"/><path d="m440 424v-32h-18.332c-1.009-3.391-2.333-6.645-3.935-9.733l14.267-14.267-24-24-14.267 14.267c-3.088-1.601-6.342-2.925-9.733-3.935v-18.332h-32v18.332c-3.391 1.009-6.645 2.333-9.733 3.935l-14.267-14.267-24 24 14.267 14.267c-1.601 3.088-2.925 6.342-3.935 9.733h-18.332v32h18.332c1.009 3.391 2.333 6.645 3.935 9.733l-14.267 14.267 24 24 14.267-14.267c3.088 1.601 6.342 2.925 9.733 3.935v18.332h32v-18.332c3.391-1.009 6.645-2.333 9.733-3.935l14.267 14.267 24-24-14.267-14.267c1.601-3.088 2.925-6.342 3.935-9.733z" fill="#c3c6c7"/><circle cx="368" cy="408" fill="#e9eef2" r="24"/></svg>