<?xml version="1.0" encoding="UTF-8"?>
<svg xmlns="http://www.w3.org/2000/svg" xmlns:xlink="http://www.w3.org/1999/xlink" version="1.1" id="Capa_1" x="0px" y="0px" viewBox="0 0 512 512" style="enable-background:new 0 0 512 512;" xml:space="preserve" width="512" height="512">
<g>
	<g>
		<g>
			<g>
				<path style="fill:#D5DAF3;" d="M131.756,352.381v149.064c-2.728,0-5.455-0.641-7.967-1.923L17.569,445.37&#10;&#9;&#9;&#9;&#9;&#9;C11.407,442.231,7.5,435.73,7.5,428.618V300.389c0-3.586,0.993-7.015,2.769-9.942L131.756,352.381z"/>
				<path style="fill:#BEC6ED;" d="M131.76,352.38v149.06c-2.73,0-5.46-0.64-7.97-1.92l-22.03-11.23v-151.2L131.76,352.38z"/>
				<path style="fill:#D5DAF3;" d="M131.759,352.382v149.06c2.721,0,5.455-0.641,7.959-1.923L256,440.253V289.04L131.759,352.382z"/>
				<path style="fill:#BEC6ED;" d="M256,289.04v151.21l-116.28,59.27c-2.51,1.28-5.24,1.92-7.96,1.92v-13.15l85.627-43.65&#10;&#9;&#9;&#9;&#9;&#9;c5.285-2.694,8.613-8.125,8.613-14.057V304.33L256,289.04z"/>
				<path style="fill:#6C7FD8;" d="M256,289.04l-124.241,63.342L10.264,290.443c1.681-2.758,4.064-5.08,6.967-6.628l114.529-61.552&#10;&#9;&#9;&#9;&#9;&#9;L256,289.04z"/>
				<path style="fill:#4F66D0;" d="M256,289.04l-124.24,63.34l-15-7.65l99.349-50.648c4.179-2.13,4.243-8.078,0.112-10.298&#10;&#9;&#9;&#9;&#9;&#9;L116.76,230.32l15-8.06L256,289.04z"/>
			</g>
			<g>
				<path style="fill:#D5DAF3;" d="M380.244,352.381v149.064c2.728,0,5.455-0.641,7.967-1.923l106.22-54.151&#10;&#9;&#9;&#9;&#9;&#9;c6.162-3.139,10.069-9.64,10.069-16.752V300.389c0-3.586-0.993-7.015-2.768-9.942L380.244,352.381z"/>
				<path style="fill:#BEC6ED;" d="M504.5,300.39v128.23c0,7.11-3.91,13.61-10.07,16.75l-106.22,54.15&#10;&#9;&#9;&#9;&#9;&#9;c-2.51,1.28-5.24,1.92-7.97,1.92v-13.15l84.19-42.92c6.16-3.14,10.07-9.64,10.07-16.75V304.33l27.23-13.88&#10;&#9;&#9;&#9;&#9;&#9;C503.51,293.37,504.5,296.8,504.5,300.39z"/>
				<path style="fill:#D5DAF3;" d="M380.241,352.382v149.06c-2.721,0-5.455-0.641-7.959-1.923L256,440.253V289.04L380.241,352.382z"/>
				<path style="fill:#BEC6ED;" d="M380.24,352.38v149.06c-2.72,0-5.45-0.64-7.96-1.92l-22.04-11.23v-151.2L380.24,352.38z"/>
				<path style="fill:#6C7FD8;" d="M256,289.04l124.241,63.342l121.495-61.939c-1.681-2.758-4.064-5.08-6.967-6.628l-114.529-61.552&#10;&#9;&#9;&#9;&#9;&#9;L256,289.04z"/>
				<path style="fill:#4F66D0;" d="M501.74,290.44l-121.5,61.94l-15-7.65l99.357-50.649c4.113-2.097,4.32-8.025,0.26-10.225&#10;&#9;&#9;&#9;&#9;&#9;c-0.029-0.016-0.058-0.031-0.087-0.047l-99.53-53.49l15-8.06l114.53,61.55C497.67,285.36,500.06,287.69,501.74,290.44z"/>
				<circle style="fill:#4F66D0;" cx="350.244" cy="222.263" r="72.81"/>
			</g>
			<g>
				<path style="fill:#D5DAF3;" d="M256,138.273V289.04l-124.241-66.777l-0.003-135.977c0-3.586,0.993-7.015,2.768-9.941&#10;&#9;&#9;&#9;&#9;&#9;L256,138.273z"/>
				<polygon style="fill:#BEC6ED;" points="256,138.27 256,289.04 226,272.91 226,122.98 &#9;&#9;&#9;&#9;"/>
				<path style="fill:#D5DAF3;" d="M380.24,86.29v135.97l-86.17,46.32L256,289.04V138.27l121.47-61.93&#10;&#9;&#9;&#9;&#9;&#9;C379.25,79.27,380.24,82.7,380.24,86.29z"/>
				<path style="fill:#BEC6ED;" d="M380.24,86.29v135.97l-30,16.13V90.22l27.23-13.88C379.25,79.27,380.24,82.7,380.24,86.29z"/>
				<path style="fill:#BEC6ED;" d="M380.24,155.89v66.37l-86.17,46.32c-10.4-12.58-16.64-28.73-16.64-46.32&#10;&#9;&#9;&#9;&#9;&#9;c0-40.21,32.6-72.81,72.81-72.81C360.94,149.45,371.09,151.76,380.24,155.89z"/>
				<path style="fill:#6C7FD8;" d="M377.47,76.344L256,138.273L134.524,76.344c1.682-2.763,4.059-5.08,6.961-6.634l106.204-57.055&#10;&#9;&#9;&#9;&#9;&#9;c0.029-0.012,0.053-0.03,0.082-0.042c5.192-2.758,11.353-2.745,16.534,0.042l106.204,57.055&#10;&#9;&#9;&#9;&#9;&#9;C373.411,71.265,375.794,73.581,377.47,76.344z"/>
				<path style="fill:#4F66D0;" d="M377.47,76.34L256,138.27l-15-7.65l99.337-50.644c4.111-2.096,4.317-8.021,0.259-10.22&#10;&#9;&#9;&#9;&#9;&#9;c-0.029-0.016-0.058-0.031-0.087-0.047L241,16.26l6.69-3.6c0.03-0.02,0.05-0.03,0.08-0.05c5.19-2.75,11.35-2.74,16.53,0.05&#10;&#9;&#9;&#9;&#9;&#9;l106.21,57.05C373.41,71.26,375.79,73.58,377.47,76.34z"/>
			</g>
		</g>
		<circle style="fill:#0ED2B3;" cx="380.244" cy="222.263" r="72.81"/>
		<path style="fill:#0AB69F;" d="M453.05,222.26c0,40.21-32.59,72.81-72.81,72.81c-5.14,0-10.15-0.53-14.99-1.55&#10;&#9;&#9;&#9;c33.01-6.91,57.8-36.19,57.8-71.26c0-35.07-24.79-64.35-57.8-71.26c4.84-1.02,9.85-1.55,14.99-1.55&#10;&#9;&#9;&#9;C420.46,149.45,453.05,182.05,453.05,222.26z"/>
	</g>
	<g>
		<g>
			<g>
				<path style="fill:none;stroke:#000000;stroke-width:15;stroke-linecap:round;stroke-linejoin:round;stroke-miterlimit:10;" d="&#10;&#9;&#9;&#9;&#9;&#9;M131.756,352.381v149.064c-2.728,0-5.455-0.641-7.967-1.923L17.569,445.37C11.407,442.231,7.5,435.73,7.5,428.618V300.389&#10;&#9;&#9;&#9;&#9;&#9;c0-3.586,0.993-7.015,2.769-9.942L131.756,352.381z"/>
				<path style="fill:none;stroke:#000000;stroke-width:15;stroke-linecap:round;stroke-linejoin:round;stroke-miterlimit:10;" d="&#10;&#9;&#9;&#9;&#9;&#9;M210.462,463.462L256,440.253V289.04l-124.241,63.342v149.06c2.721,0,5.455-0.641,7.959-1.923l38.882-19.817"/>
				<path style="fill:none;stroke:#000000;stroke-width:15;stroke-linecap:round;stroke-linejoin:round;stroke-miterlimit:10;" d="&#10;&#9;&#9;&#9;&#9;&#9;M256,289.04l-124.241,63.342L10.264,290.443c1.681-2.758,4.064-5.08,6.967-6.628l114.529-61.552L256,289.04z"/>
			</g>
			<g>
				<path style="fill:none;stroke:#000000;stroke-width:15;stroke-linecap:round;stroke-linejoin:round;stroke-miterlimit:10;" d="&#10;&#9;&#9;&#9;&#9;&#9;M380.244,352.381v149.064c2.728,0,5.455-0.641,7.967-1.923l106.22-54.151c6.162-3.139,10.069-9.64,10.069-16.752V300.389&#10;&#9;&#9;&#9;&#9;&#9;c0-3.586-0.993-7.015-2.768-9.942L380.244,352.381z"/>
				<path style="fill:none;stroke:#000000;stroke-width:15;stroke-linecap:round;stroke-linejoin:round;stroke-miterlimit:10;" d="&#10;&#9;&#9;&#9;&#9;&#9;M380.241,352.382v149.06c-2.721,0-5.455-0.641-7.959-1.923L256,440.253V289.04L380.241,352.382z"/>
				<path style="fill:none;stroke:#000000;stroke-width:15;stroke-linecap:round;stroke-linejoin:round;stroke-miterlimit:10;" d="&#10;&#9;&#9;&#9;&#9;&#9;M316.1,256.737L256,289.04l124.241,63.342l121.495-61.939c-1.681-2.758-4.064-5.08-6.967-6.628l-50.38-27.076"/>
			</g>
			<g>
				<path style="fill:none;stroke:#000000;stroke-width:15;stroke-linecap:round;stroke-linejoin:round;stroke-miterlimit:10;" d="&#10;&#9;&#9;&#9;&#9;&#9;M256,138.273V289.04l-124.241-66.777l-0.003-135.977c0-3.586,0.993-7.015,2.768-9.941L256,138.273z"/>
				<path style="fill:none;stroke:#000000;stroke-width:15;stroke-linecap:round;stroke-linejoin:round;stroke-miterlimit:10;" d="&#10;&#9;&#9;&#9;&#9;&#9;M256,289.04V138.273l121.47-61.928c1.775,2.927,2.768,6.356,2.768,9.941l0.001,27.396"/>
				<path style="fill:none;stroke:#000000;stroke-width:15;stroke-linecap:round;stroke-linejoin:round;stroke-miterlimit:10;" d="&#10;&#9;&#9;&#9;&#9;&#9;M377.47,76.344L256,138.273L134.524,76.344c1.682-2.763,4.059-5.08,6.961-6.634l106.204-57.055&#10;&#9;&#9;&#9;&#9;&#9;c0.029-0.012,0.053-0.03,0.082-0.042c5.192-2.758,11.353-2.745,16.534,0.042l106.204,57.055&#10;&#9;&#9;&#9;&#9;&#9;C373.411,71.265,375.794,73.581,377.47,76.344z"/>
			</g>
		</g>
		<path style="fill:none;stroke:#000000;stroke-width:15;stroke-linecap:round;stroke-linejoin:round;stroke-miterlimit:10;" d="&#10;&#9;&#9;&#9;M433.996,173.149c-13.313-14.562-32.466-23.696-53.752-23.696c-40.212,0-72.81,32.598-72.81,72.81s32.598,72.81,72.81,72.81&#10;&#9;&#9;&#9;s72.81-32.598,72.81-72.81c0-6.178-0.769-12.176-2.218-17.904"/>
		
			<polyline style="fill:none;stroke:#000000;stroke-width:15;stroke-linecap:round;stroke-linejoin:round;stroke-miterlimit:10;" points="&#10;&#9;&#9;&#9;346.089,225.329 370.346,247.805 413.105,202.853 &#9;&#9;"/>
	</g>
</g>















</svg>
