<svg id="Layer_1" enable-background="new 0 0 512 512" height="512" viewBox="0 0 512 512" width="512" xmlns="http://www.w3.org/2000/svg"><g><g><g><g><path d="m413.426 439.686h53.438c16.99 0 30.762-13.773 30.762-30.762v-90.156h-84.2z" fill="#ffd88f"/><path d="m413.426 357.94h53.438c16.99 0 30.762-13.773 30.762-30.762v-90.156h-84.2z" fill="#ff7893"/><path d="m413.426 276.194h53.438c16.99 0 30.762-13.773 30.762-30.762v-91.513h-84.2z" fill="#59a1a5"/><path d="m413.426 193.092h53.435c16.991 0 30.764-13.772 30.764-30.76v-59.398c0-16.988-13.774-30.76-30.764-30.76h-53.435z" fill="#ff9e5e"/></g><g><path d="m392.274 504.5h-275.444c-30.691 0-55.571-24.88-55.571-55.571v-385.858c0-30.691 24.88-55.57 55.571-55.57h275.444c30.691 0 55.571 24.88 55.571 55.571v385.858c0 30.69-24.88 55.57-55.571 55.57z" fill="#fff7e8"/><path d="m392.274 7.5h-40c30.691 0 55.571 24.88 55.571 55.571v385.858c0 30.691-24.88 55.571-55.571 55.571h40c30.691 0 55.571-24.88 55.571-55.571v-385.857c0-30.692-24.88-55.572-55.571-55.572z" fill="#fff1d6"/><g><path d="m116.834 7.5c-30.693 0-55.575 24.878-55.575 55.567v385.866c0 30.689 24.882 55.567 55.575 55.567h34.823v-497z" fill="#59a1a5"/></g><g fill="#b5e8e0"><path d="m87.85 111.173h-52.85c-11.392 0-20.626-9.235-20.626-20.626 0-11.392 9.235-20.626 20.626-20.626h52.85c11.392 0 20.626 9.235 20.626 20.626 0 11.391-9.234 20.626-20.626 20.626z"/><path d="m87.85 221.476h-52.85c-11.391 0-20.626-9.235-20.626-20.626 0-11.392 9.235-20.627 20.627-20.627h52.85c11.392 0 20.626 9.235 20.626 20.626-.001 11.392-9.235 20.627-20.627 20.627z"/><path d="m87.85 331.778h-52.85c-11.391 0-20.626-9.235-20.626-20.626 0-11.392 9.235-20.627 20.627-20.627h52.85c11.392 0 20.626 9.235 20.626 20.626-.001 11.392-9.235 20.627-20.627 20.627z"/><path d="m87.85 442.08h-52.85c-11.391 0-20.626-9.235-20.626-20.626 0-11.392 9.235-20.626 20.627-20.626h52.85c11.392 0 20.626 9.235 20.626 20.626-.001 11.392-9.235 20.626-20.627 20.626z"/></g><g fill="#97dbd1"><path d="m87.85 69.92h-40c11.392 0 20.626 9.235 20.626 20.626s-9.235 20.626-20.626 20.626h40c11.392 0 20.626-9.235 20.626-20.626s-9.234-20.626-20.626-20.626z"/><path d="m87.85 180.223h-40c11.392 0 20.626 9.235 20.626 20.626 0 11.392-9.235 20.626-20.626 20.626h40c11.392 0 20.626-9.235 20.626-20.626.001-11.391-9.234-20.626-20.626-20.626z"/><path d="m87.85 290.525h-40c11.392 0 20.626 9.235 20.626 20.626 0 11.392-9.235 20.626-20.626 20.626h40c11.392 0 20.626-9.235 20.626-20.626.001-11.391-9.234-20.626-20.626-20.626z"/><path d="m87.85 400.828h-40c11.392 0 20.626 9.235 20.626 20.626 0 11.392-9.235 20.626-20.626 20.626h40c11.392 0 20.626-9.235 20.626-20.626.001-11.392-9.234-20.626-20.626-20.626z"/></g></g></g></g><g><path d="m466.862 64.674h-11.517c.379-34.865-27.804-64.674-63.071-64.674h-240.445c-.029 0-.057.004-.086.004s-.057-.004-.086-.004h-34.823c-34.563 0-62.709 27.943-63.059 62.421h-18.775c-15.509 0-28.126 12.617-28.126 28.126s12.617 28.126 28.126 28.126h18.759v54.05h-18.759c-15.509 0-28.126 12.618-28.126 28.127s12.617 28.126 28.126 28.126h18.759v54.05h-18.759c-15.509 0-28.126 12.618-28.126 28.127s12.617 28.125 28.126 28.125h18.759v54.05h-18.759c-15.509 0-28.126 12.617-28.126 28.126s12.617 28.126 28.126 28.126h18.776c.35 34.477 28.496 62.42 63.058 62.42h34.823c.029 0 .057-.004.086-.004s.057.004.086.004h240.445c35.376 0 63.441-29.886 63.071-64.813h11.519c21.098 0 38.262-17.165 38.262-38.263v-305.99c0-21.097-17.165-38.26-38.264-38.26zm23.264 262.504c0 12.827-10.436 23.263-23.262 23.263h-11.519v-66.746h11.519c8.746 0 16.811-2.956 23.262-7.913zm0-81.746c0 12.827-10.436 23.263-23.262 23.263h-11.519v-68.103h11.517c8.747 0 16.812-2.956 23.265-7.913v52.753zm-23.264-165.758c12.828 0 23.265 10.435 23.265 23.26v59.398c0 12.825-10.437 23.26-23.265 23.26h-11.517v-105.918zm-444.988 10.873c0-7.237 5.889-13.126 13.126-13.126h52.85c7.238 0 13.126 5.889 13.126 13.126s-5.888 13.126-13.126 13.126h-52.85c-7.238 0-13.126-5.889-13.126-13.126zm0 110.303c0-7.238 5.889-13.127 13.126-13.127h52.85c7.238 0 13.126 5.889 13.126 13.127 0 7.237-5.888 13.126-13.126 13.126h-52.85c-7.238 0-13.126-5.889-13.126-13.126zm0 110.302c0-7.238 5.889-13.127 13.126-13.127h52.85c7.238 0 13.126 5.889 13.126 13.126 0 7.238-5.888 13.127-13.126 13.127h-52.85c-7.238 0-13.126-5.888-13.126-13.126zm0 110.302c0-7.237 5.889-13.126 13.126-13.126h52.85c7.238 0 13.126 5.889 13.126 13.126s-5.888 13.126-13.126 13.126h-52.85c-7.238 0-13.126-5.889-13.126-13.126zm444.99 10.733h-11.519v-10.732c0-9.697-15-9.697-15 0v27.476c0 26.506-21.564 48.07-48.071 48.07h-233.118v-385.828c0-9.697-15-9.697-15 0v385.827h-27.323c-26.291 0-47.709-21.214-48.058-47.42h19.075c15.509 0 28.126-12.617 28.126-28.126s-12.617-28.126-28.126-28.126h-19.091v-54.05h19.091c15.509 0 28.126-12.618 28.126-28.127s-12.617-28.126-28.126-28.126h-19.091v-54.05h19.091c15.509 0 28.126-12.617 28.126-28.126s-12.617-28.127-28.126-28.127h-19.091v-54.05h19.091c15.509 0 28.126-12.617 28.126-28.126s-12.617-28.125-28.126-28.125h-19.075c.349-26.207 21.767-47.421 48.059-47.421h27.323v57.174c0 9.697 15 9.697 15 0v-57.174h233.118c26.506 0 48.071 21.564 48.071 48.071v319.467c0 9.697 15 9.697 15 0v-17.098h11.519c8.746 0 16.811-2.956 23.262-7.913v51.397c-.001 12.827-10.436 23.263-23.263 23.263z"/><path d="m335.478 206.883c13.655-11.534 21.927-28.728 21.927-47.036 0-33.901-27.584-61.482-61.491-61.482-33.906 0-61.49 27.581-61.49 61.482 0 18.309 8.271 35.502 21.927 47.036-32.468 15.161-54.068 48.142-54.068 84.85 0 9.697 15 9.697 15 0 0-35.257 23.725-66.418 57.695-75.779 6.577-1.813 7.371-11.118 1.196-14.019-16.25-7.635-26.75-24.154-26.75-42.088 0-25.631 20.855-46.482 46.49-46.482s46.491 20.852 46.491 46.482c0 17.934-10.5 34.453-26.75 42.088-6.174 2.901-5.381 12.206 1.196 14.019 33.97 9.361 57.695 40.522 57.695 75.779 0 9.697 15 9.697 15 0 0-36.709-21.599-69.689-54.068-84.85z"/><path d="m382.046 349.019h-172.263c-9.697 0-9.697 15 0 15h172.263c9.697 0 9.697-15 0-15z"/><path d="m351.909 398.496h-111.989c-9.697 0-9.697 15 0 15h111.989c9.697 0 9.697-15 0-15z"/></g></g></svg>