<svg id="Capa_1" enable-background="new 0 0 511.856 511.856" height="512" viewBox="0 0 511.856 511.856" width="512" xmlns="http://www.w3.org/2000/svg"><g><path d="m39.421 120.477h30v108.361h-30z" fill="#fdae02" transform="matrix(.5 -.866 .866 .5 -124.047 134.458)"/><g><path d="m.241 322.199h108.361v30h-108.361z" fill="#fdae02" transform="matrix(.866 -.5 .5 .866 -161.309 72.388)"/></g><g><path d="m210.186 472.649v-108.36h-15l-4 56.943 4 51.417z" fill="#fd8c02"/><path d="m210.186 147.567v-108.36h-15l-4 54.18 4 54.18z" fill="#fd8c02"/><g fill="#fdae02"><path d="m180.186 39.207h15v108.36h-15z"/><path d="m180.186 364.289h15v108.36h-15z"/></g></g><g><path d="m195.186 114.126-10.001 142.992 10.001 140.612c78.189 0 141.802-63.612 141.802-141.802s-63.612-141.802-141.802-141.802z" fill="#fdae02"/><path d="m53.384 255.928c0 78.19 63.612 141.802 141.802 141.802v-283.604c-78.19 0-141.802 63.612-141.802 141.802z" fill="#fdcb02"/></g><g><path d="m419.778 123.132-99.446 83.074-83.074 99.446c14.371 38.255 44.819 68.702 83.074 83.073l95.762-74.463 86.757-108.056c-14.371-38.255-44.819-68.703-83.073-83.074z" fill="#373c41"/><g fill="#4b5055"><path d="m370.055 114.126c-78.19 0-141.803 63.612-141.803 141.802 0 17.488 3.19 34.243 9.006 49.723l182.52-182.52c-15.481-5.815-32.236-9.005-49.723-9.005z"/><path d="m320.332 388.725c15.481 5.815 32.235 9.006 49.723 9.006 78.189 0 141.802-63.612 141.802-141.802 0-17.488-3.19-34.242-9.006-49.723z"/></g></g></g></svg>