<svg id="Layer_1" enable-background="new 0 0 512 512" height="512" viewBox="0 0 512 512" width="512" xmlns="http://www.w3.org/2000/svg"><path d="m441.4 140.2v338.8c0 18.2-14.8 33-33 33h-304.8c-18.2 0-33-14.8-33-33v-446c0-18.2 14.8-33 33-33h197.6z" fill="#518ff5"/><g fill="#fff"><path d="m161.2 257.1h189.6v21.1h-189.6z"/><path d="m161.2 304.1h189.6v21.1h-189.6z"/><path d="m161.2 351.2h189.6v21.1h-189.6z"/><path d="m161.2 398.2h134.9v21.1h-134.9z"/></g><path d="m320.3 134.9 121.1 98.1v-92.2l-68.6-39.8z" opacity=".19"/><path d="m441.4 140.2h-107.2c-18.2 0-33-14.8-33-33v-107.2z" fill="#a6c5fa"/></svg>