<?xml version="1.0" encoding="iso-8859-1"?>
<!-- Generator: Adobe Illustrator 19.0.0, SVG Export Plug-In . SVG Version: 6.00 Build 0)  -->
<svg version="1.1" id="Capa_1" xmlns="http://www.w3.org/2000/svg" xmlns:xlink="http://www.w3.org/1999/xlink" x="0px" y="0px"
	 viewBox="0 0 512.064 512.064" style="enable-background:new 0 0 512.064 512.064;" xml:space="preserve">
<path style="fill:#4CAF50;" d="M253.705,186.283L167.646,48.085c-1.97-3.231-5.542-5.135-9.323-4.971
	c-3.777,0.103-7.218,2.197-9.045,5.504L1.332,316.011c-1.87,3.383-1.764,7.512,0.277,10.795l86.059,138.219
	c1.956,3.146,5.405,5.052,9.109,5.035h0.213c3.777-0.103,7.218-2.197,9.045-5.504l147.947-267.456
	C255.861,193.71,255.755,189.57,253.705,186.283z"/>
<path style="fill:#2196F3;" d="M510.601,323.904c-1.918-3.305-5.458-5.332-9.28-5.312l-277.333,1.451
	c-3.795,0.015-7.297,2.046-9.195,5.333l-73.984,128.405c-2.946,5.102-1.198,11.625,3.904,14.571c1.64,0.947,3.503,1.44,5.397,1.429
	l277.333-1.451c3.796-0.015,7.297-2.046,9.195-5.333l74.005-128.384C512.552,331.295,512.536,327.207,510.601,323.904z"/>
<path style="fill:#FFC107;" d="M510.302,281.109L370.42,47.189c-1.939-3.236-5.443-5.207-9.216-5.184L211.87,42.795
	c-5.891,0.022-10.649,4.816-10.626,10.707c0.007,1.917,0.531,3.798,1.517,5.442l139.883,233.941
	c1.939,3.236,5.443,5.207,9.216,5.184l149.333-0.789c5.891-0.022,10.649-4.816,10.626-10.707c-0.007-1.917-0.531-3.798-1.517-5.442
	L510.302,281.109z"/>
<g>
</g>
<g>
</g>
<g>
</g>
<g>
</g>
<g>
</g>
<g>
</g>
<g>
</g>
<g>
</g>
<g>
</g>
<g>
</g>
<g>
</g>
<g>
</g>
<g>
</g>
<g>
</g>
<g>
</g>
</svg>
