<?xml version="1.0" standalone="no"?>
<!DOCTYPE svg PUBLIC "-//W3C//DTD SVG 20010904//EN"
 "http://www.w3.org/TR/2001/REC-SVG-20010904/DTD/svg10.dtd">
<svg version="1.0" xmlns="http://www.w3.org/2000/svg"
 width="752.000000pt" height="752.000000pt" viewBox="0 0 752.000000 752.000000"
 preserveAspectRatio="xMidYMid meet">

<g transform="translate(0.000000,752.000000) scale(0.100000,-0.100000)"
fill="#000000" stroke="none">
<path d="M3677 5925 c-58 -22 -110 -68 -143 -127 -28 -51 -29 -58 -32 -212 -5
-192 0 -217 44 -266 l35 -38 -3 -114 -3 -113 -355 -6 -355 -6 -295 -47 c-162
-25 -404 -64 -538 -85 -258 -41 -306 -56 -386 -123 -92 -76 -155 -231 -141
-346 10 -82 434 -1624 452 -1644 8 -10 24 -20 35 -23 26 -9 209 53 231 77 14
17 17 40 17 134 0 63 3 114 6 114 3 0 17 -9 31 -20 36 -28 84 -26 113 5 22 23
30 25 115 25 115 0 244 22 356 60 66 23 104 30 162 30 l76 0 -87 -146 -87
-146 -70 6 c-114 11 -196 34 -327 94 -64 29 -80 33 -93 22 -35 -29 -18 -49 78
-95 105 -51 220 -84 324 -92 l73 -6 2 -626 3 -626 30 0 30 0 5 640 5 641 100
167 100 167 118 0 c65 0 127 5 138 10 23 13 25 55 3 64 -9 3 -117 6 -240 6
l-224 0 0 660 c0 570 -2 661 -15 666 -8 3 -154 -17 -325 -46 -170 -28 -315
-50 -322 -48 -10 4 -91 346 -84 355 5 6 603 94 696 103 63 5 239 10 390 10
l276 0 47 -48 c26 -26 47 -50 47 -53 0 -2 -50 -29 -110 -59 l-110 -54 -75 74
c-63 63 -78 73 -93 64 -36 -23 -25 -45 59 -130 46 -46 92 -84 102 -84 10 0 40
11 67 25 27 14 54 25 59 25 6 0 22 -22 35 -48 l25 -48 -56 -706 -56 -706 100
-158 c83 -134 103 -159 123 -159 20 0 40 25 123 159 l100 158 -56 706 -56 706
25 48 c13 26 29 48 35 48 5 0 32 -11 59 -25 27 -14 57 -25 67 -25 10 0 56 38
102 84 84 85 95 107 59 130 -15 9 -30 -1 -93 -64 l-75 -74 -110 54 c-60 30
-110 57 -110 60 0 3 22 27 48 53 l48 47 274 0 c151 0 327 -5 390 -10 93 -9
691 -97 696 -103 7 -9 -74 -351 -84 -355 -7 -2 -152 20 -322 48 -171 29 -317
49 -325 46 -13 -5 -15 -96 -15 -666 l0 -660 -224 0 c-123 0 -231 -3 -240 -6
-22 -9 -20 -51 3 -64 11 -5 73 -10 138 -10 l118 0 100 -167 100 -167 5 -641 5
-640 30 0 30 0 3 626 2 626 73 6 c108 9 221 41 327 94 98 49 116 72 78 96 -13
8 -34 3 -95 -26 -101 -47 -233 -84 -325 -92 l-73 -7 -87 146 -87 146 76 0 c58
0 96 -7 162 -30 112 -38 241 -60 356 -60 85 0 93 -2 115 -25 29 -31 77 -33
113 -5 14 11 28 20 31 20 3 0 6 -51 6 -114 0 -94 3 -117 18 -134 21 -24 204
-86 230 -77 11 3 27 13 35 23 9 10 114 373 233 807 237 869 239 876 200 998
-37 114 -133 215 -241 256 -49 18 -848 149 -1080 176 -78 9 -225 14 -422 15
l-303 0 0 43 c0 39 3 43 39 58 21 9 51 33 67 54 28 37 29 42 32 172 4 133 4
133 30 147 39 21 89 76 106 118 19 46 22 198 4 216 -8 8 -49 12 -121 12 -101
0 -114 2 -193 35 -94 39 -168 45 -237 20z m224 -95 c56 -26 83 -32 168 -37
l101 -6 0 -41 c-1 -86 -56 -157 -135 -172 -26 -4 -170 34 -271 73 -18 7 -44
-26 -44 -55 0 -27 -1 -27 -70 -27 l-70 0 0 77 c0 87 10 121 48 162 68 73 156
82 273 26z m-16 -300 c49 -16 99 -30 112 -30 23 0 23 -2 23 -101 0 -120 -14
-159 -66 -184 -38 -18 -91 -14 -153 11 -45 19 -58 18 -71 -6 -15 -28 16 -55
85 -75 l55 -16 0 -48 c0 -43 -4 -50 -55 -101 l-55 -54 -55 54 -55 54 0 153 c0
140 -2 153 -19 163 -36 19 -51 41 -51 75 0 59 58 92 106 60 39 -25 65 -16 89
33 11 23 20 42 21 42 0 0 40 -13 89 -30z m-1685 -868 c18 -89 31 -164 29 -166
-2 -3 -44 -12 -94 -20 -49 -9 -95 -22 -102 -29 -12 -11 12 -119 148 -661 89
-356 159 -649 155 -653 -3 -3 -30 17 -60 45 -93 89 -105 75 -108 -128 l-3
-153 -73 -25 c-41 -13 -77 -20 -81 -16 -4 5 -103 360 -220 789 -161 596 -211
793 -211 837 0 80 33 161 89 221 70 75 116 93 314 125 153 25 173 26 178 13 3
-9 21 -89 39 -179z m3353 163 c182 -29 229 -48 298 -122 56 -60 89 -141 89
-221 0 -44 -50 -241 -211 -837 -117 -429 -216 -784 -220 -789 -4 -4 -40 3 -81
16 l-73 25 -3 153 c-3 203 -15 217 -108 128 -30 -28 -57 -48 -60 -45 -4 4 66
297 155 653 136 542 160 650 148 661 -7 7 -53 20 -102 29 -50 8 -92 17 -94 20
-4 4 6 54 60 315 8 36 14 46 27 43 9 -2 88 -15 175 -29z m-1743 -20 l50 -25
-32 -64 -31 -64 55 -698 56 -699 -72 -117 c-39 -65 -73 -117 -76 -117 -3 0
-37 52 -76 117 l-72 117 56 698 55 699 -31 64 -32 64 48 24 c26 14 48 25 50
26 1 0 25 -11 52 -25z m-900 -905 l0 -631 -42 -18 c-110 -46 -299 -77 -403
-66 l-61 7 -149 598 c-82 330 -147 601 -145 603 4 4 752 133 788 136 9 1 12
-131 12 -629z m2123 559 c225 -37 377 -67 377 -73 0 -6 -66 -277 -147 -603
l-147 -591 -61 -7 c-104 -11 -293 20 -402 66 l-43 18 0 632 0 631 23 -5 c12
-3 192 -33 400 -68z"/>
<path d="M2370 2822 c-19 -16 -21 -22 -11 -40 10 -20 20 -22 85 -22 79 0 103
13 91 48 -11 36 -126 46 -165 14z"/>
<path d="M4989 2744 c-9 -11 -10 -20 -2 -32 15 -25 153 -30 170 -6 9 12 9 22
2 35 -8 16 -22 19 -83 19 -55 0 -77 -4 -87 -16z"/>
<path d="M2516 2641 c-35 -35 -47 -55 -44 -72 5 -41 36 -35 89 17 50 49 58 71
37 92 -20 20 -31 14 -82 -37z"/>
<path d="M2702 2641 c-9 -5 -12 -30 -10 -87 l3 -79 30 0 30 0 3 73 c4 90 -14
120 -56 93z"/>
<path d="M4917 2603 c-29 -29 58 -138 104 -131 42 6 37 44 -12 94 -40 40 -75
55 -92 37z"/>
<path d="M4776 2567 c-24 -17 -19 -155 6 -170 32 -21 48 8 48 89 0 61 -3 75
-19 83 -13 7 -23 7 -35 -2z"/>
<path d="M3661 2526 c-8 -9 -10 -143 -9 -477 l3 -464 30 0 30 0 5 440 5 440
35 0 35 0 5 -440 5 -440 30 0 30 0 3 464 c1 334 -1 468 -9 477 -8 10 -37 14
-99 14 -62 0 -91 -4 -99 -14z"/>
</g>
</svg>
