<?xml version="1.0" standalone="no"?>
<!DOCTYPE svg PUBLIC "-//W3C//DTD SVG 20010904//EN"
 "http://www.w3.org/TR/2001/REC-SVG-20010904/DTD/svg10.dtd">
<svg version="1.0" xmlns="http://www.w3.org/2000/svg"
 width="752.000000pt" height="752.000000pt" viewBox="0 0 752.000000 752.000000"
 preserveAspectRatio="xMidYMid meet">

<g transform="translate(0.000000,752.000000) scale(0.100000,-0.100000)"
fill="#000000" stroke="none">
<path d="M2156 5964 c-122 -38 -235 -225 -286 -474 l-17 -85 -174 -5 c-111 -3
-182 -9 -196 -17 -11 -7 -32 -34 -45 -60 -20 -42 -23 -62 -22 -153 0 -115 15
-163 61 -206 25 -23 30 -24 202 -24 l176 0 18 -87 c36 -172 96 -305 173 -387
90 -94 -47 -86 1438 -86 1306 0 1310 0 1353 21 121 59 226 260 270 517 22 135
22 395 -1 526 -49 271 -153 447 -301 507 l-60 24 -1270 2 c-1110 2 -1276 0
-1319 -13z m133 -68 c30 -16 111 -100 111 -116 0 -6 -64 -10 -180 -10 -99 0
-180 3 -180 8 0 15 86 102 115 117 38 19 98 19 134 1z m796 -19 c121 -37 310
-131 420 -208 107 -77 283 -244 372 -354 204 -251 363 -578 407 -837 l7 -38
-503 0 -503 1 -52 107 c-124 256 -337 524 -553 695 -41 33 -76 60 -77 61 -1 0
-6 39 -13 86 -25 193 -97 386 -176 478 l-37 43 309 -3 c303 -4 311 -4 399 -31z
m1140 18 c92 -23 251 -107 341 -179 281 -226 454 -542 454 -829 0 -169 -105
-379 -214 -431 -28 -13 -73 -16 -255 -16 l-220 0 -6 38 c-25 144 -85 316 -171
482 -222 434 -584 780 -962 920 l-77 29 525 1 c436 0 536 -3 585 -15z m544 -1
c77 -22 142 -87 191 -189 73 -151 103 -316 98 -545 l-3 -145 -24 88 c-83 311
-356 637 -652 777 l-64 30 201 0 c153 0 213 -4 253 -16z m-2312 -221 c20 -49
63 -218 63 -249 l0 -24 -301 0 -301 0 7 43 c10 63 34 153 56 213 l20 54 220 0
220 0 16 -37z m77 -349 c8 -21 8 -253 0 -293 l-7 -31 -505 2 -505 3 -18 35
c-26 49 -34 135 -19 204 21 104 -23 96 549 96 446 0 500 -2 505 -16z m155
-138 c195 -163 386 -408 510 -654 23 -45 41 -84 41 -87 0 -3 -194 -5 -430 -5
l-430 0 40 51 c108 137 180 395 180 645 0 63 3 114 6 114 3 0 41 -29 83 -64z
m-169 -261 c0 -8 -7 -48 -17 -90 l-16 -75 -262 0 c-241 0 -263 1 -270 18 -6
15 -35 147 -35 158 0 2 135 4 300 4 257 0 300 -2 300 -15z m-63 -237 l-13 -33
-222 -3 -222 -2 -10 25 c-6 15 -10 31 -10 36 0 5 100 9 245 9 l245 0 -13 -32z
m-64 -128 l-17 -30 -152 0 -153 0 -21 30 -21 30 191 0 191 0 -18 -30z m-54
-66 c-20 -24 -85 -54 -117 -54 -32 0 -113 39 -120 58 -3 9 29 12 123 12 115 0
126 -2 114 -16z"/>
<path d="M5230 5370 l0 -30 104 0 c119 0 128 -5 147 -73 15 -57 7 -194 -14
-234 l-18 -33 -114 0 -115 0 0 -30 0 -30 123 0 c122 0 124 0 150 28 39 40 58
105 58 198 1 104 -15 160 -56 201 l-33 33 -116 0 -116 0 0 -30z"/>
<path d="M2560 3705 c-106 -37 -247 -113 -296 -160 -52 -49 -69 -104 -60 -195
22 -236 293 -1079 490 -1523 108 -243 128 -276 161 -263 23 9 19 25 -41 152
-129 274 -270 646 -383 1009 -159 510 -193 686 -145 752 48 66 286 180 395
190 61 6 83 -2 182 -69 99 -67 204 -112 273 -116 68 -5 81 0 195 74 111 72
193 107 252 107 45 0 70 -9 177 -66 155 -82 258 -117 340 -117 56 0 79 8 272
96 l211 97 53 -12 c71 -16 188 -75 213 -108 11 -14 23 -41 26 -62 16 -99 82
-383 121 -518 169 -586 423 -1020 732 -1252 76 -58 215 -133 299 -162 51 -17
59 -18 72 -4 24 23 4 44 -65 69 -171 62 -344 187 -477 345 -203 240 -378 598
-501 1024 -47 162 -97 375 -116 495 -9 56 -19 81 -41 106 -52 60 -222 136
-302 136 -30 0 -96 -25 -249 -95 -154 -71 -218 -95 -249 -95 -61 0 -178 43
-329 122 -133 69 -136 70 -197 65 -73 -5 -161 -44 -298 -132 -82 -52 -94 -56
-136 -52 -58 5 -148 47 -264 122 -87 57 -93 59 -165 62 -60 3 -90 -2 -150 -22z"/>
<path d="M2777 3313 c-10 -10 -8 -58 3 -88 7 -20 16 -26 33 -23 19 3 22 8 20
46 -3 57 -31 90 -56 65z"/>
<path d="M4454 3306 c-3 -8 -2 -34 3 -58 7 -37 12 -43 36 -46 25 -3 27 -1 27
32 0 51 -16 86 -40 86 -11 0 -23 -6 -26 -14z"/>
<path d="M2826 3055 c-6 -17 11 -74 30 -94 18 -19 44 -6 44 22 0 47 -20 87
-45 87 -13 0 -25 -7 -29 -15z"/>
<path d="M4515 3059 c-10 -15 15 -97 31 -103 41 -16 54 20 30 79 -15 35 -47
48 -61 24z"/>
<path d="M2901 2817 c-8 -10 -7 -26 5 -61 13 -39 20 -47 38 -44 18 3 21 9 20
45 -1 61 -35 93 -63 60z"/>
<path d="M4594 2815 c-9 -23 14 -95 32 -102 9 -3 22 1 31 10 14 13 14 20 1 59
-16 46 -52 65 -64 33z"/>
<path d="M4680 2585 c-20 -24 16 -105 46 -105 12 0 26 5 29 10 8 14 -12 76
-32 95 -18 19 -27 19 -43 0z"/>
<path d="M2975 2571 c-3 -10 2 -38 11 -60 13 -33 21 -41 38 -39 27 4 32 35 12
82 -17 40 -50 49 -61 17z"/>
<path d="M4773 2344 c-8 -21 33 -104 51 -104 7 0 19 7 26 16 11 13 10 23 -8
60 -23 46 -56 60 -69 28z"/>
<path d="M3063 2334 c-8 -21 16 -92 33 -98 21 -8 44 4 44 24 0 10 -7 34 -15
54 -16 38 -50 50 -62 20z"/>
<path d="M4883 2113 c-10 -25 28 -87 55 -91 32 -5 37 20 12 67 -22 43 -55 56
-67 24z"/>
<path d="M3160 2105 c-21 -26 17 -105 50 -105 28 0 32 28 11 76 -21 46 -40 55
-61 29z"/>
<path d="M5015 1906 c-21 -15 -15 -38 18 -80 16 -20 29 -27 41 -23 27 11 29
33 4 71 -27 42 -40 49 -63 32z"/>
<path d="M3263 1874 c-7 -20 25 -91 45 -99 9 -3 22 1 31 10 14 13 13 19 -7 60
-23 47 -56 61 -69 29z"/>
<path d="M5156 1694 c-7 -17 25 -68 52 -83 19 -11 52 3 52 22 0 18 -63 77 -82
77 -9 0 -19 -7 -22 -16z"/>
<path d="M3397 1663 c-13 -13 -7 -36 19 -70 27 -36 45 -41 64 -18 10 12 8 22
-14 55 -24 37 -52 50 -69 33z"/>
</g>
</svg>
