<?xml version="1.0" encoding="iso-8859-1"?>
<!-- Generator: Adobe Illustrator 19.0.0, SVG Export Plug-In . SVG Version: 6.00 Build 0)  -->
<svg version="1.1" id="Layer_1" xmlns="http://www.w3.org/2000/svg" xmlns:xlink="http://www.w3.org/1999/xlink" x="0px" y="0px"
	 viewBox="0 0 511.999 511.999" style="enable-background:new 0 0 511.999 511.999;" xml:space="preserve">
<g>
	<g>
		<path d="M325.192,369.507c-19.851,0-38.726,5.745-53.831,16.249v-31.276h39.112c38.506,0,69.833-26.628,69.833-59.359v-59.358
			h-69.833c-14.482,0-27.946,3.768-39.112,10.209V223.43c35.45-4.5,56.139-25.104,56.139-57.035s-20.689-52.536-56.139-57.035
			V55.123c25.413,4.487,25.418,20.289,25.418,26.048H327.5c0-31.932-20.689-52.537-56.139-57.036V0H240.64v24.135
			c-35.451,4.5-56.14,25.103-56.14,57.036c0,31.931,20.689,52.536,56.14,57.035v54.235c-25.413-4.487-25.419-20.288-25.419-26.047
			h-30.721c0,31.931,20.689,52.536,56.14,57.035v22.541c-11.166-6.44-24.63-10.209-39.112-10.209h-69.834v59.358
			c0,32.731,31.328,59.359,69.834,59.359h39.112v31.276c-15.106-10.504-33.981-16.249-53.831-16.249h-84.554v71.246
			c0,19.66,9.225,37.939,25.975,51.468c15.792,12.755,36.595,19.778,58.578,19.778h53.831h30.721h53.831
			c21.983,0,42.786-7.024,58.578-19.778c16.75-13.529,25.975-31.808,25.975-51.468v-71.246H325.192z M271.361,140.349
			c25.412,4.487,25.418,20.288,25.418,26.046s-0.005,21.559-25.418,26.047V140.349z M271.361,295.12
			c-0.001-15.522,17.911-28.635,39.112-28.635h39.111v28.636c0,15.522-17.911,28.637-39.111,28.637h-39.112V295.12z
			 M240.639,323.758h-39.112c-21.201,0-39.112-13.115-39.112-28.638v-28.636h39.112c21.201,0,39.112,13.114,39.112,28.636V323.758z
			 M240.639,481.278h-53.831v0.001c-29.683,0-53.831-18.18-53.831-40.525v-40.526h53.831c29.683,0,53.831,18.18,53.831,40.525
			V481.278z M240.64,107.217c-25.414-4.487-25.419-20.288-25.419-26.046s0.005-21.559,25.419-26.048V107.217z M379.023,440.753
			c0,22.345-24.149,40.525-53.831,40.525h-53.831v-40.525c0-22.345,24.149-40.525,53.831-40.525h53.831V440.753z"/>
	</g>
</g>
<g>
</g>
<g>
</g>
<g>
</g>
<g>
</g>
<g>
</g>
<g>
</g>
<g>
</g>
<g>
</g>
<g>
</g>
<g>
</g>
<g>
</g>
<g>
</g>
<g>
</g>
<g>
</g>
<g>
</g>
</svg>
