<?xml version="1.0" encoding="iso-8859-1"?>
<!-- Generator: Adobe Illustrator 19.0.0, SVG Export Plug-In . SVG Version: 6.00 Build 0)  -->
<svg version="1.1" id="Capa_1" xmlns="http://www.w3.org/2000/svg" xmlns:xlink="http://www.w3.org/1999/xlink" x="0px" y="0px"
	 viewBox="0 0 512 512" style="enable-background:new 0 0 512 512;" xml:space="preserve">
<path style="fill:#2196F3;" d="M398.88,208c0.736-5.248,1.12-10.592,1.12-16c0-61.76-50.24-112-112-112
	c-39.648,0-76.256,21.344-96.064,54.656C181.952,130.272,171.168,128,160,128c-44.096,0-80,35.904-80,80
	c0,1.632,0.032,3.232,0.16,4.8C33.472,226.336,0,269.792,0,320c0,61.76,50.24,112,112,112h288c61.76,0,112-50.24,112-112
	C512,257.888,461.632,207.488,398.88,208z"/>
<g>
</g>
<g>
</g>
<g>
</g>
<g>
</g>
<g>
</g>
<g>
</g>
<g>
</g>
<g>
</g>
<g>
</g>
<g>
</g>
<g>
</g>
<g>
</g>
<g>
</g>
<g>
</g>
<g>
</g>
</svg>
