<?xml version="1.0" encoding="iso-8859-1"?>
<!-- Generator: Adobe Illustrator 19.0.0, SVG Export Plug-In . SVG Version: 6.00 Build 0)  -->
<svg version="1.1" id="Capa_1" xmlns="http://www.w3.org/2000/svg" xmlns:xlink="http://www.w3.org/1999/xlink" x="0px" y="0px"
	 viewBox="0 0 512 512" style="enable-background:new 0 0 512 512;" xml:space="preserve">
<path style="fill:#FCBF29;" d="M463.624,48.374c-64.199-64.499-168.9-64.499-233.099,0
	c-44.101,43.801-59.401,108.602-40.201,167.401C122.525,283.275,72.001,333.8,4.501,401.6C1.5,404.299,0,408.199,0,412.099V497
	c0,4.199,1.5,7.798,4.501,10.499C7.2,510.499,10.8,512,15,512h84.901c3.9,0,7.8-1.501,10.499-4.501c7.8-7.5,13.5-13.5,21.301-21
	c3.3-3.3,4.799-7.8,4.2-12.299c-0.901-8.401-1.8-14.7-2.701-22.8c11.4-1.199,20.099-2.1,31.8-2.999
	c7.2-0.901,12.599-6.301,13.5-13.5c0.899-11.4,1.8-20.4,2.999-31.8c8.101,1.199,14.401,1.8,22.8,2.699
	c8.401,1.201,16.5-5.7,16.5-14.7V363H248.4c3.9,0,7.798-1,10.499-4.001c13.801-13.799,23.525-23.224,37.326-37.323
	c58.799,19.199,123.6,3.9,167.399-40.201C528.125,217.274,528.125,112.575,463.624,48.374z M421.325,154.275
	c-17.401,17.701-46.201,17.701-63.6,0c-17.701-17.401-17.701-46.199,0-63.6c17.399-17.701,46.199-17.701,63.6,0
	C439.024,108.076,439.024,136.875,421.325,154.275z"/>
<path style="fill:#FE9923;" d="M463.624,281.475c-43.799,44.101-108.6,59.399-167.399,40.201
	c-13.801,14.099-23.525,23.525-37.326,37.323c-2.7,3.001-6.598,4.001-10.498,4.001H220.8v28.099c0,9-8.099,15.901-16.5,14.7
	c-8.399-0.899-14.7-1.5-22.8-2.699c-1.199,11.4-2.1,20.4-2.999,31.8c-0.901,7.2-6.301,12.599-13.5,13.5
	c-11.7,0.899-20.4,1.8-31.8,2.999c0.901,8.101,1.8,14.399,2.701,22.8c0.599,4.499-0.901,9-4.2,12.299c-7.8,7.5-13.5,13.5-21.301,21
	c-2.699,2.999-6.599,4.501-10.499,4.501H15c-4.2,0-7.8-1.501-10.499-4.501l353.225-353.224c17.399,17.701,46.199,17.701,63.6,0
	c17.699-17.401,17.699-46.199,0-63.6l42.299-42.301C528.125,112.575,528.125,217.274,463.624,281.475z"/>
<g>
</g>
<g>
</g>
<g>
</g>
<g>
</g>
<g>
</g>
<g>
</g>
<g>
</g>
<g>
</g>
<g>
</g>
<g>
</g>
<g>
</g>
<g>
</g>
<g>
</g>
<g>
</g>
<g>
</g>
</svg>
