<svg height="512" viewBox="0 0 500 500" width="512" xmlns="http://www.w3.org/2000/svg"><g id="圖層_4" data-name="圖層 4"><path d="m46 434.8c11.95 10.31 28.5 13.41 43.85 14.13 30.65 1.17 61.71-8.73 85.69-27.93q0 33.9-.08 67.81c0 3.32 5.52 4.55 5.53.73q0-32.64.07-65.27c0-3.06 0-6.11 0-9.17 0-2.19-2.93-4.23-4.77-2.59-29.51 26.06-73.03 37.92-111.29 26.77-7.74-2.54-15.85-6.55-20.09-13.79-4.39-6.73-5.54-16.18.26-22.48 7.3-7.94 19.28-6.85 29-4.82 5.2.9 10 3.18 15.28 3.65 26 3.28 52.06-5.85 73-20.95a155.07 155.07 0 0 0 32.95-31.6c.25-.3.23-.69.41-1a1.55 1.55 0 0 0 -.6-1.92 2.91 2.91 0 0 0 -3.81-1.27c-49.16-13.45-61.71-78.35-38.1-118.64 17.87-28.45 50.29-46.5 83.42-49.81 47-4.57 92.38 21.58 108.2 66.79 11.13 31.41 2.43 68.61-20.59 92.51a69.5 69.5 0 0 1 -9.67 8.21 1.59 1.59 0 0 0 -.62 2.37 101.5 101.5 0 0 0 22.45 23.06 99 99 0 0 0 82.51 17.27c3.41-.92 6.84-1.72 10.28-2.5 6.05-1.38 12.65-3.5 18.39-1.18a17 17 0 0 1 9.69 10.88c3.3 10.46-2.3 20.74-10.32 27.24-29.26 21.33-72.84 21.76-103 1.88a89.14 89.14 0 0 1 -8.78-6.69c-1.16-1-5.21-1.15-5.2 1.08l.36 72.39c0 2.7 6 3 6 .36q-.18-33.57-.34-67.14c30.79 22.67 75.16 24.28 108.4 5.7 9-5.28 17.17-12.81 19.35-23.48 2.4-11.76-4.42-23.67-16.27-26.56-7.38-1.8-14.7.45-21.89 2.09-3.3.77-6.61 1.52-9.86 2.45a91.58 91.58 0 0 1 -95.54-37.24c28.21-21.12 40.25-58.45 33.64-92.57-3.32-15.51-11.08-30-20.91-42.35-44.47-54.34-133.48-50.05-177.4 2.78-12.67 14.53-18.6 33.63-19.47 52.68-2.78 34.76 17.32 72.45 52.37 81.85-23.09 27.62-57 50.55-94.43 48.17-2.94-.19-5.88-.55-8.78-1-2.27-.82-4.59-1.47-6.93-2.08-7.78-2-16.48-3.51-24.46-1.82-22.38 4.76-22.9 29.32-7.9 43z"/><path d="m135.28 81.13a30.86 30.86 0 0 0 7.89 1.87c-5 5.54-5 14.62 4.17 14.67 12.36-1.24 24.57-4.27 36.55-7.52a261.25 261.25 0 0 0 67.48-30c8-5 16.9-10.4 22.66-18.13 4.06 13-2.88 26.41-11.12 36.23a195.7 195.7 0 0 0 -90.84 30.41c-5 3.19-10 6.62-13 11.83-2.68 4.62-3 10.81 0 15.36 3.42 5.16 10.12 5.61 15.68 4.86a98.25 98.25 0 0 0 31.66-10.61 74.21 74.21 0 0 0 -11.92 9.24c-2.21 2.1-4.49 4.3-5.66 7.19-2.65 6.35 2 11.55 8.6 10.88 5.86-.66 11.23-3.55 16.69-5.63a228.9 228.9 0 0 0 41.52-23.13c-1.19 9.19-9.68 15.61-15.67 22q-6.33 6.3-13.13 12.1a3 3 0 0 0 -.71 4.06 3 3 0 0 0 4.1.47q7.65-6.57 14.77-13.71c7.18-7.68 18.79-17.08 16.07-28.85 9.28-7.28 18.52-16.43 20.27-28.55 1.23-7.65-2.08-17.83-11.08-18.1 8.57-11.35 15.59-28.73 7.34-42 3.32-7.79 3.15-18.9-4.21-24.33-15.54-8-48.86-2.08-65.62 2.2-25.26 6.37-64.77 20.2-79.72 42.35-6.69 9.49-3.68 20.54 7.23 24.84zm66.72 44.87a94.51 94.51 0 0 1 -23.27 8.21c-5.76 1.31-15.66 2.87-15.94-5.66-.35-9.52 13.85-15.93 20.9-20.35a189.58 189.58 0 0 1 73.48-23.65 272.64 272.64 0 0 1 -27 23.22c-8.85 6.84-18.17 13.23-28.17 18.23zm48.66-.88a212.42 212.42 0 0 1 -46.87 24.67c-2.94 1-5.74 2.5-8.82 1.61-.21 0-.61-.46-.59-.36-2.72-3 6.21-9.52 8.35-11.45a75.5 75.5 0 0 1 44.09-16.41c1.87-.07 4.08-.22 5.88.51zm15.15-41.29c2.39-.14 5-.42 6.87 1.08 4.83 4.76 3.08 13.06.27 18.5-3.43 6.65-9.07 11.9-15.07 16.49a13 13 0 0 0 -8.18-2.5 78.34 78.34 0 0 0 -35.63 8.38c13.49-8.15 25.79-18.11 37.64-28.43a146.36 146.36 0 0 0 13.78-13.5zm-135.3-15.65c-.14-.47.05 0 .07.29-.02-.1-.05-.2-.07-.29zm138.3-28.68c-3.27 4.06-7.48 7.22-11.75 10.17a255.41 255.41 0 0 1 -95.06 39.9q-6.34 1.25-12.76 2.16a6.18 6.18 0 0 1 -3.14-.09c.13 0-.25-.31-.16-.17a.89.89 0 0 1 -.25-.68c.29-3.28 2.94-5.53 5.26-7.53 18.32-.74 36-6.61 53.14-12.68a2.84 2.84 0 1 0 -2-5.32c-14.15 5.11-28.5 9.71-43.42 11.66a194.87 194.87 0 0 1 78.88-36.62q8.16-1.71 16.44-2.72c2.74-.33 5.5-.62 8.26-.82s5.53-.37 7.95.82c-.43.64-.88 1.28-1.39 1.92zm-138.51 25.96a6.16 6.16 0 0 1 .28-1.42c-.18.91 0 0 .11-.29a22.49 22.49 0 0 1 1.37-3.09l.38-.7c.11-.19.67-1.05.15-.26 6.07-9.41 15.86-15.59 25.42-21 27.47-14.41 57.92-23.31 88.89-25a75.11 75.11 0 0 1 19.79 1.6c4 .65 6.12 4.08 6.75 7.74a19.47 19.47 0 0 1 -.62 9.26c-7.5-2.9-15.95-.71-23.67.17a200.47 200.47 0 0 0 -100.25 45.09c-6.32-.19-14.22-1-17.61-7.12h.05a11.41 11.41 0 0 1 -1.04-4.98z"/><path d="m131.34 70.49c.07.15.17.27.24.42s.08-.09-.24-.42z"/><path d="m268.41 294.25a148.87 148.87 0 0 0 -35.16 12.92c-1.13.59-2.4 2.08-1.95 3.45s2.21 1.19 3.23.66a143.11 143.11 0 0 1 33.78-12.34c2.83-.61 4.26-5.47.1-4.69z"/><path d="m206.05 243v15c0 7.72 12 7.74 12 0v-15c0-7.7-12-7.71-12 0z"/><path d="m276.18 243v15c0 7.72 12 7.74 12 0v-15c0-7.7-12-7.71-12 0z"/></g></svg>