<svg id="Capa_1" enable-background="new 0 0 512 512" height="512" viewBox="0 0 512 512" width="512" xmlns="http://www.w3.org/2000/svg" xmlns:xlink="http://www.w3.org/1999/xlink"><linearGradient id="SVGID_1_" gradientUnits="userSpaceOnUse" x1="0" x2="512" y1="256" y2="256"><stop offset="0" stop-color="#9dd6fc"/><stop offset=".0056" stop-color="#9dd6fc"/><stop offset="1" stop-color="#d17ff7"/></linearGradient><g><g><path d="m256 0c-143.552 0-256 112.448-256 256 0 144.052 112.96 256 256 256 143.222 0 256-112.155 256-256 0-143.552-112.448-256-256-256zm0 472c-46.993 0-90.031-14.289-125.115-38.845 23.542-46.684 72.089-77.155 125.116-77.155 53.026 0 101.572 30.471 125.114 77.154-35.084 24.556-78.121 38.846-125.115 38.846zm156.241-65.469c-13.006-22.727-30.853-42.378-52.603-57.718-30.438-21.467-66.275-32.813-103.637-32.813-37.363 0-73.2 11.346-103.638 32.813-21.75 15.34-39.598 34.991-52.604 57.719-37.179-38.627-59.759-91.454-59.759-150.532 0-121.121 94.879-216 216-216s216 94.879 216 216c0 59.077-22.58 111.904-59.759 150.531zm-156.241-290.531c-55.141 0-100 44.86-100 100s44.859 100 100 100 100-44.86 100-100-44.859-100-100-100zm0 160c-33.084 0-60-26.916-60-60s26.916-60 60-60 60 26.916 60 60-26.916 60-60 60z" fill="url(#SVGID_1_)"/></g></g></svg>