<svg id="Capa_1" enable-background="new 0 0 511.994 511.994" height="512" viewBox="0 0 511.994 511.994" width="512" xmlns="http://www.w3.org/2000/svg"><path d="m158.502 348.727h-113.502c-24.813 0-45-20.187-45-45v-95.46c0-24.813 20.187-45 45-45h113.502c8.284 0 15 6.716 15 15v155.46c0 8.284-6.716 15-15 15z" fill="#ffcf2c"/><path d="m0 255.998v47.73c0 24.813 20.187 45 45 45h113.502c8.284 0 15-6.716 15-15v-77.73z" fill="#ffb500"/><path d="m295.974 59.859c-5.198-2.497-11.369-1.792-15.871 1.813l-126.861 101.59v185.47l126.861 101.591c2.713 2.172 6.031 3.292 9.379 3.292 2.207 0 4.426-.487 6.492-1.479 5.199-2.497 8.505-7.753 8.505-13.521v-365.235c0-5.768-3.306-11.024-8.505-13.521z" fill="#37a8e5"/><path d="m153.242 255.998v92.735l126.861 101.591c2.713 2.172 6.031 3.292 9.379 3.292 2.207 0 4.426-.487 6.492-1.479 5.199-2.497 8.505-7.753 8.505-13.521v-182.618z" fill="#1a82c7"/><g fill="#a3efff"><path d="m458.101 419.899c-2.486 0-5.007-.619-7.329-1.922-7.224-4.056-9.792-13.199-5.737-20.423 24.18-43.071 36.96-92.024 36.96-141.566 0-49.537-12.778-98.485-36.953-141.553-4.055-7.224-1.486-16.368 5.738-20.422 7.223-4.056 16.368-1.485 20.422 5.738 26.686 47.543 40.793 101.569 40.793 156.238 0 54.675-14.108 108.706-40.8 156.252-2.753 4.9-7.847 7.658-13.094 7.658z"/><path d="m403.893 377.176c-2.265 0-4.563-.515-6.725-1.602-7.402-3.72-10.386-12.737-6.665-20.139 15.617-31.069 23.536-64.528 23.536-99.448 0-34.914-7.917-68.369-23.53-99.435-3.72-7.402-.736-16.418 6.667-20.138 7.4-3.722 16.418-.736 20.138 6.667 17.733 35.284 26.725 73.271 26.725 112.907 0 39.642-8.994 77.634-26.732 112.922-2.635 5.24-7.924 8.266-13.414 8.266z"/><path d="m348.992 333.903c-1.857 0-3.744-.347-5.573-1.08-7.69-3.081-11.427-11.813-8.346-19.503 7.306-18.236 11.01-37.525 11.01-57.333 0-19.802-3.703-39.087-11.004-57.32-3.08-7.69.658-16.422 8.348-19.501 7.69-3.081 16.421.658 19.501 8.348 8.729 21.796 13.155 44.834 13.155 68.474 0 23.646-4.428 46.689-13.161 68.489-2.349 5.861-7.98 9.426-13.93 9.426z"/></g><path d="m481.994 255.998c-.002 49.539-12.782 98.488-36.96 141.556-4.055 7.224-1.486 16.367 5.737 20.423 2.322 1.304 4.843 1.922 7.329 1.922 5.248 0 10.342-2.758 13.094-7.66 26.69-47.544 40.798-101.571 40.8-156.242h-30z" fill="#6ad9eb"/><path d="m414.038 255.998c-.002 34.916-7.92 68.372-23.536 99.438-3.721 7.402-.737 16.418 6.665 20.139 2.162 1.087 4.46 1.602 6.725 1.602 5.49 0 10.78-3.026 13.414-8.267 17.737-35.285 26.731-73.274 26.732-112.912z" fill="#6ad9eb"/><path d="m346.082 255.998c-.001 19.804-3.705 39.09-11.01 57.323-3.081 7.69.656 16.422 8.346 19.503 1.829.733 3.716 1.08 5.573 1.08 5.95 0 11.581-3.565 13.929-9.426 8.732-21.797 13.16-44.836 13.161-68.479h-29.999z" fill="#6ad9eb"/></svg>