<svg height="512pt" viewBox="0 -98 512 512" width="512pt" xmlns="http://www.w3.org/2000/svg"><path d="m91 196c-33.089844 0-61-26.910156-61-60s27.910156-60 61-60 60 26.910156 60 60-26.910156 60-60 60zm0 0" fill="#4bb9ec"/><path d="m91 196c-49.707031 0-91 40.292969-91 90v30h121l46.84375-42.757812-11.003906-48.214844c-16.441406-17.746094-39.742188-29.027344-65.839844-29.027344zm0 0" fill="#4bb9ec"/><path d="m421 196c-33.089844 0-60-26.910156-60-60s26.910156-60 60-60 60 26.910156 60 60-26.910156 60-60 60zm0 0" fill="#0095ff"/><path d="m421 196c-26.097656 0-49.398438 11.28125-65.839844 29.027344l-8.796875 53.824218 44.636719 37.148438h121v-30c0-49.707031-41.292969-90-91-90zm0 0" fill="#0095ff"/><path d="m256 0c-49.5 0-90 41.5-90 91s40.5 90 90 90 90-40.5 90-90-40.5-91-90-91zm0 0" fill="#76e2f8"/><path d="m391 316h-270c0-35.101562 13.800781-66.902344 35.699219-90.902344 24.902343-26.996094 60-44.097656 99.300781-44.097656s74.398438 17.101562 99.300781 44.097656c21.898438 24 35.699219 55.800782 35.699219 90.902344zm0 0" fill="#76e2f8"/><g fill="#24c4ea"><path d="m256 181v-181c49.5 0 90 41.5 90 91s-40.5 90-90 90zm0 0"/><path d="m391 316h-135v-135c39.300781 0 74.398438 17.101562 99.300781 44.097656 21.898438 24 35.699219 55.800782 35.699219 90.902344zm0 0"/></g></svg>