<svg id="Capa_1" enable-background="new 0 0 512 512" height="512" viewBox="0 0 512 512" width="512" xmlns="http://www.w3.org/2000/svg"><g><g><path d="m297.659 93.34-61.558 18.581 157.998 9 88.624-9-5.608-18.581-83.016-9z" fill="#f9b067"/><g fill="#fcc07e"><path d="m477.115 93.34-10.51-34.82c-2.471-8.187-11.111-12.82-19.297-10.349l-149.649 45.169z"/><path d="m256.883 105.648-20.782 6.273h6.726z"/></g><path d="m214.341 418.66 61.558-18.581-140.776-9-105.846 9 5.608 18.581 99.68 9z" fill="#f9b067"/><path d="m15.484 390.499h481.032c8.551 0 15.484-5.903 15.484-24.484v-57.51c0-2.598-1.993-4.732-4.58-4.978-24.222-2.305-43.168-22.706-43.168-47.531s18.946-45.226 43.168-47.531c2.587-.246 4.58-2.38 4.58-4.978v-76.082c0-8.551-6.932-15.484-15.484-15.484h-481.032c-8.552 0-15.484 6.932-15.484 15.484v238.61c0 18.58 6.932 24.484 15.484 24.484z" fill="#ffde8f"/><path d="m34.885 418.66 10.51 34.82c2.471 8.187 11.111 12.82 19.298 10.349l149.648-45.169z" fill="#fcc07e"/><path d="m116.91 331.912h101.837c8.552 0 15.484-9 15.484-24.484v-55.738l-67.123-9-65.681 9v55.738c-.001 15.484 6.931 24.484 15.483 24.484z" fill="#61a2f5"/><path d="m218.746 322.912h-101.836c-8.552 0-15.484-6.932-15.484-15.484v18.581c0 8.551 6.932 15.484 15.484 15.484h42.455l7.742-9 7.742 9h43.898c8.552 0 15.484-6.932 15.484-15.484v-18.581c-.001 8.552-6.933 15.484-15.485 15.484z" fill="#4b93e2"/><path d="m150.714 191.674 9-5.932-9-6.673s-12.332-24.643-29.977-16.001c-10.267 5.029-13.576 17.671-14.4 28.606l22.073 9z" fill="#ff4d54"/><path d="m184.947 191.674-9-5.932 9-6.673s12.332-24.643 29.977-16.001c10.267 5.029 13.576 17.671 14.4 28.606l-22.073 9z" fill="#ff4d54"/><path d="m229.324 191.674c.753 10.004-.572 18.581-.572 18.581l-21.516 9-22.288-9-9-9.29 9-9.29h44.376z" fill="#ea4955"/><path d="m184.942 191.674-17.835 9-16.393-9v-12.605h34.228z" fill="#cc353e"/><path d="m106.337 191.674c-.753 10.004.572 18.581.572 18.581l21.517 9 22.288-9 9-9.29-9-9.29h-44.377z" fill="#ea4955"/><path d="m150.714 191.674v18.581l16.393 9 17.835-9v-18.581z" fill="#c12131"/><path d="m96.101 242.109h143.453c5.701 0 10.323-7.147 10.323-19.322v-2.209c0-5.701-4.622-10.322-10.323-10.322h-64.706l-7.742 9-7.742-9h-63.263c-5.701 0-10.323 4.622-10.323 10.322v2.209c.001 14.451 4.622 19.322 10.323 19.322z" fill="#9dc6fa"/><path d="m239.555 233.109h-143.454c-5.701 0-10.323-4.622-10.323-10.323v18.581c0 5.701 4.622 10.323 10.323 10.323h143.453c5.701 0 10.323-4.622 10.323-10.323v-18.581c0 5.701-4.621 10.323-10.322 10.323z" fill="#7eb7f6"/><path d="m159.365 210.255v22.854l7.742 9 7.742-9v-22.854z" fill="#ff4d54"/><path d="m159.365 233.109v18.581l7.742 9 7.742-9v-18.581z" fill="#ea4955"/><path d="m159.365 251.69v71.222l7.742 9 7.742-9v-71.222z" fill="#cc353e"/><path d="m159.365 322.912h15.484v18.581h-15.484z" fill="#c12131"/><g><g><g><path d="m496.516 381.499h-481.032c-8.552 0-15.484-6.933-15.484-15.484v18.581c0 8.552 6.932 15.484 15.484 15.484h481.032c8.552 0 15.484-6.932 15.484-15.484v-18.581c0 8.551-6.932 15.484-15.484 15.484z" fill="#f9cd7f"/></g></g></g></g><g><g fill="#ff4d54"><path d="m314.299 193.816c0 4.285 3.473 7.757 7.757 7.757 4.285 0 7.757-3.473 7.757-7.757v-15.514c0-4.285-3.472-7.757-7.757-7.757s-7.757 3.473-7.757 7.757z"/><path d="m314.299 286.901c0 4.284 3.473 7.757 7.757 7.757 4.285 0 7.757-3.473 7.757-7.757v-15.514c0-4.285-3.472-7.757-7.757-7.757s-7.757 3.473-7.757 7.757z"/><path d="m314.299 379.986c0 4.285 3.473 7.757 7.757 7.757 4.285 0 7.757-3.473 7.757-7.757v-15.514c0-4.285-3.472-7.757-7.757-7.757s-7.757 3.473-7.757 7.757z"/><path d="m314.299 333.443c0 4.285 3.473 7.757 7.757 7.757 4.285 0 7.757-3.473 7.757-7.757v-15.514c0-4.285-3.472-7.757-7.757-7.757s-7.757 3.472-7.757 7.757z"/><path d="m322.056 155.03c4.285 0 7.757-3.473 7.757-7.757v-15.514c0-4.285-3.472-7.757-7.757-7.757s-7.757 3.472-7.757 7.757v15.514c0 4.285 3.473 7.757 7.757 7.757z"/><path d="m314.299 240.358c0 4.285 3.473 7.757 7.757 7.757 4.285 0 7.757-3.473 7.757-7.757v-15.514c0-4.285-3.472-7.757-7.757-7.757s-7.757 3.473-7.757 7.757z"/></g><path d="m386.097 313.153v-111.205c0-4.285-3.473-7.757-7.757-7.757-4.285 0-7.757 3.473-7.757 7.757v111.205c0 4.285 3.472 7.757 7.757 7.757 4.284 0 7.757-3.473 7.757-7.757z" fill="#fcc07e"/><path d="m423.331 287.229v-59.358c0-4.285-3.473-7.757-7.757-7.757-4.285 0-7.757 3.473-7.757 7.757v59.358c0 4.285 3.473 7.757 7.757 7.757s7.757-3.472 7.757-7.757z" fill="#fcc07e"/></g></g></svg>