<svg id="flat_gradient_flaticon" height="512" viewBox="0 0 64 64" width="512" xmlns="http://www.w3.org/2000/svg" xmlns:xlink="http://www.w3.org/1999/xlink" data-name="flat gradient flaticon"><linearGradient id="linear-gradient" gradientUnits="userSpaceOnUse" x1="4" x2="60" y1="32" y2="32"><stop offset="0" stop-color="#00c0ff"/><stop offset="1" stop-color="#5558ff"/></linearGradient><path d="m25.45227 17.96106 10.60773-9.34772a2.00271 2.00271 0 0 1 2.70312.04315l9.93994 9.30457-6.14923.00012a5.73529 5.73529 0 0 0 -11.12463-.00012zm-3.263 0 6.78461-5.96613-5.24463-2.2077a2.03359 2.03359 0 0 0 -2.57385.937l-3.70466 7.23688c1.18366-.00243 3.55799.00166 4.73853-.00005zm37.81073 13.39694v13.13846h-17.82294c-8.69195-.3269-8.6839-12.79327-.00006-13.117.0138.01568 17.56885-.01734 17.823-.02146zm-17.51074 2.86466a3.7155 3.7155 0 0 0 -.00006 7.43072 3.7155 3.7155 0 0 0 .00006-7.43072zm-.00006 2.1538a1.56169 1.56169 0 0 0 .00006 3.123 1.56169 1.56169 0 0 0 -.00006-3.123zm-8.8092-18.4154h6.6231a3.58086 3.58086 0 0 0 -6.62311 0zm-21.78614 25.40466a7.90523 7.90523 0 0 1 -7.89386-7.89386c.43475-10.46869 15.35126-10.4718 15.78766-.00006a7.90523 7.90523 0 0 1 -7.8938 7.89392zm.94769-3.22-.00012-.39844a2.69507 2.69507 0 0 0 -.94757-5.20153.7754.7754 0 0 1 0-1.55079.76278.76278 0 0 1 .7431.56.97426.97426 0 0 0 1.18457.66779c1.56086-.62683.11261-2.65705-.98-2.97235.26544-1.89215-2.18054-1.86072-1.90613.01074a2.68861 2.68861 0 0 0 .95844 5.19073.78077.78077 0 1 1 -.76459.937.9502.9502 0 0 0 -1.13074-.73242c-1.6618.56384-.18847 2.77625.93689 3.08008v.40918a.95327.95327 0 0 0 1.90615-.00002zm29.33545 6.50455a8.71228 8.71228 0 1 1 -.00006-17.42456c1.31067-.00238 15.32141.00171 16.1969 0v-4.30771a4.81243 4.81243 0 0 0 -4.76-4.8031h-38.10151a4.88362 4.88362 0 0 0 -4.81384 5.38464 10.0441 10.0441 0 1 1 -.00013 19.94458l.00007 5.63233a4.82593 4.82593 0 0 0 4.8139 4.8139h38.05847a4.826 4.826 0 0 0 4.81384-4.8139v-4.42618c-.82116.01098-14.91223-.00787-16.20764 0z" fill="url(#linear-gradient)"/></svg>