<svg enable-background="new 0 0 32 32" height="512" viewBox="0 0 32 32" width="512" xmlns="http://www.w3.org/2000/svg"><g id="five_x2C__gesture_x2C__hand_x2C__wave"><g><g><path d="m3.58 16.7 7.44 3.8c.22.11.7.38.97-.06.25-.41-.17-.74-.37-.89l-8.66-6.63c-.63-.5-.77-1.47-.29-2.13.48-.69 1.48-.89 2.16-.42l8.8 6.31c.16.12.6.44.92.07.32-.35-.03-.75-.17-.9l-8.17-8.62c-.59-.65-.55-1.73.24-2.46.63-.58 1.74-.6 2.34.02l8.03 8.36c.12.12.49.5.87.22.39-.3.11-.74.04-.91l-4.99-8.28c-.34-.53-.35-1.62.57-2.17.95-.56 1.86 0 2.21.59l5.55 8.92c.79 1.32 2.03 2.43 3.13 2.95.85.4 1.51-.11 1.62-1 .17-1.38.44-3.09.92-4.53.5-1.51 2.26-2.26 3.76-1.5l-.51 2.01c-.51 2.04-.57 4.18-.22 6.26.3 1.74.6 3.98.56 5.97-.05 3-2.07 4.31-3.88 5.94-7.81 7.09-13.49-2.55-16.26-3.92l-8.05-4.47c-.68-.39-.83-1.3-.43-1.96.39-.64 1.19-.92 1.87-.57z" fill="#ffd869"/></g><g><path d="m28.16 7.4c.24.05.47.12.7.23l-.51 2.01c-.51 2.04-.57 4.18-.22 6.26.3 1.74.6 3.98.56 5.97-.05 3-2.07 4.31-3.88 5.94-1.48 1.34-2.88 2.08-4.2 2.39 1.78.03 3.73-.66 5.83-2.57 1.81-1.63 3.82-2.94 3.88-5.94.04-2-.26-4.24-.56-5.97-.36-2.08-.29-4.22.22-6.26l.51-2.01c-.77-.39-1.62-.37-2.33-.05z" fill="#f2c34e"/></g><g><g><path d="m28.14 14.91c.3 1.74.6 3.98.56 5.97-.05 3-2.07 4.31-3.88 5.94-3.12 2.83-5.9 2.99-8.29 2.08 2.72 1.65 6.06 2.24 9.92-1.27 1.81-1.63 3.82-2.94 3.88-5.94.04-2-.26-4.24-.56-5.97-.35-2.08-1.99-2.89-1.63-.81z" fill="#f2c34e"/></g></g><g><g><path d="m7.15 4.97 8.9 9.17c.12.12.49.5.87.22.39-.3.11-.74.04-.91l-.39-.65-7.78-8c-.55-.57-1.51-.6-2.15-.17.19.08.36.19.51.34z" fill="#f2c34e"/></g><g><path d="m3.11 10.61 9.76 6.99c.18.13.67.48 1.02.07.31-.33.06-.71-.11-.91l-8.86-6.35c-.59-.41-1.43-.35-2.01.09.07.04.14.07.2.11z" fill="#f2c34e"/></g><g><path d="m13.88 2.78 5.55 8.92c.79 1.32 2.03 2.43 3.13 2.95.59.28 1.09.1 1.38-.33-1.03-.56-2.13-1.58-2.87-2.8l-5.55-8.92c-.35-.59-1.26-1.15-2.21-.59-.06.03-.1.07-.15.11.31.17.57.41.72.66z" fill="#f2c34e"/></g><g><path d="m10.46 21.43c.25.13.82.44 1.13-.07.12-.2.09-.37.02-.52l-7.94-4.06c-.63-.32-1.33-.18-1.82.25z" fill="#f2c34e"/></g></g></g><g><g><path d="m20.75 30.71c-3.6 0-6.53-2.78-8.57-4.71-.88-.84-1.65-1.56-2.21-1.84l-8.07-4.48c-.42-.24-.72-.63-.84-1.11-.14-.52-.05-1.08.22-1.55.53-.9 1.61-1.23 2.52-.77l7.44 3.8c.08.04.27.13.33.13-.03-.03-.11-.11-.26-.23l-8.66-6.63c-.85-.68-1.02-1.94-.4-2.82.31-.44.8-.76 1.36-.85.54-.1 1.07.02 1.49.32l8.81 6.31c.18.14.25.15.27.15-.01-.01-.03-.09-.16-.23l-8.18-8.62c-.8-.9-.69-2.29.26-3.17.85-.77 2.27-.75 3.04.04l8.03 8.36c.14.14.2.16.23.17-.01-.05-.08-.19-.1-.24l-5-8.29c-.27-.41-.36-1.01-.23-1.55.13-.55.47-1 .97-1.3 1.13-.67 2.36-.14 2.9.76l5.54 8.92c.7 1.17 1.85 2.25 2.92 2.77.15.07.38.13.56.03s.31-.33.35-.65c.16-1.24.42-3.08.94-4.62.28-.86.93-1.55 1.78-1.9.86-.35 1.84-.31 2.69.11.21.11.32.34.26.57l-.51 2.01c-.49 1.96-.56 4-.21 6.05.41 2.35.6 4.39.57 6.07-.05 2.83-1.72 4.28-3.34 5.69-.23.2-.47.41-.7.62-2.16 1.94-4.19 2.68-6.04 2.68zm-17.8-13.66c-.32 0-.62.17-.8.48v.01c-.14.23-.18.52-.12.78.04.15.14.36.36.49l8.04 4.47c.68.33 1.49 1.1 2.43 2 3.19 3.02 7.55 7.16 13.25 1.99.24-.22.48-.42.72-.63 1.58-1.38 2.95-2.56 3-4.95.03-1.61-.16-3.59-.55-5.88-.38-2.19-.3-4.37.22-6.47l.4-1.59c-.49-.15-1.01-.13-1.49.07-.58.24-1.02.71-1.21 1.29-.49 1.47-.75 3.23-.9 4.43-.08.63-.39 1.14-.85 1.4-.43.24-.96.24-1.47 0-1.26-.6-2.54-1.81-3.34-3.15l-5.55-8.92c-.16-.26-.77-.88-1.53-.42-.27.16-.44.39-.51.67-.08.32 0 .63.1.79l5 8.29c.44.87.15 1.32-.16 1.56-.27.2-.82.44-1.52-.25l-8.04-8.37c-.4-.4-1.2-.4-1.64 0-.61.57-.59 1.34-.21 1.76l8.16 8.6c.61.64.49 1.24.17 1.59-.14.16-.69.67-1.59-.01l-8.8-6.3c-.2-.14-.46-.2-.74-.15-.29.05-.55.21-.71.44-.32.45-.23 1.12.19 1.46l8.65 6.62c.8.63.71 1.19.49 1.54-.23.38-.7.73-1.61.25l-7.45-3.81c-.12-.05-.25-.08-.39-.08z" fill="#455a64"/></g><g><path d="m7.87 28.86c-2.92 0-5.63-1.66-6.95-4.29-.12-.24-.02-.54.23-.67.25-.12.55-.02.67.22 1.18 2.34 3.63 3.81 6.25 3.73.28.01.51.21.51.49.01.28-.21.51-.49.51-.07.01-.14.01-.22.01z" fill="#455a64"/></g><g><path d="m7.82 26.38c-.02 0-.03 0-.05 0-1.92-.19-3.63-1.31-4.56-3-.13-.24-.05-.55.2-.68.24-.13.55-.05.68.2.77 1.4 2.19 2.33 3.78 2.49.27.03.48.27.45.55-.03.25-.25.44-.5.44z" fill="#455a64"/></g><g><path d="m24.63 8.18c-.25 0-.47-.19-.5-.45-.28-2.6-2.07-4.83-4.55-5.68-.26-.09-.4-.37-.31-.63s.37-.4.63-.31c2.84.97 4.89 3.53 5.22 6.52.03.27-.17.52-.44.55-.01 0-.03 0-.05 0z" fill="#455a64"/></g><g><path d="m22.2 8.68c-.24 0-.46-.18-.49-.43-.24-1.58-1.24-2.95-2.68-3.65-.25-.12-.35-.42-.23-.67s.42-.35.67-.23c1.73.85 2.94 2.49 3.23 4.4.04.27-.15.53-.42.57-.03 0-.05.01-.08.01z" fill="#455a64"/></g></g></g></svg>