<svg viewBox="-19 1 511 511.99999" xmlns="http://www.w3.org/2000/svg"><path d="m10.523438 10.023438h453.105468v342.839843h-453.105468zm0 0" fill="#e1e5ea"/><path d="m237.078125 211.265625s-59.390625 64.882813-124.304687 64.882813v76.796874c0 66.832032 49.742187 126.472657 124.304687 149.03125 74.5625-22.5625 124.304687-82.199218 124.304687-149.03125v-76.796874c-64.917968 0-124.304687-64.882813-124.304687-64.882813zm0 0" fill="#fac800"/><path d="m306.246094 313.351562c-45.832032-25.039062-91.945313-24.734374-138.335938 0v50.417969c0 37.351563 27.675782 70.683594 69.167969 83.289063 41.488281-12.605469 69.167969-45.9375 69.167969-83.289063zm0 0" fill="#fad79b"/><path d="m170.917969 10.023438 28.816406 57.640624c6.914063 13.824219 21.042969 22.554688 36.5 22.554688h227.394531v-80.195312zm0 0" fill="#5aa096"/><path d="m423.53125 240.585938h-18.042969c-5.535156 0-10.023437 4.492187-10.023437 10.027343 0 5.535157 4.488281 10.023438 10.023437 10.023438h18.042969c5.539062 0 10.027344-4.488281 10.027344-10.023438 0-5.535156-4.488282-10.027343-10.027344-10.027343zm0 0"/><path d="m423.53125 60.148438c5.535156 0 10.027344-4.492188 10.027344-10.027344s-4.492188-10.023438-10.027344-10.023438c-5.53125 0-10.023438 4.488282-10.023438 10.023438s4.492188 10.027344 10.023438 10.027344zm0 0"/><path d="m383.433594 60.148438c5.535156 0 10.027344-4.492188 10.027344-10.027344s-4.492188-10.023438-10.027344-10.023438c-5.53125 0-10.023438 4.488282-10.023438 10.023438s4.492188 10.027344 10.023438 10.027344zm0 0"/><path d="m343.335938 60.148438c5.535156 0 10.027343-4.492188 10.027343-10.027344s-4.492187-10.023438-10.027343-10.023438c-5.53125 0-10.023438 4.488282-10.023438 10.023438s4.492188 10.027344 10.023438 10.027344zm0 0"/><path d="m50.621094 60.148438c5.523437 0 10.027344-4.503907 10.027344-10.027344 0-5.523438-4.503907-10.023438-10.027344-10.023438-5.523438 0-10.023438 4.5-10.023438 10.023438 0 5.523437 4.5 10.027344 10.023438 10.027344zm0 0"/><path d="m130.816406 120.292969h-80.195312c-5.535156 0-10.023438 4.488281-10.023438 10.023437 0 5.539063 4.488282 10.027344 10.023438 10.027344h80.195312c5.539063 0 10.027344-4.488281 10.027344-10.027344 0-5.535156-4.488281-10.023437-10.027344-10.023437zm0 0"/><path d="m160.890625 130.316406c0 5.539063 4.488281 10.027344 10.027344 10.027344h128.3125c5.535156 0 10.023437-4.488281 10.023437-10.027344 0-5.535156-4.488281-10.023437-10.023437-10.023437h-128.3125c-5.539063 0-10.027344 4.488281-10.027344 10.023437zm0 0"/><path d="m196.980469 160.390625h-40.097657c-5.523437 0-10.027343 4.5-10.027343 10.027344 0 5.523437 4.503906 10.023437 10.027343 10.023437h40.097657c5.523437 0 10.023437-4.5 10.023437-10.023437 0-5.527344-4.5-10.027344-10.023437-10.027344zm0 0"/><path d="m116.785156 160.390625c-5.523437 0-10.027344 4.5-10.027344 10.027344 0 5.523437 4.503907 10.023437 10.027344 10.023437 5.523438 0 10.023438-4.5 10.023438-10.023437 0-5.527344-4.5-10.027344-10.023438-10.027344zm0 0"/><path d="m50.621094 180.441406h26.066406c5.523438 0 10.023438-4.5 10.023438-10.023437 0-5.527344-4.5-10.027344-10.023438-10.027344h-26.066406c-5.523438 0-10.023438 4.5-10.023438 10.027344 0 5.523437 4.5 10.023437 10.023438 10.023437zm0 0"/><path d="m113.777344 200.488281h-63.15625c-5.535156 0-10.023438 4.488281-10.023438 10.027344 0 5.535156 4.488282 10.023437 10.023438 10.023437h63.15625c5.535156 0 10.023437-4.488281 10.023437-10.023437 0-5.539063-4.488281-10.027344-10.023437-10.027344zm0 0"/><path d="m75.683594 240.585938h-25.0625c-5.535156 0-10.023438 4.492187-10.023438 10.027343 0 5.535157 4.488282 10.023438 10.023438 10.023438h25.0625c5.535156 0 10.023437-4.488281 10.023437-10.023438 0-5.535156-4.488281-10.027343-10.023437-10.027343zm0 0"/><path d="m343.335938 140.34375h40.097656c5.523437 0 10.027344-4.503906 10.027344-10.027344 0-5.523437-4.503907-10.023437-10.027344-10.023437h-40.097656c-5.523438 0-10.023438 4.5-10.023438 10.023437 0 5.523438 4.5 10.027344 10.023438 10.027344zm0 0"/><path d="m423.53125 140.34375c5.523438 0 10.027344-4.503906 10.027344-10.027344 0-5.523437-4.503906-10.023437-10.027344-10.023437s-10.023438 4.5-10.023438 10.023437c0 5.523438 4.5 10.027344 10.023438 10.027344zm0 0"/><path d="m423.53125 160.390625h-135.328125c-5.539063 0-10.023437 4.488281-10.023437 10.027344 0 5.535156 4.484374 10.023437 10.023437 10.023437h135.328125c5.539062 0 10.027344-4.488281 10.027344-10.023437 0-5.539063-4.488282-10.027344-10.027344-10.027344zm0 0"/><path d="m423.53125 200.488281h-40.097656c-5.523438 0-10.023438 4.503907-10.023438 10.027344s4.5 10.023437 10.023438 10.023437h40.097656c5.523438 0 10.027344-4.5 10.027344-10.023437s-4.503906-10.027344-10.027344-10.027344zm0 0"/><path d="m343.335938 200.488281c-5.523438 0-10.023438 4.503907-10.023438 10.027344s4.5 10.023437 10.023438 10.023437c5.523437 0 10.027343-4.5 10.027343-10.023437s-4.503906-10.027344-10.027343-10.027344zm0 0"/><path d="m157.882812 314.109375v49.753906c0 41.21875 30.667969 78.109375 76.316407 91.796875.9375.28125 1.90625.421875 2.878906.421875.96875 0 1.941406-.140625 2.878906-.421875 45.644531-13.6875 76.3125-50.578125 76.3125-91.796875v-49.753906c0-3.6875-2.023437-7.074219-5.265625-8.824219-48.457031-26.125-98.171875-26.140625-147.761718-.046875-3.292969 1.730469-5.359376 5.148438-5.359376 8.871094zm20.050782 6.164063c40.210937-19.5 79.015625-19.519532 118.289062-.066407v43.65625c0 31.453125-23.644531 59.941407-59.144531 71.683594-35.503906-11.742187-59.144531-40.230469-59.144531-71.683594zm0 0"/><path d="m463.628906 0h-453.105468c-5.535157 0-10.023438 4.488281-10.023438 10.023438v342.839843c0 5.535157 4.488281 10.023438 10.023438 10.023438h92.570312c4.660156 67.039062 56.15625 126.015625 131.082031 148.683593.945313.285157 1.921875.429688 2.902344.429688.976563 0 1.957031-.144531 2.902344-.429688 74.925781-22.671874 126.417969-81.644531 131.082031-148.683593h92.566406c5.539063 0 10.027344-4.488281 10.027344-10.023438v-342.839843c0-5.535157-4.488281-10.023438-10.027344-10.023438zm-112.273437 352.945312c0 61.332032-45.792969 116.675782-114.277344 138.53125-68.488281-21.859374-114.28125-77.199218-114.28125-138.53125v-67.230468c51.472656-4.644532 96.929687-43.5 114.28125-60.195313 17.351563 16.695313 62.808594 55.550781 114.277344 60.195313zm102.25-10.109374h-82.199219v-66.6875c0-5.535157-4.488281-10.023438-10.023438-10.023438-59.648437 0-116.351562-61.015625-116.914062-61.632812-1.898438-2.066407-4.578125-3.246094-7.386719-3.246094 0 0-.003906 0-.007812 0-2.804688 0-5.488281 1.179687-7.386719 3.246094-.5625.617187-57.265625 61.632812-116.914062 61.632812-5.535157 0-10.023438 4.488281-10.023438 10.023438v66.6875h-82.199219v-322.785157h144.171875l10.023438 20.046875h-84.023438c-5.523437 0-10.027344 4.5-10.027344 10.023438 0 5.523437 4.503907 10.027344 10.027344 10.027344h94.046875l6 11.996093c8.664063 17.332031 26.085938 28.101563 45.464844 28.101563h217.371094zm0-262.640626h-217.371094c-11.734375 0-22.285156-6.519531-27.53125-17.015624l-21.566406-43.128907h266.46875zm0 0"/></svg>